<svg version="1.1" id="Layer_1" xmlns="http://www.w3.org/2000/svg" xmlns:xlink="http://www.w3.org/1999/xlink" x="0px" y="0px"
	 width="100%" viewBox="0 0 180 180" enable-background="new 0 0 180 180" xml:space="preserve">
<path fill="#17172B" opacity="1.000000" stroke="none" 
	d="
M1.000001,174.000000 
	C1.000000,118.979103 1.000000,63.958210 1.336292,8.424830 
	C3.781723,5.608231 5.890862,3.304115 8.000000,1.000000 
	C63.020893,1.000000 118.041786,1.000000 173.575226,1.336277 
	C176.391830,3.781702 178.695923,5.890850 181.000000,7.999999 
	C181.000000,63.020893 181.000000,118.041786 180.663712,173.575241 
	C178.218277,176.391861 176.109131,178.695923 174.000000,181.000000 
	C118.979103,181.000000 63.958210,181.000000 8.424776,180.663757 
	C5.608158,178.218338 3.304080,176.109161 1.000001,174.000000 
M67.780685,152.799225 
	C74.593117,152.526260 81.488808,152.836105 88.203201,151.876877 
	C113.815262,148.217880 132.880524,135.573517 142.440247,110.687141 
	C146.811584,99.307449 147.875168,87.426231 147.146973,75.332664 
	C145.797775,52.925404 132.831696,36.785702 111.204285,31.014624 
	C92.534721,26.032820 74.198929,28.159157 56.341667,34.752060 
	C50.792965,36.800648 45.485180,39.773258 40.498047,42.990803 
	C36.008831,45.887112 34.729427,52.979286 37.612339,56.774113 
	C41.346260,61.689133 44.974144,58.155945 48.468121,56.152443 
	C62.521297,48.094147 77.527565,44.029045 93.812988,44.988598 
	C111.395485,46.024574 123.811134,56.774147 125.752960,73.563416 
	C127.125328,85.429070 125.833130,97.137360 121.378349,108.388214 
	C113.004417,129.537155 93.385498,140.082977 66.486412,135.478882 
	C66.874092,132.016983 67.012146,128.496048 67.692993,125.083389 
	C71.526817,105.866623 75.564148,86.690094 79.309166,67.456444 
	C79.728821,65.301170 79.584236,62.008411 78.262321,60.722992 
	C73.075485,55.679363 60.901844,59.536469 59.039177,66.598648 
	C57.047913,74.148407 54.899803,81.695908 53.576500,89.374725 
	C50.669445,106.243713 48.070156,123.171181 45.694542,140.123734 
	C44.688396,147.303650 46.933826,149.936432 53.967495,151.143280 
	C58.225716,151.873901 62.549980,152.219635 67.780685,152.799225 
z"/>
<path fill="#000000" opacity="1.000000" stroke="none" 
	d="
M7.502095,1.000000 
	C5.890862,3.304115 3.781723,5.608231 1.336292,7.956173 
	C1.000000,5.752362 1.000000,3.504725 1.000000,1.000000 
	C2.998142,1.000000 5.001166,1.000000 7.502095,1.000000 
z"/>
<path fill="#000000" opacity="1.000000" stroke="none" 
	d="
M181.000000,7.502094 
	C178.695923,5.890850 176.391830,3.781702 174.043884,1.336277 
	C176.247635,1.000000 178.495285,1.000000 181.000000,1.000000 
	C181.000000,2.998142 181.000000,5.001166 181.000000,7.502094 
z"/>
<path fill="#000000" opacity="1.000000" stroke="none" 
	d="
M1.000001,174.497910 
	C3.304080,176.109161 5.608158,178.218338 7.956118,180.663757 
	C5.752364,181.000000 3.504728,181.000000 1.000000,181.000000 
	C1.000000,179.001862 1.000000,176.998840 1.000001,174.497910 
z"/>
<path fill="#000000" opacity="1.000000" stroke="none" 
	d="
M174.497910,181.000000 
	C176.109131,178.695923 178.218277,176.391861 180.663712,174.043900 
	C181.000000,176.247635 181.000000,178.495270 181.000000,181.000000 
	C179.001862,181.000000 176.998840,181.000000 174.497910,181.000000 
z"/>
<path fill="#FCFCFC" opacity="1.000000" stroke="none" 
	d="
M67.312630,152.768753 
	C62.549980,152.219635 58.225716,151.873901 53.967495,151.143280 
	C46.933826,149.936432 44.688396,147.303650 45.694542,140.123734 
	C48.070156,123.171181 50.669445,106.243713 53.576500,89.374725 
	C54.899803,81.695908 57.047913,74.148407 59.039177,66.598648 
	C60.901844,59.536469 73.075485,55.679363 78.262321,60.722992 
	C79.584236,62.008411 79.728821,65.301170 79.309166,67.456444 
	C75.564148,86.690094 71.526817,105.866623 67.692993,125.083389 
	C67.012146,128.496048 66.874092,132.016983 66.486412,135.478882 
	C93.385498,140.082977 113.004417,129.537155 121.378349,108.388214 
	C125.833130,97.137360 127.125328,85.429070 125.752960,73.563416 
	C123.811134,56.774147 111.395485,46.024574 93.812988,44.988598 
	C77.527565,44.029045 62.521297,48.094147 48.468121,56.152443 
	C44.974144,58.155945 41.346260,61.689133 37.612339,56.774113 
	C34.729427,52.979286 36.008831,45.887112 40.498047,42.990803 
	C45.485180,39.773258 50.792965,36.800648 56.341667,34.752060 
	C74.198929,28.159157 92.534721,26.032820 111.204285,31.014624 
	C132.831696,36.785702 145.797775,52.925404 147.146973,75.332664 
	C147.875168,87.426231 146.811584,99.307449 142.440247,110.687141 
	C132.880524,135.573517 113.815262,148.217880 88.203201,151.876877 
	C81.488808,152.836105 74.593117,152.526260 67.312630,152.768753 
z"/>
</svg>
