<svg width="1688" height="705" viewBox="0 0 1688 705" fill="none" xmlns="http://www.w3.org/2000/svg">
<path d="M412.059 423.867H417.973C420.513 423.867 422.39 424.711 423.603 426.398C424.835 428.085 425.451 430.549 425.451 433.79C425.451 437.031 424.835 439.496 423.603 441.182C422.39 442.869 420.513 443.713 417.973 443.713H412.059V423.867ZM417.774 441.097C419.234 441.097 420.314 440.614 421.015 439.647C421.736 438.662 422.096 437.259 422.096 435.439V432.141C422.096 430.321 421.736 428.928 421.015 427.962C420.314 426.976 419.234 426.483 417.774 426.483H415.215V441.097H417.774ZM440.764 443.713C439.873 443.713 439.201 443.485 438.746 443.031C438.31 442.576 438.044 441.979 437.95 441.239H437.807C437.523 442.13 437.002 442.822 436.244 443.315C435.504 443.808 434.557 444.054 433.4 444.054C431.903 444.054 430.709 443.666 429.818 442.888C428.927 442.092 428.482 441.002 428.482 439.619C428.482 438.197 429.003 437.117 430.046 436.377C431.107 435.619 432.728 435.24 434.907 435.24H437.722V434.103C437.722 432.113 436.67 431.118 434.566 431.118C433.618 431.118 432.851 431.307 432.263 431.686C431.676 432.046 431.183 432.53 430.785 433.136L428.937 431.629C429.354 430.833 430.055 430.151 431.041 429.582C432.026 428.995 433.296 428.701 434.85 428.701C436.708 428.701 438.168 429.146 439.229 430.037C440.29 430.928 440.821 432.217 440.821 433.904V441.268H442.669V443.713H440.764ZM434.282 441.78C435.286 441.78 436.111 441.552 436.755 441.097C437.4 440.642 437.722 440.055 437.722 439.334V437.202H434.964C432.728 437.202 431.609 437.875 431.609 439.221V439.789C431.609 440.453 431.846 440.955 432.32 441.296C432.794 441.618 433.448 441.78 434.282 441.78ZM453.235 443.713C451.946 443.713 450.998 443.372 450.392 442.689C449.785 441.988 449.482 441.088 449.482 439.988V431.544H444.961V429.042H448.174C448.724 429.042 449.112 428.938 449.34 428.729C449.567 428.502 449.681 428.104 449.681 427.535V423.867H452.581V429.042H458.836V431.544H452.581V441.211H458.836V443.713H453.235ZM474.86 443.713C473.969 443.713 473.297 443.485 472.842 443.031C472.406 442.576 472.14 441.979 472.046 441.239H471.903C471.619 442.13 471.098 442.822 470.34 443.315C469.6 443.808 468.653 444.054 467.496 444.054C465.999 444.054 464.805 443.666 463.914 442.888C463.023 442.092 462.578 441.002 462.578 439.619C462.578 438.197 463.099 437.117 464.142 436.377C465.203 435.619 466.824 435.24 469.003 435.24H471.818V434.103C471.818 432.113 470.766 431.118 468.662 431.118C467.714 431.118 466.947 431.307 466.359 431.686C465.772 432.046 465.279 432.53 464.881 433.136L463.033 431.629C463.45 430.833 464.151 430.151 465.137 429.582C466.122 428.995 467.392 428.701 468.946 428.701C470.804 428.701 472.264 429.146 473.325 430.037C474.386 430.928 474.917 432.217 474.917 433.904V441.268H476.765V443.713H474.86ZM468.378 441.78C469.382 441.78 470.207 441.552 470.851 441.097C471.496 440.642 471.818 440.055 471.818 439.334V437.202H469.06C466.824 437.202 465.705 437.875 465.705 439.221V439.789C465.705 440.453 465.942 440.955 466.416 441.296C466.89 441.618 467.544 441.78 468.378 441.78Z" fill="black"/>
<path d="M645.445 444.054C643.721 444.054 642.271 443.751 641.095 443.144C639.92 442.538 638.953 441.732 638.195 440.728L640.242 438.766C641.001 439.676 641.806 440.348 642.659 440.784C643.512 441.201 644.479 441.41 645.559 441.41C646.81 441.41 647.767 441.126 648.431 440.557C649.113 439.988 649.454 439.173 649.454 438.112C649.454 437.259 649.208 436.605 648.715 436.15C648.222 435.676 647.379 435.335 646.185 435.126L644.024 434.785C643.076 434.634 642.28 434.387 641.636 434.046C640.991 433.686 640.47 433.269 640.072 432.795C639.674 432.302 639.38 431.762 639.19 431.174C639.02 430.568 638.935 429.933 638.935 429.27C638.935 427.393 639.541 425.971 640.754 425.005C641.967 424.019 643.635 423.526 645.758 423.526C647.331 423.526 648.668 423.782 649.767 424.294C650.885 424.787 651.786 425.488 652.468 426.398L650.478 428.388C649.928 427.725 649.274 427.194 648.516 426.796C647.777 426.379 646.858 426.17 645.758 426.17C644.583 426.17 643.683 426.426 643.057 426.938C642.451 427.431 642.147 428.161 642.147 429.127C642.147 429.942 642.384 430.587 642.858 431.061C643.351 431.516 644.213 431.847 645.445 432.056L647.549 432.425C649.331 432.748 650.629 433.402 651.445 434.387C652.26 435.354 652.667 436.539 652.667 437.941C652.667 438.851 652.506 439.685 652.184 440.443C651.88 441.201 651.416 441.846 650.791 442.377C650.184 442.907 649.426 443.324 648.516 443.628C647.625 443.912 646.602 444.054 645.445 444.054ZM662.977 444.054C661.858 444.054 660.854 443.874 659.963 443.514C659.072 443.154 658.323 442.642 657.717 441.979C657.11 441.315 656.646 440.519 656.324 439.59C656.001 438.643 655.84 437.581 655.84 436.406C655.84 435.231 656.001 434.169 656.324 433.222C656.665 432.274 657.129 431.468 657.717 430.805C658.323 430.122 659.053 429.601 659.906 429.241C660.759 428.881 661.707 428.701 662.749 428.701C663.773 428.701 664.702 428.881 665.536 429.241C666.37 429.582 667.08 430.075 667.668 430.72C668.256 431.364 668.701 432.132 669.004 433.023C669.327 433.913 669.488 434.899 669.488 435.979V437.145H658.968V437.628C658.968 438.785 659.328 439.732 660.048 440.472C660.769 441.192 661.764 441.552 663.034 441.552C663.981 441.552 664.787 441.353 665.45 440.955C666.133 440.538 666.682 439.988 667.099 439.306L669.033 441.012C668.54 441.865 667.782 442.585 666.758 443.173C665.754 443.76 664.493 444.054 662.977 444.054ZM662.749 431.061C662.2 431.061 661.688 431.155 661.214 431.345C660.759 431.535 660.361 431.809 660.02 432.17C659.698 432.511 659.442 432.918 659.252 433.392C659.063 433.866 658.968 434.387 658.968 434.956V435.155H666.332V434.871C666.332 433.714 666 432.795 665.337 432.113C664.692 431.411 663.83 431.061 662.749 431.061ZM673.343 441.211H677.238V431.544H673.343V429.042H680.338V432.937H680.508C680.641 432.425 680.83 431.933 681.077 431.459C681.323 430.985 681.636 430.577 682.015 430.236C682.394 429.876 682.858 429.592 683.408 429.383C683.958 429.156 684.602 429.042 685.342 429.042H687.104V431.999H684.204C683.067 431.999 682.138 432.34 681.418 433.023C680.698 433.686 680.338 434.586 680.338 435.724V441.211H685.654V443.713H673.343V441.211ZM694.855 443.713L689.595 429.042H692.808L694.827 435.24L696.732 441.126H696.902L698.807 435.24L700.826 429.042H703.925L698.665 443.713H694.855ZM714.718 426.369C713.922 426.369 713.363 426.208 713.04 425.886C712.737 425.564 712.585 425.166 712.585 424.692V424.095C712.585 423.621 712.737 423.223 713.04 422.901C713.363 422.579 713.912 422.417 714.689 422.417C715.485 422.417 716.035 422.579 716.338 422.901C716.661 423.223 716.822 423.621 716.822 424.095V424.692C716.822 425.166 716.661 425.564 716.338 425.886C716.035 426.208 715.495 426.369 714.718 426.369ZM708.15 441.211H713.154V431.544H708.15V429.042H716.253V441.211H720.944V443.713H708.15V441.211ZM731.396 444.054C730.297 444.054 729.311 443.874 728.439 443.514C727.586 443.154 726.857 442.642 726.25 441.979C725.662 441.315 725.208 440.51 724.885 439.562C724.582 438.614 724.43 437.553 724.43 436.377C724.43 435.202 724.582 434.141 724.885 433.193C725.208 432.245 725.662 431.44 726.25 430.776C726.857 430.113 727.586 429.601 728.439 429.241C729.311 428.881 730.287 428.701 731.368 428.701C732.884 428.701 734.097 429.023 735.007 429.668C735.936 430.312 736.628 431.146 737.083 432.17L734.666 433.477C734.4 432.795 733.993 432.255 733.443 431.857C732.913 431.459 732.221 431.26 731.368 431.26C730.193 431.26 729.283 431.62 728.638 432.34C727.994 433.041 727.672 433.98 727.672 435.155V437.6C727.672 438.756 727.994 439.695 728.638 440.415C729.283 441.135 730.212 441.495 731.425 441.495C732.334 441.495 733.074 441.287 733.642 440.87C734.23 440.453 734.694 439.884 735.035 439.164L737.31 440.557C736.836 441.581 736.116 442.424 735.149 443.087C734.183 443.732 732.932 444.054 731.396 444.054ZM748.217 444.054C747.098 444.054 746.094 443.874 745.203 443.514C744.312 443.154 743.563 442.642 742.957 441.979C742.35 441.315 741.886 440.519 741.564 439.59C741.241 438.643 741.08 437.581 741.08 436.406C741.08 435.231 741.241 434.169 741.564 433.222C741.905 432.274 742.369 431.468 742.957 430.805C743.563 430.122 744.293 429.601 745.146 429.241C745.999 428.881 746.947 428.701 747.989 428.701C749.013 428.701 749.942 428.881 750.776 429.241C751.61 429.582 752.32 430.075 752.908 430.72C753.496 431.364 753.941 432.132 754.244 433.023C754.567 433.913 754.728 434.899 754.728 435.979V437.145H744.208V437.628C744.208 438.785 744.568 439.732 745.288 440.472C746.009 441.192 747.004 441.552 748.274 441.552C749.221 441.552 750.027 441.353 750.69 440.955C751.373 440.538 751.922 439.988 752.339 439.306L754.273 441.012C753.78 441.865 753.022 442.585 751.998 443.173C750.994 443.76 749.733 444.054 748.217 444.054ZM747.989 431.061C747.44 431.061 746.928 431.155 746.454 431.345C745.999 431.535 745.601 431.809 745.26 432.17C744.938 432.511 744.682 432.918 744.492 433.392C744.303 433.866 744.208 434.387 744.208 434.956V435.155H751.572V434.871C751.572 433.714 751.24 432.795 750.577 432.113C749.932 431.411 749.07 431.061 747.989 431.061ZM764.98 444.054C763.388 444.054 762.014 443.798 760.858 443.286C759.721 442.775 758.801 442.092 758.1 441.239L760.005 439.533C760.649 440.235 761.37 440.775 762.166 441.154C762.981 441.514 763.938 441.694 765.037 441.694C766.042 441.694 766.847 441.524 767.454 441.182C768.079 440.841 768.392 440.311 768.392 439.59C768.392 439.287 768.335 439.031 768.222 438.823C768.108 438.614 767.947 438.444 767.738 438.311C767.53 438.178 767.283 438.074 766.999 437.998C766.734 437.922 766.449 437.865 766.146 437.828L763.815 437.458C763.246 437.382 762.668 437.259 762.08 437.088C761.493 436.918 760.962 436.681 760.488 436.377C760.033 436.055 759.654 435.648 759.351 435.155C759.067 434.662 758.924 434.037 758.924 433.278C758.924 431.781 759.493 430.644 760.63 429.867C761.787 429.089 763.303 428.701 765.179 428.701C766.544 428.701 767.719 428.909 768.705 429.326C769.71 429.724 770.544 430.284 771.207 431.004L769.473 432.823C769.094 432.388 768.553 431.989 767.852 431.629C767.151 431.25 766.222 431.061 765.066 431.061C763 431.061 761.967 431.715 761.967 433.023C761.967 433.648 762.185 434.084 762.621 434.33C763.075 434.558 763.606 434.709 764.213 434.785L766.544 435.155C767.132 435.25 767.71 435.373 768.279 435.525C768.866 435.676 769.387 435.913 769.842 436.235C770.316 436.539 770.695 436.937 770.98 437.429C771.283 437.922 771.434 438.548 771.434 439.306C771.434 440.784 770.856 441.95 769.7 442.803C768.563 443.637 766.99 444.054 764.98 444.054Z" fill="black"/>
<path d="M905.625 444.054C903.104 444.054 901.228 443.163 899.996 441.381C898.783 439.6 898.176 437.069 898.176 433.79C898.176 430.511 898.783 427.981 899.996 426.199C901.228 424.417 903.104 423.526 905.625 423.526C906.592 423.526 907.426 423.659 908.127 423.924C908.847 424.171 909.464 424.521 909.975 424.976C910.487 425.412 910.914 425.934 911.255 426.54C911.615 427.128 911.909 427.763 912.136 428.445L909.264 429.412C909.113 428.957 908.942 428.53 908.753 428.132C908.563 427.734 908.326 427.393 908.042 427.109C907.758 426.824 907.416 426.597 907.018 426.426C906.639 426.256 906.165 426.17 905.597 426.17C904.194 426.17 903.171 426.711 902.526 427.791C901.882 428.853 901.559 430.293 901.559 432.113V435.468C901.559 437.287 901.882 438.737 902.526 439.818C903.171 440.879 904.194 441.41 905.597 441.41C906.165 441.41 906.639 441.325 907.018 441.154C907.416 440.983 907.758 440.756 908.042 440.472C908.326 440.187 908.563 439.846 908.753 439.448C908.942 439.05 909.113 438.624 909.264 438.169L912.136 439.135C911.909 439.818 911.615 440.462 911.255 441.069C910.914 441.656 910.487 442.178 909.975 442.632C909.464 443.068 908.847 443.419 908.127 443.684C907.426 443.931 906.592 444.054 905.625 444.054ZM922.105 444.054C921.024 444.054 920.048 443.874 919.176 443.514C918.323 443.154 917.593 442.642 916.987 441.979C916.399 441.315 915.944 440.51 915.622 439.562C915.3 438.614 915.139 437.553 915.139 436.377C915.139 435.202 915.3 434.141 915.622 433.193C915.944 432.245 916.399 431.44 916.987 430.776C917.593 430.113 918.323 429.601 919.176 429.241C920.048 428.881 921.024 428.701 922.105 428.701C923.185 428.701 924.152 428.881 925.005 429.241C925.877 429.601 926.606 430.113 927.194 430.776C927.8 431.44 928.265 432.245 928.587 433.193C928.909 434.141 929.07 435.202 929.07 436.377C929.07 437.553 928.909 438.614 928.587 439.562C928.265 440.51 927.8 441.315 927.194 441.979C926.606 442.642 925.877 443.154 925.005 443.514C924.152 443.874 923.185 444.054 922.105 444.054ZM922.105 441.609C923.242 441.609 924.142 441.268 924.806 440.585C925.488 439.884 925.829 438.851 925.829 437.486V435.269C925.829 433.904 925.488 432.88 924.806 432.198C924.142 431.497 923.242 431.146 922.105 431.146C920.967 431.146 920.057 431.497 919.375 432.198C918.712 432.88 918.38 433.904 918.38 435.269V437.486C918.38 438.851 918.712 439.884 919.375 440.585C920.057 441.268 920.967 441.609 922.105 441.609ZM931.874 443.713V429.042H934.518V430.947H934.66C934.888 430.321 935.21 429.791 935.627 429.355C936.063 428.919 936.679 428.701 937.475 428.701C938.252 428.701 938.849 428.919 939.266 429.355C939.702 429.772 939.977 430.35 940.091 431.089H940.205C940.47 430.426 940.84 429.867 941.313 429.412C941.787 428.938 942.47 428.701 943.36 428.701C944.498 428.701 945.284 429.099 945.72 429.895C946.175 430.691 946.403 431.857 946.403 433.392V443.713H943.759V433.79C943.759 432.767 943.635 432.065 943.389 431.686C943.142 431.288 942.744 431.089 942.195 431.089C941.702 431.089 941.285 431.26 940.944 431.601C940.622 431.923 940.46 432.416 940.46 433.079V443.713H937.816V433.79C937.816 432.767 937.693 432.065 937.447 431.686C937.219 431.288 936.831 431.089 936.281 431.089C935.769 431.089 935.343 431.26 935.002 431.601C934.679 431.923 934.518 432.416 934.518 433.079V443.713H931.874ZM948.922 443.713V429.042H951.566V430.947H951.708C951.936 430.321 952.258 429.791 952.675 429.355C953.111 428.919 953.727 428.701 954.523 428.701C955.3 428.701 955.897 428.919 956.314 429.355C956.75 429.772 957.025 430.35 957.139 431.089H957.253C957.518 430.426 957.888 429.867 958.361 429.412C958.835 428.938 959.518 428.701 960.408 428.701C961.546 428.701 962.332 429.099 962.768 429.895C963.223 430.691 963.451 431.857 963.451 433.392V443.713H960.807V433.79C960.807 432.767 960.683 432.065 960.437 431.686C960.19 431.288 959.792 431.089 959.243 431.089C958.75 431.089 958.333 431.26 957.992 431.601C957.67 431.923 957.508 432.416 957.508 433.079V443.713H954.864V433.79C954.864 432.767 954.741 432.065 954.495 431.686C954.267 431.288 953.879 431.089 953.329 431.089C952.817 431.089 952.391 431.26 952.05 431.601C951.727 431.923 951.566 432.416 951.566 433.079V443.713H948.922ZM973.561 444.054C972.443 444.054 971.438 443.874 970.548 443.514C969.657 443.154 968.908 442.642 968.301 441.979C967.695 441.315 967.23 440.519 966.908 439.59C966.586 438.643 966.425 437.581 966.425 436.406C966.425 435.231 966.586 434.169 966.908 433.222C967.249 432.274 967.714 431.468 968.301 430.805C968.908 430.122 969.638 429.601 970.491 429.241C971.344 428.881 972.291 428.701 973.334 428.701C974.357 428.701 975.286 428.881 976.12 429.241C976.954 429.582 977.665 430.075 978.253 430.72C978.84 431.364 979.286 432.132 979.589 433.023C979.911 433.913 980.072 434.899 980.072 435.979V437.145H969.552V437.628C969.552 438.785 969.913 439.732 970.633 440.472C971.353 441.192 972.348 441.552 973.618 441.552C974.566 441.552 975.371 441.353 976.035 440.955C976.717 440.538 977.267 439.988 977.684 439.306L979.617 441.012C979.124 441.865 978.366 442.585 977.343 443.173C976.338 443.76 975.078 444.054 973.561 444.054ZM973.334 431.061C972.784 431.061 972.272 431.155 971.799 431.345C971.344 431.535 970.946 431.809 970.604 432.17C970.282 432.511 970.026 432.918 969.837 433.392C969.647 433.866 969.552 434.387 969.552 434.956V435.155H976.916V434.871C976.916 433.714 976.585 432.795 975.921 432.113C975.277 431.411 974.414 431.061 973.334 431.061ZM983.928 441.211H987.823V431.544H983.928V429.042H990.922V432.937H991.093C991.225 432.425 991.415 431.933 991.661 431.459C991.908 430.985 992.22 430.577 992.6 430.236C992.979 429.876 993.443 429.592 993.993 429.383C994.542 429.156 995.187 429.042 995.926 429.042H997.689V431.999H994.789C993.651 431.999 992.723 432.34 992.002 433.023C991.282 433.686 990.922 434.586 990.922 435.724V441.211H996.239V443.713H983.928V441.211ZM1007.88 444.054C1006.79 444.054 1005.8 443.874 1004.93 443.514C1004.07 443.154 1003.35 442.642 1002.74 441.979C1002.15 441.315 1001.7 440.51 1001.37 439.562C1001.07 438.614 1000.92 437.553 1000.92 436.377C1000.92 435.202 1001.07 434.141 1001.37 433.193C1001.7 432.245 1002.15 431.44 1002.74 430.776C1003.35 430.113 1004.07 429.601 1004.93 429.241C1005.8 428.881 1006.78 428.701 1007.86 428.701C1009.37 428.701 1010.59 429.023 1011.5 429.668C1012.42 430.312 1013.12 431.146 1013.57 432.17L1011.15 433.477C1010.89 432.795 1010.48 432.255 1009.93 431.857C1009.4 431.459 1008.71 431.26 1007.86 431.26C1006.68 431.26 1005.77 431.62 1005.13 432.34C1004.48 433.041 1004.16 433.98 1004.16 435.155V437.6C1004.16 438.756 1004.48 439.695 1005.13 440.415C1005.77 441.135 1006.7 441.495 1007.91 441.495C1008.82 441.495 1009.56 441.287 1010.13 440.87C1010.72 440.453 1011.18 439.884 1011.52 439.164L1013.8 440.557C1013.32 441.581 1012.6 442.424 1011.64 443.087C1010.67 443.732 1009.42 444.054 1007.88 444.054ZM1024.71 444.054C1023.59 444.054 1022.58 443.874 1021.69 443.514C1020.8 443.154 1020.05 442.642 1019.45 441.979C1018.84 441.315 1018.37 440.519 1018.05 439.59C1017.73 438.643 1017.57 437.581 1017.57 436.406C1017.57 435.231 1017.73 434.169 1018.05 433.222C1018.39 432.274 1018.86 431.468 1019.45 430.805C1020.05 430.122 1020.78 429.601 1021.63 429.241C1022.49 428.881 1023.44 428.701 1024.48 428.701C1025.5 428.701 1026.43 428.881 1027.26 429.241C1028.1 429.582 1028.81 430.075 1029.4 430.72C1029.98 431.364 1030.43 432.132 1030.73 433.023C1031.06 433.913 1031.22 434.899 1031.22 435.979V437.145H1020.7V437.628C1020.7 438.785 1021.06 439.732 1021.78 440.472C1022.5 441.192 1023.49 441.552 1024.76 441.552C1025.71 441.552 1026.52 441.353 1027.18 440.955C1027.86 440.538 1028.41 439.988 1028.83 439.306L1030.76 441.012C1030.27 441.865 1029.51 442.585 1028.49 443.173C1027.48 443.76 1026.22 444.054 1024.71 444.054ZM1024.48 431.061C1023.93 431.061 1023.42 431.155 1022.94 431.345C1022.49 431.535 1022.09 431.809 1021.75 432.17C1021.43 432.511 1021.17 432.918 1020.98 433.392C1020.79 433.866 1020.7 434.387 1020.7 434.956V435.155H1028.06V434.871C1028.06 433.714 1027.73 432.795 1027.07 432.113C1026.42 431.411 1025.56 431.061 1024.48 431.061Z" fill="black"/>
<circle cx="503.504" cy="327.641" r="14.2159" fill="#B4B4B8"/>
<g filter="url(#filter0_d_1310_16003)">
<rect x="388" y="269" width="117.281" height="117.281" rx="58.6407" fill="#060611"/>
<rect x="389.777" y="270.777" width="113.727" height="113.727" rx="56.8637" stroke="#ECECEE" stroke-width="3.55398"/>
</g>
<path d="M446.702 328.723C445.284 328.857 444.069 328.52 442.853 327.912C436.911 324.941 430.969 321.97 424.959 318.931C424.486 318.729 424.014 318.459 423.676 318.121C422.663 317.243 422.663 316.23 423.676 315.42C424.081 315.083 424.621 314.812 425.161 314.542C430.969 311.638 436.843 308.735 442.651 305.764C445.352 304.413 448.053 304.413 450.754 305.764C456.561 308.668 462.368 311.571 468.243 314.475C468.58 314.677 468.986 314.812 469.323 315.082C470.944 316.095 470.876 317.378 469.256 318.459C468.918 318.729 468.58 318.864 468.243 319.067C462.368 321.97 456.493 324.941 450.619 327.912C449.403 328.52 448.12 328.925 446.702 328.723L446.702 328.723Z" fill="white"/>
<path d="M446.302 340.472C444.952 340.607 443.669 340.202 442.386 339.595C436.308 336.556 430.299 333.517 424.221 330.479C423.276 330.006 422.533 329.398 422.803 328.183C422.938 327.305 423.614 326.765 424.491 326.629C425.234 326.494 425.909 326.9 426.517 327.237C432.054 330.006 437.659 332.774 443.129 335.61C445.559 336.826 447.72 336.893 450.151 335.61C455.621 332.774 461.158 330.073 466.628 327.305C467.1 327.035 467.64 326.764 468.181 326.629C469.126 326.427 469.869 326.832 470.341 327.71C470.814 328.52 470.544 329.33 469.869 329.938C469.464 330.276 468.991 330.546 468.586 330.748C462.981 333.584 457.444 336.421 451.839 339.189C450.151 340.067 448.328 340.54 446.302 340.472H446.302Z" fill="white"/>
<path d="M446.706 351.817C445.085 351.952 443.6 351.479 442.114 350.736C436.307 347.833 430.567 344.997 424.76 342.093C424.287 341.823 423.747 341.553 423.342 341.215C422.666 340.607 422.531 339.797 423.004 338.987C423.544 338.176 424.22 337.704 425.232 338.041C425.705 338.176 426.178 338.446 426.65 338.649C432.187 341.418 437.792 344.186 443.262 347.022C445.558 348.238 447.718 348.238 450.014 347.022C455.687 344.118 461.359 341.283 467.031 338.446C467.841 338.041 468.584 337.636 469.462 338.176C470.677 338.852 470.812 340.54 469.732 341.418C469.327 341.755 468.854 341.958 468.381 342.16C462.709 344.996 456.97 347.833 451.297 350.669C449.947 351.411 448.394 351.952 446.706 351.817L446.706 351.817Z" fill="white"/>
<g opacity="0.5">
<circle cx="551.483" cy="327.641" r="5.33097" fill="#060611" fill-opacity="0.3"/>
<circle cx="572.807" cy="327.641" r="5.33097" fill="#060611" fill-opacity="0.3"/>
<circle cx="594.131" cy="327.641" r="5.33097" fill="#060611" fill-opacity="0.3"/>
</g>
<circle cx="642.109" cy="327.641" r="14.2159" fill="#B4B4B8"/>
<circle cx="762.945" cy="327.641" r="14.2159" fill="#B3B3B7"/>
<g filter="url(#filter1_d_1310_16003)">
<rect x="643.886" y="269" width="117.281" height="117.281" rx="58.6407" fill="#060611"/>
<rect x="642.109" y="267.223" width="120.835" height="120.835" rx="60.4177" stroke="white" stroke-width="3.55398"/>
</g>
<g clip-path="url(#clip0_1310_16003)">
<path d="M695.513 330.983C695.259 330.731 694.916 330.589 694.557 330.589C694.199 330.589 693.855 330.731 693.601 330.983L682.783 341.801C681.773 342.818 681.206 344.193 681.206 345.626C681.206 347.059 681.773 348.434 682.783 349.451L683.119 349.787V349.786C684.135 350.797 685.51 351.364 686.944 351.364C688.377 351.364 689.752 350.797 690.769 349.786L701.587 338.969C701.839 338.715 701.981 338.371 701.981 338.013C701.981 337.654 701.839 337.311 701.587 337.057L695.513 330.983Z" fill="white"/>
<path d="M708.673 327.087L715.83 319.931L720.742 319.25L720.742 319.25C721.269 319.177 721.728 318.851 721.969 318.376L724.278 313.845C724.434 313.539 724.489 313.191 724.435 312.852C724.382 312.512 724.222 312.198 723.979 311.955L720.618 308.595C720.375 308.352 720.061 308.192 719.722 308.138C719.383 308.084 719.035 308.14 718.728 308.296L714.197 310.604C713.723 310.846 713.397 311.304 713.324 311.831L712.643 316.743L705.486 323.9L708.673 327.087Z" fill="white"/>
<path d="M713.573 335.625L696.931 318.986C697.575 317.222 697.587 315.29 696.966 313.518C696.344 311.747 695.128 310.245 693.523 309.271C691.919 308.296 690.026 307.907 688.168 308.172C687.945 308.205 687.744 308.32 687.601 308.494C687.459 308.668 687.386 308.889 687.397 309.113C687.409 309.338 687.503 309.55 687.662 309.709L691.144 313.191C691.759 313.808 692.105 314.644 692.105 315.516C692.105 316.387 691.759 317.223 691.144 317.84L690.945 318.039C690.329 318.656 689.492 319.002 688.62 319.002C687.748 319.002 686.912 318.656 686.295 318.039L682.822 314.566C682.663 314.407 682.451 314.313 682.226 314.301C682.002 314.29 681.781 314.362 681.607 314.505C681.433 314.647 681.318 314.849 681.284 315.071C681.023 316.926 681.413 318.814 682.386 320.414C683.36 322.014 684.858 323.227 686.625 323.848C688.392 324.468 690.32 324.458 692.08 323.818L708.74 340.477C708.099 342.241 708.089 344.172 708.711 345.943C709.334 347.713 710.551 349.213 712.156 350.187C713.76 351.161 715.652 351.548 717.51 351.284C717.732 351.25 717.934 351.135 718.076 350.961C718.218 350.787 718.29 350.566 718.279 350.342C718.267 350.117 718.173 349.905 718.014 349.747L714.935 346.667V346.667C714.339 346.071 714.004 345.263 714.004 344.419C714.004 343.576 714.339 342.767 714.935 342.171L715.278 341.828V341.828C715.874 341.232 716.683 340.897 717.526 340.897C718.369 340.897 719.178 341.232 719.774 341.828L722.857 344.91C723.015 345.069 723.227 345.163 723.451 345.175C723.675 345.186 723.896 345.114 724.07 344.973C724.244 344.831 724.36 344.63 724.394 344.408C724.663 342.547 724.277 340.65 723.302 339.041C722.327 337.433 720.824 336.213 719.049 335.59C717.275 334.967 715.339 334.979 713.573 335.625L713.573 335.625Z" fill="white"/>
</g>
<g opacity="0.5">
<circle cx="810.924" cy="327.641" r="5.33097" fill="#060611" fill-opacity="0.3"/>
<circle cx="832.247" cy="327.641" r="5.33097" fill="#060611" fill-opacity="0.3"/>
<circle cx="853.571" cy="327.641" r="5.33097" fill="#060611" fill-opacity="0.3"/>
</g>
<circle cx="901.55" cy="327.641" r="14.2159" fill="#B2B3B7"/>
<circle cx="1022.39" cy="327.641" r="14.2159" fill="#B2B3B7"/>
<g filter="url(#filter2_d_1310_16003)">
<rect x="903.327" y="269" width="117.281" height="117.281" rx="58.6407" fill="#060611"/>
<rect x="901.55" y="267.223" width="120.835" height="120.835" rx="60.4177" stroke="white" stroke-width="3.55398"/>
</g>
<path d="M977.513 313.988L963.113 301.099C962.304 300.343 961.064 300.343 960.255 301.099L945.801 313.988C945.37 314.42 945.1 314.959 945.1 315.606V349.637C945.1 350.823 946.071 351.794 947.257 351.794H976.057C977.243 351.794 978.214 350.823 978.214 349.637V315.606C978.214 315.013 977.944 314.42 977.513 313.988ZM963.652 339.444V341.979C963.652 343.057 962.79 343.974 961.657 343.974C960.525 343.974 959.662 343.111 959.662 341.979V339.444C957.397 339.336 955.347 338.042 954.269 335.992C953.783 335.021 954.107 333.835 955.078 333.35C956.048 332.864 957.235 333.188 957.72 334.159C958.152 334.967 959.069 335.507 959.985 335.507H963.167C964.569 335.507 965.702 334.374 965.702 332.972C965.702 332.271 965.432 331.678 964.947 331.192C964.461 330.707 963.814 330.437 963.167 330.437H959.985C956.426 330.437 953.513 327.525 953.513 323.965C953.513 322.24 954.214 320.622 955.401 319.381C956.533 318.249 958.044 317.601 959.608 317.494V314.905C959.608 313.826 960.47 312.909 961.603 312.909C962.736 312.909 963.598 313.772 963.598 314.905V317.494C965.863 317.601 967.859 318.896 968.938 320.891C969.477 321.862 969.099 323.049 968.129 323.588C967.158 324.127 965.971 323.75 965.432 322.779C965.001 321.916 964.138 321.431 963.167 321.431H959.985C959.338 321.431 958.637 321.7 958.205 322.186C957.72 322.671 957.45 323.318 957.45 323.966C957.45 325.368 958.583 326.5 959.985 326.5H963.167C964.893 326.5 966.51 327.202 967.751 328.388C968.991 329.628 969.639 331.246 969.639 332.972C969.747 336.424 967.05 339.228 963.652 339.444Z" fill="white"/>
<g opacity="0.5">
<circle cx="1070.36" cy="327.641" r="5.33097" fill="#060611" fill-opacity="0.3"/>
<circle cx="1091.69" cy="327.641" r="5.33097" fill="#060611" fill-opacity="0.3"/>
<circle cx="1113.01" cy="327.641" r="5.33097" fill="#060611" fill-opacity="0.3"/>
</g>
<circle cx="1160.99" cy="327.641" r="14.2159" fill="#B2B3B7"/>
<g filter="url(#filter3_d_1310_16003)">
<rect x="1162.77" y="269" width="117.281" height="117.281" rx="58.6407" fill="#060611"/>
<rect x="1160.99" y="267.223" width="120.835" height="120.835" rx="60.4177" stroke="white" stroke-width="3.55398"/>
</g>
<path d="M1220.74 322.897L1221.41 319.579L1222.07 322.897C1223.3 329.026 1228.09 333.816 1234.22 335.042L1237.53 335.705L1234.22 336.369C1228.09 337.595 1223.3 342.385 1222.07 348.514L1221.41 351.832L1220.74 348.514C1219.52 342.385 1214.73 337.595 1208.6 336.369L1205.28 335.705L1208.6 335.042C1214.73 333.816 1219.52 329.026 1220.74 322.897Z" fill="white"/>
<path d="M1207.64 307.799L1207.97 306.14L1208.3 307.799C1208.91 310.863 1211.31 313.258 1214.37 313.871L1216.03 314.202L1214.37 314.534C1211.31 315.147 1208.91 317.542 1208.3 320.606L1207.97 322.265L1207.64 320.606C1207.03 317.542 1204.63 315.147 1201.57 314.534L1199.91 314.202L1201.57 313.871C1204.63 313.258 1207.03 310.863 1207.64 307.799Z" fill="white"/>
<path d="M1234.63 309.933L1234.85 308.827L1235.07 309.933C1235.48 311.976 1237.07 313.573 1239.12 313.981L1240.22 314.203L1239.12 314.424C1237.07 314.832 1235.48 316.429 1235.07 318.472L1234.85 319.578L1234.63 318.472C1234.22 316.429 1232.62 314.832 1230.58 314.424L1229.47 314.203L1230.58 313.981C1232.62 313.573 1234.22 311.976 1234.63 309.933Z" fill="white"/>
<path d="M1220.36 443.713L1218.86 438.425H1212.54L1211.04 443.713H1207.8L1213.6 423.867H1217.95L1223.75 443.713H1220.36ZM1215.81 427.08H1215.59L1213.14 435.78H1218.26L1215.81 427.08ZM1226.55 443.713V441.296H1231.21V426.284H1226.55V423.867H1239.06V426.284H1234.4V441.296H1239.06V443.713H1226.55Z" fill="black"/>
<defs>
<filter id="filter0_d_1310_16003" x="373.784" y="269" width="145.713" height="145.713" filterUnits="userSpaceOnUse" color-interpolation-filters="sRGB">
<feFlood flood-opacity="0" result="BackgroundImageFix"/>
<feColorMatrix in="SourceAlpha" type="matrix" values="0 0 0 0 0 0 0 0 0 0 0 0 0 0 0 0 0 0 127 0" result="hardAlpha"/>
<feOffset dy="14.2159"/>
<feGaussianBlur stdDeviation="7.10796"/>
<feComposite in2="hardAlpha" operator="out"/>
<feColorMatrix type="matrix" values="0 0 0 0 0.00392157 0 0 0 0 0.0862745 0 0 0 0 0.152941 0 0 0 0.06 0"/>
<feBlend mode="normal" in2="BackgroundImageFix" result="effect1_dropShadow_1310_16003"/>
<feBlend mode="normal" in="SourceGraphic" in2="effect1_dropShadow_1310_16003" result="shape"/>
</filter>
<filter id="filter1_d_1310_16003" x="626.117" y="265.446" width="152.821" height="152.821" filterUnits="userSpaceOnUse" color-interpolation-filters="sRGB">
<feFlood flood-opacity="0" result="BackgroundImageFix"/>
<feColorMatrix in="SourceAlpha" type="matrix" values="0 0 0 0 0 0 0 0 0 0 0 0 0 0 0 0 0 0 127 0" result="hardAlpha"/>
<feOffset dy="14.2159"/>
<feGaussianBlur stdDeviation="7.10796"/>
<feComposite in2="hardAlpha" operator="out"/>
<feColorMatrix type="matrix" values="0 0 0 0 0.00392157 0 0 0 0 0.0862745 0 0 0 0 0.152941 0 0 0 0.06 0"/>
<feBlend mode="normal" in2="BackgroundImageFix" result="effect1_dropShadow_1310_16003"/>
<feBlend mode="normal" in="SourceGraphic" in2="effect1_dropShadow_1310_16003" result="shape"/>
</filter>
<filter id="filter2_d_1310_16003" x="885.557" y="265.446" width="152.821" height="152.821" filterUnits="userSpaceOnUse" color-interpolation-filters="sRGB">
<feFlood flood-opacity="0" result="BackgroundImageFix"/>
<feColorMatrix in="SourceAlpha" type="matrix" values="0 0 0 0 0 0 0 0 0 0 0 0 0 0 0 0 0 0 127 0" result="hardAlpha"/>
<feOffset dy="14.2159"/>
<feGaussianBlur stdDeviation="7.10796"/>
<feComposite in2="hardAlpha" operator="out"/>
<feColorMatrix type="matrix" values="0 0 0 0 0.00392157 0 0 0 0 0.0862745 0 0 0 0 0.152941 0 0 0 0.06 0"/>
<feBlend mode="normal" in2="BackgroundImageFix" result="effect1_dropShadow_1310_16003"/>
<feBlend mode="normal" in="SourceGraphic" in2="effect1_dropShadow_1310_16003" result="shape"/>
</filter>
<filter id="filter3_d_1310_16003" x="1145" y="265.446" width="152.821" height="152.821" filterUnits="userSpaceOnUse" color-interpolation-filters="sRGB">
<feFlood flood-opacity="0" result="BackgroundImageFix"/>
<feColorMatrix in="SourceAlpha" type="matrix" values="0 0 0 0 0 0 0 0 0 0 0 0 0 0 0 0 0 0 127 0" result="hardAlpha"/>
<feOffset dy="14.2159"/>
<feGaussianBlur stdDeviation="7.10796"/>
<feComposite in2="hardAlpha" operator="out"/>
<feColorMatrix type="matrix" values="0 0 0 0 0.00392157 0 0 0 0 0.0862745 0 0 0 0 0.152941 0 0 0 0.06 0"/>
<feBlend mode="normal" in2="BackgroundImageFix" result="effect1_dropShadow_1310_16003"/>
<feBlend mode="normal" in="SourceGraphic" in2="effect1_dropShadow_1310_16003" result="shape"/>
</filter>
<clipPath id="clip0_1310_16003">
<rect width="43.2718" height="43.2718" fill="white" transform="translate(681.203 308.094)"/>
</clipPath>
</defs>
</svg>
