<svg width="150" height="57" viewBox="0 0 150 57" fill="none" xmlns="http://www.w3.org/2000/svg">
<path d="M9.856 42.16C8.61867 42.16 7.22133 42.0533 5.664 41.84C4.81067 41.7333 4.224 41.5093 3.904 41.168C3.584 40.8267 3.44533 40.272 3.488 39.504C3.63733 37.392 3.98933 34.7893 4.544 31.696C5.09867 28.5813 5.77067 25.584 6.56 22.704C6.70933 22.1707 7.008 21.7973 7.456 21.584C7.904 21.3707 8.49067 21.264 9.216 21.264C10.5173 21.264 11.168 21.6267 11.168 22.352C11.168 22.6507 11.104 22.992 10.976 23.376C10.4213 25.0827 9.86667 27.376 9.312 30.256C8.75733 33.1147 8.36267 35.8453 8.128 38.448C8.768 38.512 9.49333 38.544 10.304 38.544C14.0373 38.544 16.8213 37.4133 18.656 35.152C20.512 32.8907 21.44 29.872 21.44 26.096C21.44 23.5573 20.7147 21.5947 19.264 20.208C17.8133 18.8213 15.7653 18.128 13.12 18.128C11.4133 18.128 9.71733 18.3947 8.032 18.928C6.368 19.4613 4.864 20.1653 3.52 21.04C3.24267 21.232 2.944 21.328 2.624 21.328C2.26133 21.328 1.97333 21.1787 1.76 20.88C1.54667 20.56 1.44 20.176 1.44 19.728C1.44 19.216 1.52533 18.8 1.696 18.48C1.86667 18.1387 2.15467 17.8293 2.56 17.552C4.032 16.5493 5.76 15.792 7.744 15.28C9.728 14.7467 11.6373 14.48 13.472 14.48C16.0747 14.48 18.3253 14.9387 20.224 15.856C22.1227 16.752 23.584 18.0747 24.608 19.824C25.632 21.5733 26.144 23.6853 26.144 26.16C26.144 29.3813 25.504 32.1973 24.224 34.608C22.944 36.9973 21.0773 38.8533 18.624 40.176C16.1707 41.4987 13.248 42.16 9.856 42.16ZM30.2455 42.16C29.4348 42.16 28.8588 41.7333 28.5175 40.88C28.1975 40.0267 28.0375 38.6613 28.0375 36.784C28.0375 34.0107 28.4322 31.376 29.2215 28.88C29.4135 28.2613 29.7228 27.8133 30.1495 27.536C30.5975 27.2373 31.2162 27.088 32.0055 27.088C32.4322 27.088 32.7308 27.1413 32.9015 27.248C33.0722 27.3547 33.1575 27.5573 33.1575 27.856C33.1575 28.1973 32.9975 28.9653 32.6775 30.16C32.4642 31.0133 32.2935 31.76 32.1655 32.4C32.0375 33.04 31.9308 33.8293 31.8455 34.768C32.5495 32.9333 33.3388 31.44 34.2135 30.288C35.0882 29.136 35.9415 28.3147 36.7735 27.824C37.6268 27.3333 38.4055 27.088 39.1095 27.088C40.4962 27.088 41.1895 27.7813 41.1895 29.168C41.1895 29.4453 41.0935 30.1173 40.9015 31.184C40.7308 32.0373 40.6455 32.5707 40.6455 32.784C40.6455 33.5307 40.9122 33.904 41.4455 33.904C42.0428 33.904 42.8108 33.4347 43.7495 32.496C44.0268 32.2187 44.3148 32.08 44.6135 32.08C44.8908 32.08 45.1042 32.208 45.2535 32.464C45.4242 32.6987 45.5095 33.0187 45.5095 33.424C45.5095 34.2133 45.2962 34.832 44.8695 35.28C44.2722 35.8987 43.5682 36.432 42.7575 36.88C41.9682 37.3067 41.1255 37.52 40.2295 37.52C39.0988 37.52 38.2348 37.232 37.6375 36.656C37.0615 36.08 36.7735 35.3013 36.7735 34.32C36.7735 34 36.8055 33.68 36.8695 33.36C36.9122 32.9333 36.9335 32.6453 36.9335 32.496C36.9335 32.1547 36.8162 31.984 36.5815 31.984C36.2615 31.984 35.8348 32.3467 35.3015 33.072C34.7895 33.776 34.2775 34.7147 33.7655 35.888C33.2535 37.0613 32.8375 38.2987 32.5175 39.6C32.2828 40.6027 32.0055 41.2853 31.6855 41.648C31.3868 41.9893 30.9068 42.16 30.2455 42.16ZM46.728 24.976C45.832 24.976 45.16 24.7733 44.712 24.368C44.264 23.9413 44.04 23.3547 44.04 22.608C44.04 21.8613 44.328 21.2427 44.904 20.752C45.5013 20.24 46.2373 19.984 47.112 19.984C47.9013 19.984 48.5413 20.176 49.032 20.56C49.5227 20.944 49.768 21.488 49.768 22.192C49.768 23.0453 49.4907 23.728 48.936 24.24C48.3813 24.7307 47.6453 24.976 46.728 24.976ZM46.472 42.16C45.0853 42.16 44.072 41.6693 43.432 40.688C42.8133 39.7067 42.504 38.4053 42.504 36.784C42.504 35.824 42.6213 34.5973 42.856 33.104C43.112 31.5893 43.432 30.1813 43.816 28.88C44.008 28.1973 44.264 27.728 44.584 27.472C44.904 27.216 45.416 27.088 46.12 27.088C47.208 27.088 47.752 27.4507 47.752 28.176C47.752 28.7093 47.5493 29.9467 47.144 31.888C46.632 34.2347 46.376 35.824 46.376 36.656C46.376 37.296 46.4613 37.7867 46.632 38.128C46.8027 38.4693 47.0907 38.64 47.496 38.64C47.88 38.64 48.36 38.3733 48.936 37.84C49.512 37.3067 50.28 36.464 51.24 35.312C51.496 35.0133 51.784 34.864 52.104 34.864C52.3813 34.864 52.5947 34.992 52.744 35.248C52.9147 35.504 53 35.856 53 36.304C53 37.1573 52.7973 37.8187 52.392 38.288C50.28 40.8693 48.3067 42.16 46.472 42.16ZM66.5635 32.272C66.6275 32.2507 66.7342 32.24 66.8835 32.24C67.2035 32.24 67.4488 32.3467 67.6195 32.56C67.7902 32.7733 67.8755 33.0613 67.8755 33.424C67.8755 34.0853 67.7475 34.608 67.4915 34.992C67.2355 35.3547 66.8515 35.6213 66.3395 35.792C65.3582 36.112 64.3128 36.272 63.2035 36.272C62.2648 36.272 61.3795 36.144 60.5475 35.888C59.9288 36.8907 59.2462 37.9253 58.4995 38.992C57.6462 40.208 56.9102 41.04 56.2915 41.488C55.6728 41.936 54.9688 42.16 54.1795 42.16C53.3048 42.16 52.6115 41.8187 52.0995 41.136C51.6088 40.4533 51.2995 39.376 51.1715 37.904C50.9155 34.9173 50.7875 32.304 50.7875 30.064V28.944C50.8088 28.24 51.0008 27.7493 51.3635 27.472C51.7262 27.1947 52.2702 27.056 52.9955 27.056C53.5502 27.056 53.9555 27.184 54.2115 27.44C54.4888 27.6747 54.6275 28.08 54.6275 28.656C54.6275 31.1093 54.7768 34.2987 55.0755 38.224C56.3555 36.3253 57.3155 34.8107 57.9555 33.68C57.6355 33.0613 57.4755 32.3253 57.4755 31.472C57.4755 30.7467 57.6355 30.0427 57.9555 29.36C58.2755 28.6773 58.7128 28.1227 59.2675 27.696C59.8222 27.2693 60.4515 27.056 61.1555 27.056C61.7742 27.056 62.2755 27.28 62.6595 27.728C63.0435 28.1547 63.2355 28.784 63.2355 29.616C63.2355 30.576 62.9795 31.6747 62.4675 32.912C63.2782 32.8693 64.3555 32.7093 65.6995 32.432L66.5635 32.272ZM77.2265 34.864C77.5038 34.864 77.7172 34.992 77.8665 35.248C78.0372 35.504 78.1225 35.856 78.1225 36.304C78.1225 37.1573 77.9198 37.8187 77.5145 38.288C76.5972 39.4187 75.5945 40.3467 74.5065 41.072C73.4398 41.7973 72.2238 42.16 70.8585 42.16C68.9812 42.16 67.5838 41.3067 66.6665 39.6C65.7705 37.8933 65.3225 35.6853 65.3225 32.976C65.3225 30.3733 65.6532 27.408 66.3145 24.08C66.9972 20.752 67.9892 17.8933 69.2905 15.504C70.6132 13.1147 72.1812 11.92 73.9945 11.92C75.0185 11.92 75.8185 12.4 76.3945 13.36C76.9918 14.2987 77.2905 15.6533 77.2905 17.424C77.2905 19.9627 76.5865 22.9067 75.1785 26.256C73.7705 29.6053 71.8612 32.9227 69.4505 36.208C69.5998 37.0827 69.8452 37.712 70.1865 38.096C70.5278 38.4587 70.9758 38.64 71.5305 38.64C72.4052 38.64 73.1732 38.3947 73.8345 37.904C74.4958 37.392 75.3385 36.528 76.3625 35.312C76.6185 35.0133 76.9065 34.864 77.2265 34.864ZM73.2905 15.088C72.7998 15.088 72.2452 15.9733 71.6265 17.744C71.0078 19.5147 70.4638 21.712 69.9945 24.336C69.5252 26.96 69.2692 29.4773 69.2265 31.888C70.7412 29.392 71.9465 26.896 72.8425 24.4C73.7385 21.8827 74.1865 19.5893 74.1865 17.52C74.1865 15.8987 73.8878 15.088 73.2905 15.088ZM86.736 27.088C87.2267 27.088 87.568 27.152 87.76 27.28C87.952 27.408 88.048 27.6213 88.048 27.92C88.048 28.432 87.7707 30.256 87.216 33.392C86.7253 36.4 86.4373 38.1813 86.352 38.736C85.5627 44.2187 84.4747 48.56 83.088 51.76C81.7013 54.96 79.856 56.56 77.552 56.56C76.464 56.56 75.5787 56.2187 74.896 55.536C74.2133 54.8747 73.872 54 73.872 52.912C73.872 51.9093 74.096 50.8853 74.544 49.84C75.0133 48.7947 75.8667 47.5893 77.104 46.224C78.3627 44.88 80.1333 43.3333 82.416 41.584L82.512 40.848C82.6613 40.0587 82.832 38.928 83.024 37.456C82.5973 38.992 82 40.1653 81.232 40.976C80.464 41.7653 79.6533 42.16 78.8 42.16C77.84 42.16 77.0507 41.7227 76.432 40.848C75.8347 39.952 75.536 38.8427 75.536 37.52C75.536 35.92 75.6427 34.4587 75.856 33.136C76.0693 31.792 76.4213 30.3733 76.912 28.88C77.1253 28.24 77.424 27.7813 77.808 27.504C78.192 27.2267 78.8 27.088 79.632 27.088C80.1013 27.088 80.4213 27.1627 80.592 27.312C80.784 27.4613 80.88 27.6853 80.88 27.984C80.88 28.1547 80.7627 28.7307 80.528 29.712C80.3147 30.5013 80.144 31.216 80.016 31.856C79.8453 32.7307 79.696 33.5733 79.568 34.384C79.44 35.1733 79.376 35.824 79.376 36.336C79.376 37.1467 79.6 37.552 80.048 37.552C80.368 37.552 80.7627 37.232 81.232 36.592C81.7227 35.952 82.2347 34.9813 82.768 33.68C83.3227 32.3787 83.856 30.7787 84.368 28.88C84.5387 28.24 84.7947 27.7813 85.136 27.504C85.4987 27.2267 86.032 27.088 86.736 27.088ZM77.904 53.456C78.4373 53.456 79.0347 52.8373 79.696 51.6C80.3573 50.3627 81.0187 48.304 81.68 45.424C80.0373 46.8107 78.8427 48.0693 78.096 49.2C77.3707 50.352 77.008 51.3547 77.008 52.208C77.008 52.5707 77.072 52.8693 77.2 53.104C77.3493 53.3387 77.584 53.456 77.904 53.456Z" fill="#060611"/>
<path d="M101.504 40.288C99.984 40.288 98.76 39.76 97.832 38.704C96.904 37.632 96.44 36.128 96.44 34.192C96.44 32.928 96.688 31.84 97.184 30.928C97.696 30 98.352 29.288 99.152 28.792C99.968 28.296 100.832 28.048 101.744 28.048C102.432 28.048 103.056 28.184 103.616 28.456C104.192 28.712 104.728 29.08 105.224 29.56H105.296L105.2 27.4V22.912H107.168V40H105.536L105.368 38.464H105.296C104.832 38.96 104.264 39.392 103.592 39.76C102.936 40.112 102.24 40.288 101.504 40.288ZM101.912 38.632C102.488 38.632 103.048 38.488 103.592 38.2C104.136 37.896 104.672 37.456 105.2 36.88V31.072C104.672 30.576 104.152 30.224 103.64 30.016C103.144 29.808 102.64 29.704 102.128 29.704C101.456 29.704 100.84 29.896 100.28 30.28C99.736 30.648 99.296 31.168 98.96 31.84C98.64 32.496 98.48 33.272 98.48 34.168C98.48 35.56 98.784 36.656 99.392 37.456C100 38.24 100.84 38.632 101.912 38.632ZM115.591 40.288C114.567 40.288 113.615 40.048 112.735 39.568C111.871 39.088 111.167 38.392 110.623 37.48C110.095 36.568 109.831 35.472 109.831 34.192C109.831 32.88 110.095 31.768 110.623 30.856C111.167 29.944 111.871 29.248 112.735 28.768C113.615 28.288 114.567 28.048 115.591 28.048C116.615 28.048 117.559 28.288 118.423 28.768C119.303 29.248 120.007 29.944 120.535 30.856C121.079 31.768 121.351 32.88 121.351 34.192C121.351 35.472 121.079 36.568 120.535 37.48C120.007 38.392 119.303 39.088 118.423 39.568C117.559 40.048 116.615 40.288 115.591 40.288ZM115.591 38.656C116.343 38.656 116.999 38.472 117.559 38.104C118.119 37.72 118.551 37.192 118.855 36.52C119.159 35.848 119.311 35.072 119.311 34.192C119.311 33.296 119.159 32.512 118.855 31.84C118.551 31.152 118.119 30.624 117.559 30.256C116.999 29.872 116.343 29.68 115.591 29.68C114.839 29.68 114.183 29.872 113.623 30.256C113.079 30.624 112.647 31.152 112.327 31.84C112.023 32.512 111.871 33.296 111.871 34.192C111.871 35.072 112.023 35.848 112.327 36.52C112.647 37.192 113.079 37.72 113.623 38.104C114.183 38.472 114.839 38.656 115.591 38.656ZM130.085 40.288C128.869 40.288 127.773 40.048 126.797 39.568C125.837 39.088 125.077 38.392 124.517 37.48C123.973 36.568 123.701 35.472 123.701 34.192C123.701 32.88 123.997 31.768 124.589 30.856C125.181 29.944 125.965 29.248 126.941 28.768C127.933 28.288 129.021 28.048 130.205 28.048C131.165 28.048 131.989 28.216 132.677 28.552C133.381 28.888 133.973 29.288 134.453 29.752L133.469 31.024C132.989 30.608 132.493 30.28 131.981 30.04C131.469 29.8 130.901 29.68 130.277 29.68C129.381 29.68 128.589 29.872 127.901 30.256C127.213 30.624 126.677 31.152 126.293 31.84C125.925 32.512 125.741 33.296 125.741 34.192C125.741 35.072 125.925 35.848 126.293 36.52C126.661 37.192 127.181 37.72 127.853 38.104C128.541 38.472 129.333 38.656 130.229 38.656C130.949 38.656 131.605 38.512 132.197 38.224C132.805 37.936 133.349 37.592 133.829 37.192L134.717 38.464C134.077 39.04 133.357 39.488 132.557 39.808C131.773 40.128 130.949 40.288 130.085 40.288ZM142.612 40.288C141.476 40.288 140.412 40.104 139.42 39.736C138.428 39.368 137.58 38.944 136.876 38.464L137.788 37.168C138.46 37.648 139.204 38.032 140.02 38.32C140.836 38.608 141.78 38.752 142.852 38.752C143.844 38.752 144.58 38.568 145.06 38.2C145.556 37.832 145.804 37.408 145.804 36.928C145.804 36.704 145.756 36.496 145.66 36.304C145.58 36.112 145.412 35.928 145.156 35.752C144.916 35.576 144.556 35.408 144.076 35.248C143.596 35.088 142.956 34.928 142.156 34.768C140.636 34.448 139.492 34.016 138.724 33.472C137.972 32.928 137.596 32.224 137.596 31.36C137.596 30.416 138.004 29.632 138.82 29.008C139.636 28.368 140.844 28.048 142.444 28.048C143.34 28.048 144.204 28.2 145.036 28.504C145.868 28.792 146.572 29.136 147.148 29.536L146.188 30.808C145.66 30.424 145.06 30.128 144.388 29.92C143.716 29.696 143.012 29.584 142.276 29.584C141.604 29.584 141.068 29.664 140.668 29.824C140.284 29.968 140.004 30.168 139.828 30.424C139.668 30.68 139.588 30.96 139.588 31.264C139.588 31.76 139.852 32.152 140.38 32.44C140.924 32.712 141.788 32.968 142.972 33.208C144.268 33.48 145.26 33.784 145.948 34.12C146.652 34.456 147.132 34.84 147.388 35.272C147.66 35.704 147.796 36.216 147.796 36.808C147.796 37.448 147.596 38.032 147.196 38.56C146.796 39.072 146.212 39.488 145.444 39.808C144.676 40.128 143.732 40.288 142.612 40.288Z" fill="#00CAB9"/>
</svg>
