<svg width="2991" height="1480" viewBox="0 0 2991 1480" fill="none" xmlns="http://www.w3.org/2000/svg">
<rect width="2991" height="1480" rx="60" fill="#13131B"/>
<path fill-rule="evenodd" clip-rule="evenodd" d="M1694.47 525.068V628.86C1781.81 629.05 1971.47 679.836 2060.58 883.16C2072.31 869.161 2082.36 853.439 2090.38 836.379C2001.72 617.851 1793.84 537.859 1694.47 525.068ZM2111.95 743.306C2073.76 683.855 1950.76 562.802 1776.44 524.435L1776.43 524.434H1917.32H1922.15V524.499C2027.44 527.314 2112 621.969 2112 738.323C2112 739.989 2111.98 741.65 2111.95 743.306ZM2000.6 931.71C1983.48 847.849 1900.15 679.697 1694.47 643.283V741.89C1761.62 743.814 1904.99 787.125 1962.57 946.406C1975.82 942.94 1988.55 937.985 2000.6 931.71ZM1888.89 952.64C1878.8 899.348 1827.24 791.295 1694.47 757.3L1694.47 848.414C1730.37 851.229 1809.16 869.388 1846.89 952.64H1888.89ZM1771.56 952.64C1764.62 930.898 1740.89 888.132 1694.47 870.864V952.64H1771.56Z" fill="#34D2B9"/>
<path d="M948.732 370.593L933.423 416H928.364L915.066 377.274L901.703 416H896.709L881.4 370.593H886.33L899.433 409.643L912.99 370.593H917.466L930.829 409.838L944.126 370.593H948.732ZM967.909 416.324C964.623 416.324 961.66 415.589 959.022 414.119C956.384 412.605 954.309 410.53 952.795 407.892C951.282 405.254 950.525 402.27 950.525 398.94C950.525 395.61 951.282 392.626 952.795 389.988C954.309 387.35 956.384 385.296 959.022 383.826C961.66 382.356 964.623 381.621 967.909 381.621C971.196 381.621 974.158 382.356 976.796 383.826C979.434 385.296 981.488 387.35 982.958 389.988C984.472 392.626 985.229 395.61 985.229 398.94C985.229 402.27 984.472 405.254 982.958 407.892C981.488 410.53 979.434 412.605 976.796 414.119C974.158 415.589 971.196 416.324 967.909 416.324ZM967.909 412.238C970.331 412.238 972.493 411.697 974.396 410.616C976.342 409.492 977.855 407.913 978.937 405.881C980.018 403.848 980.558 401.535 980.558 398.94C980.558 396.345 980.018 394.032 978.937 391.999C977.855 389.967 976.342 388.41 974.396 387.329C972.493 386.204 970.331 385.642 967.909 385.642C965.487 385.642 963.304 386.204 961.358 387.329C959.455 388.41 957.941 389.967 956.817 391.999C955.736 394.032 955.195 396.345 955.195 398.94C955.195 401.535 955.736 403.848 956.817 405.881C957.941 407.913 959.455 409.492 961.358 410.616C963.304 411.697 965.487 412.238 967.909 412.238ZM999.042 388.561C1000.12 386.269 1001.72 384.54 1003.84 383.372C1006 382.204 1008.66 381.621 1011.82 381.621V386.096L1010.72 386.032C1007.13 386.032 1004.32 387.134 1002.29 389.34C1000.25 391.545 999.237 394.637 999.237 398.616V416H994.631V381.88H999.042V388.561ZM1032.81 398.875L1024.77 406.27V416H1020.16V367.869H1024.77V400.497L1045.13 381.88H1050.84L1036.25 395.826L1052.2 416H1046.56L1032.81 398.875ZM1070.4 371.436C1068.42 371.436 1066.9 371.977 1065.86 373.058C1064.87 374.139 1064.37 375.739 1064.37 377.858V381.88H1074.88V385.772H1064.5V416H1059.9V385.772H1053.8V381.88H1059.9V377.664C1059.9 374.55 1060.78 372.085 1062.56 370.269C1064.37 368.453 1066.92 367.544 1070.21 367.544C1071.51 367.544 1072.76 367.739 1073.97 368.128C1075.18 368.474 1076.2 368.993 1077.02 369.685L1075.46 373.123C1074.12 371.999 1072.44 371.436 1070.4 371.436ZM1081.11 367.869H1085.71V416H1081.11V367.869ZM1112.53 416.324C1109.24 416.324 1106.28 415.589 1103.64 414.119C1101 412.605 1098.93 410.53 1097.42 407.892C1095.9 405.254 1095.14 402.27 1095.14 398.94C1095.14 395.61 1095.9 392.626 1097.42 389.988C1098.93 387.35 1101 385.296 1103.64 383.826C1106.28 382.356 1109.24 381.621 1112.53 381.621C1115.82 381.621 1118.78 382.356 1121.42 383.826C1124.05 385.296 1126.11 387.35 1127.58 389.988C1129.09 392.626 1129.85 395.61 1129.85 398.94C1129.85 402.27 1129.09 405.254 1127.58 407.892C1126.11 410.53 1124.05 412.605 1121.42 414.119C1118.78 415.589 1115.82 416.324 1112.53 416.324ZM1112.53 412.238C1114.95 412.238 1117.11 411.697 1119.02 410.616C1120.96 409.492 1122.48 407.913 1123.56 405.881C1124.64 403.848 1125.18 401.535 1125.18 398.94C1125.18 396.345 1124.64 394.032 1123.56 391.999C1122.48 389.967 1120.96 388.41 1119.02 387.329C1117.11 386.204 1114.95 385.642 1112.53 385.642C1110.11 385.642 1107.92 386.204 1105.98 387.329C1104.07 388.41 1102.56 389.967 1101.44 391.999C1100.36 394.032 1099.82 396.345 1099.82 398.94C1099.82 401.535 1100.36 403.848 1101.44 405.881C1102.56 407.913 1104.07 409.492 1105.98 410.616C1107.92 411.697 1110.11 412.238 1112.53 412.238ZM1188.38 381.88L1175.47 416H1171.12L1160.36 388.042L1149.59 416H1145.24L1132.4 381.88H1136.81L1147.51 410.876L1158.47 381.88H1162.43L1173.33 410.876L1184.16 381.88H1188.38ZM1204.08 416.324C1201.31 416.324 1198.65 415.935 1196.1 415.157C1193.59 414.335 1191.62 413.319 1190.2 412.108L1192.27 408.475C1193.7 409.6 1195.5 410.53 1197.66 411.265C1199.82 411.957 1202.07 412.303 1204.4 412.303C1207.52 412.303 1209.81 411.827 1211.28 410.876C1212.79 409.881 1213.55 408.497 1213.55 406.724C1213.55 405.47 1213.14 404.497 1212.32 403.805C1211.5 403.07 1210.46 402.529 1209.2 402.183C1207.95 401.794 1206.28 401.427 1204.21 401.081C1201.44 400.562 1199.21 400.043 1197.53 399.524C1195.84 398.962 1194.39 398.032 1193.18 396.735C1192.01 395.437 1191.43 393.643 1191.43 391.351C1191.43 388.496 1192.62 386.161 1195 384.345C1197.38 382.529 1200.68 381.621 1204.92 381.621C1207.13 381.621 1209.33 381.923 1211.54 382.529C1213.74 383.091 1215.56 383.848 1216.99 384.799L1214.98 388.496C1212.17 386.55 1208.81 385.577 1204.92 385.577C1201.98 385.577 1199.75 386.096 1198.24 387.134C1196.77 388.172 1196.04 389.534 1196.04 391.221C1196.04 392.518 1196.45 393.556 1197.27 394.334C1198.13 395.113 1199.19 395.697 1200.45 396.086C1201.7 396.432 1203.43 396.799 1205.64 397.189C1208.36 397.708 1210.54 398.226 1212.19 398.745C1213.83 399.264 1215.24 400.151 1216.4 401.405C1217.57 402.659 1218.16 404.389 1218.16 406.594C1218.16 409.578 1216.9 411.957 1214.39 413.73C1211.93 415.459 1208.49 416.324 1204.08 416.324Z" fill="white"/>
<path d="M1264 395H1867.73C1872.85 395 1877 399.149 1877 404.267V487" stroke="#58667E" stroke-opacity="0.96" stroke-width="4.63335" stroke-linecap="round" stroke-dasharray="23.17 23.17"/>
<path d="M1213 1087H1723.73C1728.85 1087 1733 1082.85 1733 1077.73V995" stroke="#58667E" stroke-opacity="0.96" stroke-width="4.63335" stroke-linecap="round" stroke-dasharray="23.17 23.17"/>
<path d="M886.395 778.328H904.882C909.682 778.328 913.92 779.301 917.596 781.247C921.272 783.149 924.126 785.831 926.158 789.29C928.191 792.706 929.207 796.62 929.207 801.031C929.207 805.442 928.191 809.377 926.158 812.837C924.126 816.253 921.272 818.934 917.596 820.88C913.92 822.783 909.682 823.734 904.882 823.734H886.395V778.328ZM904.622 819.583C908.601 819.583 912.082 818.804 915.066 817.248C918.05 815.648 920.363 813.464 922.007 810.696C923.65 807.885 924.472 804.664 924.472 801.031C924.472 797.398 923.65 794.198 922.007 791.431C920.363 788.62 918.05 786.436 915.066 784.879C912.082 783.279 908.601 782.479 904.622 782.479H891.195V819.583H904.622ZM950.948 789.355C955.403 789.355 958.819 790.479 961.197 792.728C963.576 794.933 964.765 798.22 964.765 802.588V823.734H960.354V818.415C959.316 820.188 957.781 821.572 955.749 822.567C953.759 823.561 951.381 824.059 948.613 824.059C944.808 824.059 941.781 823.151 939.532 821.334C937.283 819.518 936.159 817.118 936.159 814.134C936.159 811.237 937.197 808.901 939.272 807.128C941.391 805.355 944.743 804.469 949.327 804.469H960.16V802.393C960.16 799.453 959.338 797.225 957.695 795.712C956.051 794.155 953.651 793.377 950.494 793.377C948.332 793.377 946.256 793.744 944.267 794.479C942.278 795.171 940.57 796.144 939.143 797.398L937.067 793.96C938.797 792.49 940.873 791.366 943.294 790.587C945.716 789.766 948.267 789.355 950.948 789.355ZM949.327 820.426C951.922 820.426 954.149 819.842 956.008 818.675C957.868 817.464 959.251 815.734 960.16 813.485V807.907H949.457C943.619 807.907 940.7 809.939 940.7 814.004C940.7 815.994 941.456 817.572 942.97 818.74C944.483 819.864 946.602 820.426 949.327 820.426ZM995.242 821.659C994.378 822.437 993.296 823.042 991.999 823.475C990.745 823.864 989.426 824.059 988.042 824.059C984.842 824.059 982.377 823.194 980.647 821.464C978.918 819.734 978.053 817.291 978.053 814.134V793.506H971.955V789.614H978.053V782.155H982.658V789.614H993.037V793.506H982.658V813.875C982.658 815.907 983.156 817.464 984.15 818.545C985.188 819.583 986.658 820.102 988.561 820.102C989.513 820.102 990.421 819.95 991.286 819.648C992.194 819.345 992.972 818.913 993.621 818.35L995.242 821.659ZM1015.56 789.355C1020.02 789.355 1023.43 790.479 1025.81 792.728C1028.19 794.933 1029.38 798.22 1029.38 802.588V823.734H1024.97V818.415C1023.93 820.188 1022.39 821.572 1020.36 822.567C1018.37 823.561 1015.99 824.059 1013.23 824.059C1009.42 824.059 1006.39 823.151 1004.15 821.334C1001.9 819.518 1000.77 817.118 1000.77 814.134C1000.77 811.237 1001.81 808.901 1003.89 807.128C1006 805.355 1009.36 804.469 1013.94 804.469H1024.77V802.393C1024.77 799.453 1023.95 797.225 1022.31 795.712C1020.66 794.155 1018.26 793.377 1015.11 793.377C1012.95 793.377 1010.87 793.744 1008.88 794.479C1006.89 795.171 1005.18 796.144 1003.76 797.398L1001.68 793.96C1003.41 792.49 1005.49 791.366 1007.91 790.587C1010.33 789.766 1012.88 789.355 1015.56 789.355ZM1013.94 820.426C1016.53 820.426 1018.76 819.842 1020.62 818.675C1022.48 817.464 1023.86 815.734 1024.77 813.485V807.907H1014.07C1008.23 807.907 1005.31 809.939 1005.31 814.004C1005.31 815.994 1006.07 817.572 1007.58 818.74C1009.1 819.864 1011.22 820.426 1013.94 820.426Z" fill="white"/>
<path d="M1073.6 802.435L1643.5 802.435" stroke="#58667E" stroke-opacity="0.96" stroke-width="4.63335" stroke-linecap="round" stroke-dasharray="23.17 23.17"/>
<path d="M918.826 1087.3H923.432V1104.62C921.313 1106.48 918.805 1107.9 915.907 1108.9C913.01 1109.89 909.961 1110.39 906.761 1110.39C902.22 1110.39 898.134 1109.39 894.501 1107.41C890.869 1105.42 888.015 1102.67 885.939 1099.17C883.863 1095.62 882.825 1091.66 882.825 1087.3C882.825 1082.93 883.863 1078.99 885.939 1075.49C888.015 1071.94 890.869 1069.18 894.501 1067.19C898.134 1065.2 902.242 1064.2 906.826 1064.2C910.286 1064.2 913.464 1064.77 916.361 1065.89C919.259 1066.97 921.702 1068.59 923.691 1070.76L920.707 1073.8C917.118 1070.26 912.556 1068.49 907.021 1068.49C903.345 1068.49 900.015 1069.31 897.031 1070.95C894.09 1072.55 891.777 1074.8 890.09 1077.7C888.404 1080.55 887.56 1083.75 887.56 1087.3C887.56 1090.84 888.404 1094.04 890.09 1096.9C891.777 1099.75 894.09 1102 897.031 1103.64C899.972 1105.29 903.28 1106.11 906.956 1106.11C911.626 1106.11 915.583 1104.94 918.826 1102.61V1087.3ZM940.455 1082.56C941.536 1080.27 943.137 1078.54 945.255 1077.37C947.418 1076.2 950.077 1075.62 953.234 1075.62V1080.1L952.131 1080.03C948.542 1080.03 945.731 1081.13 943.699 1083.34C941.666 1085.55 940.65 1088.64 940.65 1092.62V1110H936.044V1075.88H940.455V1082.56ZM973.445 1075.62C977.899 1075.62 981.316 1076.74 983.694 1078.99C986.073 1081.2 987.262 1084.49 987.262 1088.85V1110H982.851V1104.68C981.813 1106.45 980.278 1107.84 978.245 1108.83C976.256 1109.83 973.878 1110.32 971.11 1110.32C967.304 1110.32 964.277 1109.42 962.029 1107.6C959.78 1105.78 958.656 1103.38 958.656 1100.4C958.656 1097.5 959.693 1095.17 961.769 1093.39C963.888 1091.62 967.24 1090.73 971.824 1090.73H982.656V1088.66C982.656 1085.72 981.835 1083.49 980.191 1081.98C978.548 1080.42 976.148 1079.64 972.991 1079.64C970.829 1079.64 968.753 1080.01 966.764 1080.75C964.775 1081.44 963.067 1082.41 961.639 1083.66L959.564 1080.23C961.293 1078.76 963.369 1077.63 965.791 1076.85C968.213 1076.03 970.764 1075.62 973.445 1075.62ZM971.824 1106.69C974.418 1106.69 976.645 1106.11 978.505 1104.94C980.364 1103.73 981.748 1102 982.656 1099.75V1094.17H971.953C966.115 1094.17 963.196 1096.2 963.196 1100.27C963.196 1102.26 963.953 1103.84 965.467 1105.01C966.98 1106.13 969.099 1106.69 971.824 1106.69ZM1017.35 1075.62C1020.55 1075.62 1023.45 1076.36 1026.04 1077.83C1028.64 1079.25 1030.67 1081.29 1032.14 1083.92C1033.61 1086.56 1034.35 1089.57 1034.35 1092.94C1034.35 1096.36 1033.61 1099.38 1032.14 1102.02C1030.67 1104.66 1028.64 1106.71 1026.04 1108.18C1023.49 1109.61 1020.59 1110.32 1017.35 1110.32C1014.58 1110.32 1012.07 1109.76 1009.83 1108.64C1007.62 1107.47 1005.8 1105.78 1004.38 1103.58V1122.58H999.771V1075.88H1004.18V1082.63C1005.57 1080.38 1007.38 1078.65 1009.63 1077.44C1011.92 1076.23 1014.5 1075.62 1017.35 1075.62ZM1017.03 1106.24C1019.4 1106.24 1021.57 1105.7 1023.51 1104.62C1025.46 1103.49 1026.97 1101.91 1028.05 1099.88C1029.18 1097.85 1029.74 1095.53 1029.74 1092.94C1029.74 1090.35 1029.18 1088.05 1028.05 1086.06C1026.97 1084.03 1025.46 1082.45 1023.51 1081.33C1021.57 1080.2 1019.4 1079.64 1017.03 1079.64C1014.6 1079.64 1012.42 1080.2 1010.47 1081.33C1008.57 1082.45 1007.06 1084.03 1005.93 1086.06C1004.85 1088.05 1004.31 1090.35 1004.31 1092.94C1004.31 1095.53 1004.85 1097.85 1005.93 1099.88C1007.06 1101.91 1008.57 1103.49 1010.47 1104.62C1012.42 1105.7 1014.6 1106.24 1017.03 1106.24ZM1061.12 1075.62C1065.4 1075.62 1068.79 1076.87 1071.3 1079.38C1073.85 1081.85 1075.13 1085.46 1075.13 1090.22V1110H1070.52V1090.67C1070.52 1087.12 1069.64 1084.42 1067.86 1082.56C1066.09 1080.7 1063.56 1079.77 1060.27 1079.77C1056.6 1079.77 1053.68 1080.87 1051.52 1083.08C1049.4 1085.24 1048.34 1088.25 1048.34 1092.1V1110H1043.73V1061.87H1048.34V1081.85C1049.59 1079.86 1051.32 1078.32 1053.53 1077.24C1055.73 1076.16 1058.26 1075.62 1061.12 1075.62ZM1088.61 1064.59H1107.09C1111.89 1064.59 1116.13 1065.57 1119.81 1067.51C1123.48 1069.41 1126.34 1072.1 1128.37 1075.56C1130.4 1078.97 1131.42 1082.89 1131.42 1087.3C1131.42 1091.71 1130.4 1095.64 1128.37 1099.1C1126.34 1102.52 1123.48 1105.2 1119.81 1107.15C1116.13 1109.05 1111.89 1110 1107.09 1110H1088.61V1064.59ZM1106.83 1105.85C1110.81 1105.85 1114.29 1105.07 1117.28 1103.51C1120.26 1101.91 1122.57 1099.73 1124.22 1096.96C1125.86 1094.15 1126.68 1090.93 1126.68 1087.3C1126.68 1083.66 1125.86 1080.46 1124.22 1077.7C1122.57 1074.89 1120.26 1072.7 1117.28 1071.14C1114.29 1069.54 1110.81 1068.74 1106.83 1068.74H1093.41V1105.85H1106.83ZM1142.2 1064.59H1147V1105.85H1172.42V1110H1142.2V1064.59Z" fill="white"/>
<path d="M898.914 717.557C895.541 717.557 892.298 717.016 889.184 715.935C886.114 714.854 883.735 713.427 882.049 711.654L883.93 707.956C885.573 709.6 887.757 710.94 890.481 711.978C893.206 712.973 896.017 713.47 898.914 713.47C902.979 713.47 906.028 712.735 908.06 711.265C910.093 709.751 911.109 707.805 911.109 705.427C911.109 703.61 910.547 702.162 909.423 701.08C908.341 699.999 907.001 699.178 905.401 698.616C903.801 698.01 901.574 697.361 898.72 696.67C895.303 695.805 892.579 694.983 890.546 694.205C888.514 693.383 886.762 692.15 885.292 690.507C883.865 688.864 883.151 686.637 883.151 683.826C883.151 681.534 883.757 679.458 884.968 677.599C886.179 675.696 888.038 674.182 890.546 673.058C893.054 671.934 896.168 671.371 899.887 671.371C902.482 671.371 905.012 671.739 907.477 672.474C909.985 673.166 912.147 674.139 913.963 675.393L912.342 679.22C910.439 677.966 908.406 677.037 906.244 676.431C904.082 675.782 901.963 675.458 899.887 675.458C895.909 675.458 892.903 676.236 890.871 677.793C888.881 679.307 887.887 681.274 887.887 683.696C887.887 685.512 888.427 686.983 889.508 688.107C890.633 689.188 892.017 690.032 893.66 690.637C895.346 691.199 897.595 691.826 900.406 692.518C903.736 693.34 906.417 694.161 908.45 694.983C910.525 695.761 912.277 696.972 913.704 698.616C915.131 700.216 915.844 702.399 915.844 705.167C915.844 707.459 915.217 709.556 913.963 711.459C912.752 713.319 910.871 714.811 908.32 715.935C905.768 717.016 902.633 717.557 898.914 717.557ZM955.039 701.535H926.498C926.757 705.081 928.119 707.956 930.584 710.162C933.049 712.324 936.163 713.405 939.925 713.405C942.044 713.405 943.99 713.038 945.763 712.302C947.536 711.524 949.071 710.4 950.369 708.929L952.963 711.913C951.45 713.73 949.547 715.113 947.255 716.065C945.006 717.016 942.52 717.492 939.795 717.492C936.293 717.492 933.179 716.757 930.455 715.286C927.773 713.773 925.676 711.697 924.163 709.059C922.649 706.421 921.892 703.437 921.892 700.107C921.892 696.778 922.606 693.794 924.033 691.156C925.503 688.518 927.492 686.464 930.001 684.994C932.552 683.523 935.406 682.788 938.563 682.788C941.72 682.788 944.552 683.523 947.061 684.994C949.569 686.464 951.536 688.518 952.963 691.156C954.39 693.751 955.104 696.734 955.104 700.107L955.039 701.535ZM938.563 686.745C935.276 686.745 932.509 687.804 930.26 689.923C928.055 691.999 926.8 694.724 926.498 698.097H950.693C950.39 694.724 949.115 691.999 946.866 689.923C944.66 687.804 941.893 686.745 938.563 686.745ZM968.889 689.729C969.97 687.437 971.57 685.707 973.689 684.539C975.852 683.372 978.511 682.788 981.668 682.788V687.264L980.565 687.199C976.976 687.199 974.165 688.302 972.133 690.507C970.1 692.713 969.084 695.805 969.084 699.783V717.167H964.478V683.048H968.889V689.729ZM1020.14 683.048L1004.96 717.167H1000.22L985.107 683.048H989.907L1002.69 712.108L1015.59 683.048H1020.14ZM1026.62 683.048H1031.23V717.167H1026.62V683.048ZM1028.96 675.588C1028.01 675.588 1027.21 675.263 1026.56 674.615C1025.91 673.966 1025.58 673.188 1025.58 672.28C1025.58 671.415 1025.91 670.658 1026.56 670.009C1027.21 669.361 1028.01 669.036 1028.96 669.036C1029.91 669.036 1030.71 669.361 1031.36 670.009C1032.01 670.615 1032.33 671.35 1032.33 672.215C1032.33 673.166 1032.01 673.966 1031.36 674.615C1030.71 675.263 1029.91 675.588 1028.96 675.588ZM1058.18 717.492C1054.81 717.492 1051.78 716.757 1049.1 715.286C1046.46 713.816 1044.39 711.762 1042.87 709.124C1041.36 706.443 1040.6 703.437 1040.6 700.107C1040.6 696.778 1041.36 693.794 1042.87 691.156C1044.39 688.518 1046.46 686.464 1049.1 684.994C1051.78 683.523 1054.81 682.788 1058.18 682.788C1061.12 682.788 1063.74 683.372 1066.03 684.539C1068.37 685.664 1070.2 687.329 1071.55 689.534L1068.11 691.869C1066.98 690.183 1065.56 688.929 1063.83 688.107C1062.1 687.242 1060.22 686.81 1058.18 686.81C1055.72 686.81 1053.49 687.372 1051.5 688.496C1049.56 689.577 1048.02 691.134 1046.9 693.167C1045.81 695.199 1045.27 697.513 1045.27 700.107C1045.27 702.745 1045.81 705.081 1046.9 707.113C1048.02 709.102 1049.56 710.659 1051.5 711.784C1053.49 712.865 1055.72 713.405 1058.18 713.405C1060.22 713.405 1062.1 712.994 1063.83 712.173C1065.56 711.351 1066.98 710.097 1068.11 708.41L1071.55 710.746C1070.2 712.951 1068.37 714.638 1066.03 715.805C1063.7 716.93 1061.08 717.492 1058.18 717.492ZM1109.73 701.535H1081.19C1081.45 705.081 1082.81 707.956 1085.28 710.162C1087.74 712.324 1090.86 713.405 1094.62 713.405C1096.74 713.405 1098.68 713.038 1100.46 712.302C1102.23 711.524 1103.76 710.4 1105.06 708.929L1107.66 711.913C1106.14 713.73 1104.24 715.113 1101.95 716.065C1099.7 717.016 1097.21 717.492 1094.49 717.492C1090.98 717.492 1087.87 716.757 1085.15 715.286C1082.47 713.773 1080.37 711.697 1078.85 709.059C1077.34 706.421 1076.58 703.437 1076.58 700.107C1076.58 696.778 1077.3 693.794 1078.73 691.156C1080.2 688.518 1082.18 686.464 1084.69 684.994C1087.24 683.523 1090.1 682.788 1093.26 682.788C1096.41 682.788 1099.24 683.523 1101.75 684.994C1104.26 686.464 1106.23 688.518 1107.66 691.156C1109.08 693.751 1109.8 696.734 1109.8 700.107L1109.73 701.535ZM1093.26 686.745C1089.97 686.745 1087.2 687.804 1084.95 689.923C1082.75 691.999 1081.49 694.724 1081.19 698.097H1105.39C1105.08 694.724 1103.81 691.999 1101.56 689.923C1099.35 687.804 1096.59 686.745 1093.26 686.745ZM1128.32 717.492C1125.55 717.492 1122.89 717.103 1120.34 716.324C1117.83 715.503 1115.86 714.486 1114.44 713.275L1116.51 709.643C1117.94 710.767 1119.73 711.697 1121.89 712.432C1124.06 713.124 1126.31 713.47 1128.64 713.47C1131.75 713.47 1134.05 712.994 1135.52 712.043C1137.03 711.048 1137.79 709.665 1137.79 707.892C1137.79 706.637 1137.38 705.664 1136.55 704.973C1135.73 704.237 1134.7 703.697 1133.44 703.351C1132.19 702.962 1130.52 702.594 1128.45 702.248C1125.68 701.729 1123.45 701.21 1121.77 700.691C1120.08 700.129 1118.63 699.199 1117.42 697.902C1116.25 696.605 1115.67 694.81 1115.67 692.518C1115.67 689.664 1116.86 687.329 1119.24 685.512C1121.61 683.696 1124.92 682.788 1129.16 682.788C1131.37 682.788 1133.57 683.091 1135.78 683.696C1137.98 684.258 1139.8 685.015 1141.23 685.967L1139.21 689.664C1136.4 687.718 1133.05 686.745 1129.16 686.745C1126.22 686.745 1123.99 687.264 1122.48 688.302C1121.01 689.34 1120.27 690.702 1120.27 692.388C1120.27 693.686 1120.68 694.724 1121.51 695.502C1122.37 696.28 1123.43 696.864 1124.68 697.253C1125.94 697.599 1127.67 697.967 1129.87 698.356C1132.6 698.875 1134.78 699.394 1136.43 699.913C1138.07 700.432 1139.47 701.318 1140.64 702.572C1141.81 703.827 1142.39 705.556 1142.39 707.762C1142.39 710.746 1141.14 713.124 1138.63 714.897C1136.17 716.627 1132.73 717.492 1128.32 717.492Z" fill="white"/>
<path d="M1198.7 695.867L1643.5 695.867" stroke="#58667E" stroke-opacity="0.96" stroke-width="4.63335" stroke-linecap="round" stroke-dasharray="23.17 23.17"/>
<path d="M906.114 597.09C901.617 597.09 897.552 596.095 893.919 594.106C890.33 592.117 887.498 589.371 885.422 585.868C883.389 582.322 882.373 578.365 882.373 573.997C882.373 569.63 883.389 565.694 885.422 562.192C887.498 558.645 890.352 555.878 893.984 553.889C897.617 551.899 901.682 550.905 906.179 550.905C909.552 550.905 912.666 551.467 915.52 552.591C918.374 553.716 920.796 555.359 922.785 557.521L919.736 560.57C916.19 556.981 911.715 555.186 906.309 555.186C902.72 555.186 899.455 556.008 896.514 557.651C893.573 559.294 891.26 561.543 889.573 564.397C887.93 567.251 887.108 570.451 887.108 573.997C887.108 577.543 887.93 580.743 889.573 583.598C891.26 586.452 893.573 588.7 896.514 590.344C899.455 591.987 902.72 592.809 906.309 592.809C911.758 592.809 916.234 590.992 919.736 587.36L922.785 590.409C920.796 592.571 918.353 594.236 915.455 595.403C912.601 596.528 909.487 597.09 906.114 597.09ZM944.471 597.025C941.184 597.025 938.222 596.29 935.584 594.82C932.946 593.306 930.871 591.23 929.357 588.592C927.843 585.954 927.087 582.971 927.087 579.641C927.087 576.311 927.843 573.327 929.357 570.689C930.871 568.051 932.946 565.997 935.584 564.527C938.222 563.056 941.184 562.321 944.471 562.321C947.758 562.321 950.72 563.056 953.358 564.527C955.996 565.997 958.05 568.051 959.52 570.689C961.034 573.327 961.79 576.311 961.79 579.641C961.79 582.971 961.034 585.954 959.52 588.592C958.05 591.23 955.996 593.306 953.358 594.82C950.72 596.29 947.758 597.025 944.471 597.025ZM944.471 592.938C946.893 592.938 949.055 592.398 950.958 591.317C952.904 590.192 954.417 588.614 955.498 586.581C956.579 584.549 957.12 582.235 957.12 579.641C957.12 577.046 956.579 574.732 955.498 572.7C954.417 570.667 952.904 569.111 950.958 568.03C949.055 566.905 946.893 566.343 944.471 566.343C942.049 566.343 939.865 566.905 937.919 568.03C936.017 569.111 934.503 570.667 933.379 572.7C932.298 574.732 931.757 577.046 931.757 579.641C931.757 582.235 932.298 584.549 933.379 586.581C934.503 588.614 936.017 590.192 937.919 591.317C939.865 592.398 942.049 592.938 944.471 592.938ZM1013.75 562.321C1018.03 562.321 1021.38 563.554 1023.8 566.019C1026.27 568.484 1027.5 572.116 1027.5 576.916V596.701H1022.89V577.37C1022.89 573.824 1022.03 571.122 1020.3 569.262C1018.61 567.402 1016.21 566.473 1013.1 566.473C1009.55 566.473 1006.76 567.575 1004.73 569.781C1002.7 571.943 1001.68 574.949 1001.68 578.797V596.701H997.075V577.37C997.075 573.824 996.21 571.122 994.48 569.262C992.794 567.402 990.372 566.473 987.215 566.473C983.712 566.473 980.923 567.575 978.847 569.781C976.815 571.943 975.799 574.949 975.799 578.797V596.701H971.193V562.581H975.604V568.808C976.815 566.732 978.501 565.132 980.664 564.008C982.826 562.883 985.312 562.321 988.123 562.321C990.977 562.321 993.442 562.927 995.518 564.138C997.637 565.348 999.216 567.143 1000.25 569.521C1001.51 567.273 1003.3 565.521 1005.64 564.267C1008.02 562.97 1010.72 562.321 1013.75 562.321ZM1082.54 562.321C1086.82 562.321 1090.17 563.554 1092.59 566.019C1095.06 568.484 1096.29 572.116 1096.29 576.916V596.701H1091.69V577.37C1091.69 573.824 1090.82 571.122 1089.09 569.262C1087.41 567.402 1085 566.473 1081.89 566.473C1078.35 566.473 1075.56 567.575 1073.52 569.781C1071.49 571.943 1070.47 574.949 1070.47 578.797V596.701H1065.87V577.37C1065.87 573.824 1065 571.122 1063.27 569.262C1061.59 567.402 1059.17 566.473 1056.01 566.473C1052.51 566.473 1049.72 567.575 1047.64 569.781C1045.61 571.943 1044.59 574.949 1044.59 578.797V596.701H1039.99V562.581H1044.4V568.808C1045.61 566.732 1047.3 565.132 1049.46 564.008C1051.62 562.883 1054.11 562.321 1056.92 562.321C1059.77 562.321 1062.24 562.927 1064.31 564.138C1066.43 565.348 1068.01 567.143 1069.05 569.521C1070.3 567.273 1072.1 565.521 1074.43 564.267C1076.81 562.97 1079.51 562.321 1082.54 562.321ZM1138.62 581.068H1110.08C1110.34 584.614 1111.7 587.49 1114.16 589.695C1116.63 591.857 1119.74 592.938 1123.5 592.938C1125.62 592.938 1127.57 592.571 1129.34 591.836C1131.11 591.057 1132.65 589.933 1133.95 588.463L1136.54 591.446C1135.03 593.263 1133.13 594.647 1130.83 595.598C1128.58 596.549 1126.1 597.025 1123.37 597.025C1119.87 597.025 1116.76 596.29 1114.03 594.82C1111.35 593.306 1109.25 591.23 1107.74 588.592C1106.23 585.954 1105.47 582.971 1105.47 579.641C1105.47 576.311 1106.18 573.327 1107.61 570.689C1109.08 568.051 1111.07 565.997 1113.58 564.527C1116.13 563.056 1118.98 562.321 1122.14 562.321C1125.3 562.321 1128.13 563.056 1130.64 564.527C1133.15 565.997 1135.11 568.051 1136.54 570.689C1137.97 573.284 1138.68 576.268 1138.68 579.641L1138.62 581.068ZM1122.14 566.278C1118.85 566.278 1116.09 567.338 1113.84 569.457C1111.63 571.532 1110.38 574.257 1110.08 577.63H1134.27C1133.97 574.257 1132.69 571.532 1130.44 569.457C1128.24 567.338 1125.47 566.278 1122.14 566.278ZM1152.47 569.262C1153.55 566.97 1155.15 565.24 1157.27 564.073C1159.43 562.905 1162.09 562.321 1165.25 562.321V566.797L1164.14 566.732C1160.55 566.732 1157.74 567.835 1155.71 570.04C1153.68 572.246 1152.66 575.338 1152.66 579.316V596.701H1148.06V562.581H1152.47V569.262ZM1187.41 597.025C1184.04 597.025 1181.01 596.29 1178.33 594.82C1175.69 593.349 1173.61 591.295 1172.1 588.657C1170.59 585.976 1169.83 582.971 1169.83 579.641C1169.83 576.311 1170.59 573.327 1172.1 570.689C1173.61 568.051 1175.69 565.997 1178.33 564.527C1181.01 563.056 1184.04 562.321 1187.41 562.321C1190.35 562.321 1192.97 562.905 1195.26 564.073C1197.59 565.197 1199.43 566.862 1200.77 569.067L1197.33 571.403C1196.21 569.716 1194.78 568.462 1193.05 567.64C1191.32 566.775 1189.44 566.343 1187.41 566.343C1184.94 566.343 1182.72 566.905 1180.73 568.03C1178.78 569.111 1177.25 570.667 1176.12 572.7C1175.04 574.732 1174.5 577.046 1174.5 579.641C1174.5 582.279 1175.04 584.614 1176.12 586.646C1177.25 588.636 1178.78 590.192 1180.73 591.317C1182.72 592.398 1184.94 592.938 1187.41 592.938C1189.44 592.938 1191.32 592.528 1193.05 591.706C1194.78 590.884 1196.21 589.63 1197.33 587.944L1200.77 590.279C1199.43 592.484 1197.59 594.171 1195.26 595.338C1192.92 596.463 1190.31 597.025 1187.41 597.025ZM1238.96 581.068H1210.42C1210.68 584.614 1212.04 587.49 1214.5 589.695C1216.97 591.857 1220.08 592.938 1223.84 592.938C1225.96 592.938 1227.91 592.571 1229.68 591.836C1231.46 591.057 1232.99 589.933 1234.29 588.463L1236.88 591.446C1235.37 593.263 1233.47 594.647 1231.17 595.598C1228.93 596.549 1226.44 597.025 1223.71 597.025C1220.21 597.025 1217.1 596.29 1214.37 594.82C1211.69 593.306 1209.6 591.23 1208.08 588.592C1206.57 585.954 1205.81 582.971 1205.81 579.641C1205.81 576.311 1206.52 573.327 1207.95 570.689C1209.42 568.051 1211.41 565.997 1213.92 564.527C1216.47 563.056 1219.33 562.321 1222.48 562.321C1225.64 562.321 1228.47 563.056 1230.98 564.527C1233.49 565.997 1235.46 568.051 1236.88 570.689C1238.31 573.284 1239.02 576.268 1239.02 579.641L1238.96 581.068ZM1222.48 566.278C1219.2 566.278 1216.43 567.338 1214.18 569.457C1211.97 571.532 1210.72 574.257 1210.42 577.63H1234.61C1234.31 574.257 1233.03 571.532 1230.79 569.457C1228.58 567.338 1225.81 566.278 1222.48 566.278Z" fill="white"/>
<path d="M1277.47 584.667L1643.5 584.667" stroke="#58667E" stroke-opacity="0.96" stroke-width="4.63335" stroke-linecap="round" stroke-dasharray="23.17 23.17"/>
</svg>
