<svg width="1689" height="797" viewBox="0 0 1689 797" fill="none" xmlns="http://www.w3.org/2000/svg">
<rect x="0.75" y="0.75" width="1686.6" height="795.5" rx="10.6561" fill="#FCFCFE"/>
<rect x="0.75" y="0.75" width="1686.6" height="795.5" rx="10.6561" stroke="#FBFBFD" stroke-width="1.5"/>
<g opacity="0.84">
<line y1="-0.370784" x2="1333" y2="-0.370784" transform="matrix(-1 1.21321e-08 1.57491e-07 1 1498 709.301)" stroke="#9D9E9E" stroke-width="0.741568"/>
<line y1="-0.370784" x2="1333" y2="-0.370784" transform="matrix(-1 1.21321e-08 1.57491e-07 1 1498 601.263)" stroke="#9D9E9E" stroke-width="0.741568"/>
<line y1="-0.370784" x2="1333" y2="-0.370784" transform="matrix(-1 1.21321e-08 1.57491e-07 1 1498 493.225)" stroke="#9D9E9E" stroke-width="0.741568"/>
<line y1="-0.370784" x2="1333" y2="-0.370784" transform="matrix(-1 1.21321e-08 1.57491e-07 1 1498 385.187)" stroke="#9D9E9E" stroke-width="0.741568"/>
<line y1="-0.370784" x2="1333" y2="-0.370784" transform="matrix(-1 1.21321e-08 1.57491e-07 1 1498 277.148)" stroke="#9D9E9E" stroke-width="0.741568"/>
<line y1="-0.370784" x2="1333" y2="-0.370784" transform="matrix(-1 1.46305e-08 1.30597e-07 1 1498 169.11)" stroke="#9D9E9E" stroke-width="0.741568"/>
<line y1="-0.370784" x2="1333" y2="-0.370784" transform="matrix(-1 1.46305e-08 1.30597e-07 1 1498 61.0723)" stroke="#9D9E9E" stroke-width="0.741568"/>
<line x1="237.66" y1="82.5215" x2="237.66" y2="686.264" stroke="#9D9E9E" stroke-width="0.741568"/>
<line x1="345.698" y1="82.5215" x2="345.698" y2="686.264" stroke="#9D9E9E" stroke-width="0.741568"/>
<line x1="453.737" y1="82.5215" x2="453.736" y2="686.264" stroke="#9D9E9E" stroke-width="0.741568"/>
<line x1="561.775" y1="82.5215" x2="561.775" y2="686.264" stroke="#9D9E9E" stroke-width="0.741568"/>
<line x1="669.813" y1="82.5215" x2="669.813" y2="686.264" stroke="#9D9E9E" stroke-width="0.741568"/>
<line x1="777.851" y1="82.5215" x2="777.851" y2="686.264" stroke="#9D9E9E" stroke-width="0.741568"/>
<line x1="885.889" y1="82.5215" x2="885.889" y2="686.264" stroke="#9D9E9E" stroke-width="0.741568"/>
<line x1="993.927" y1="82.5215" x2="993.927" y2="686.264" stroke="#9D9E9E" stroke-width="0.741568"/>
<line x1="1101.97" y1="82.5215" x2="1101.96" y2="686.264" stroke="#9D9E9E" stroke-width="0.741568"/>
<line x1="1210" y1="82.5215" x2="1210" y2="686.264" stroke="#9D9E9E" stroke-width="0.741568"/>
<line x1="1318.04" y1="82.5215" x2="1318.04" y2="686.264" stroke="#9D9E9E" stroke-width="0.741568"/>
<line x1="1426.08" y1="82.5215" x2="1426.08" y2="686.264" stroke="#9D9E9E" stroke-width="0.741568"/>
</g>
<rect x="134" y="56.5176" width="1395" height="655.083" fill="url(#paint0_radial_1449_8942)"/>
<path d="M414.059 480.867H419.973C422.513 480.867 424.389 481.711 425.602 483.398C426.835 485.085 427.451 487.549 427.451 490.79C427.451 494.031 426.835 496.496 425.602 498.182C424.389 499.869 422.513 500.713 419.973 500.713H414.059V480.867ZM419.774 498.097C421.233 498.097 422.314 497.614 423.015 496.647C423.735 495.662 424.096 494.259 424.096 492.439V489.141C424.096 487.321 423.735 485.928 423.015 484.962C422.314 483.976 421.233 483.483 419.774 483.483H417.215V498.097H419.774ZM442.764 500.713C441.873 500.713 441.2 500.485 440.746 500.031C440.31 499.576 440.044 498.979 439.949 498.239H439.807C439.523 499.13 439.002 499.822 438.244 500.315C437.504 500.808 436.557 501.054 435.4 501.054C433.903 501.054 432.709 500.666 431.818 499.888C430.927 499.092 430.482 498.002 430.482 496.619C430.482 495.197 431.003 494.117 432.045 493.377C433.107 492.619 434.727 492.24 436.907 492.24H439.722V491.103C439.722 489.113 438.67 488.118 436.566 488.118C435.618 488.118 434.851 488.307 434.263 488.686C433.675 489.046 433.183 489.53 432.785 490.136L430.937 488.629C431.354 487.833 432.055 487.151 433.041 486.582C434.026 485.995 435.296 485.701 436.85 485.701C438.708 485.701 440.167 486.146 441.229 487.037C442.29 487.928 442.821 489.217 442.821 490.904V498.268H444.669V500.713H442.764ZM436.282 498.78C437.286 498.78 438.111 498.552 438.755 498.097C439.4 497.642 439.722 497.055 439.722 496.334V494.202H436.964C434.727 494.202 433.609 494.875 433.609 496.221V496.789C433.609 497.453 433.846 497.955 434.32 498.296C434.794 498.618 435.448 498.78 436.282 498.78ZM455.235 500.713C453.946 500.713 452.998 500.372 452.391 499.689C451.785 498.988 451.482 498.088 451.482 496.988V488.544H446.961V486.042H450.174C450.723 486.042 451.112 485.938 451.34 485.729C451.567 485.502 451.681 485.104 451.681 484.535V480.867H454.581V486.042H460.836V488.544H454.581V498.211H460.836V500.713H455.235ZM476.86 500.713C475.969 500.713 475.296 500.485 474.842 500.031C474.406 499.576 474.14 498.979 474.045 498.239H473.903C473.619 499.13 473.098 499.822 472.34 500.315C471.6 500.808 470.653 501.054 469.496 501.054C467.999 501.054 466.805 500.666 465.914 499.888C465.023 499.092 464.578 498.002 464.578 496.619C464.578 495.197 465.099 494.117 466.141 493.377C467.203 492.619 468.823 492.24 471.003 492.24H473.818V491.103C473.818 489.113 472.766 488.118 470.662 488.118C469.714 488.118 468.947 488.307 468.359 488.686C467.771 489.046 467.279 489.53 466.881 490.136L465.033 488.629C465.45 487.833 466.151 487.151 467.136 486.582C468.122 485.995 469.392 485.701 470.946 485.701C472.804 485.701 474.263 486.146 475.325 487.037C476.386 487.928 476.917 489.217 476.917 490.904V498.268H478.765V500.713H476.86ZM470.378 498.78C471.382 498.78 472.207 498.552 472.851 498.097C473.496 497.642 473.818 497.055 473.818 496.334V494.202H471.06C468.823 494.202 467.705 494.875 467.705 496.221V496.789C467.705 497.453 467.942 497.955 468.416 498.296C468.89 498.618 469.544 498.78 470.378 498.78Z" fill="black"/>
<path d="M647.445 501.054C645.72 501.054 644.27 500.751 643.095 500.144C641.92 499.538 640.953 498.732 640.195 497.728L642.242 495.766C643 496.676 643.806 497.348 644.659 497.784C645.512 498.201 646.479 498.41 647.559 498.41C648.81 498.41 649.767 498.126 650.431 497.557C651.113 496.988 651.454 496.173 651.454 495.112C651.454 494.259 651.208 493.605 650.715 493.15C650.222 492.676 649.379 492.335 648.185 492.126L646.024 491.785C645.076 491.634 644.28 491.387 643.635 491.046C642.991 490.686 642.47 490.269 642.072 489.795C641.674 489.302 641.38 488.762 641.19 488.174C641.02 487.568 640.934 486.933 640.934 486.27C640.934 484.393 641.541 482.971 642.754 482.005C643.967 481.019 645.635 480.526 647.758 480.526C649.331 480.526 650.668 480.782 651.767 481.294C652.885 481.787 653.786 482.488 654.468 483.398L652.478 485.388C651.928 484.725 651.274 484.194 650.516 483.796C649.777 483.379 648.857 483.17 647.758 483.17C646.583 483.17 645.683 483.426 645.057 483.938C644.45 484.431 644.147 485.161 644.147 486.127C644.147 486.942 644.384 487.587 644.858 488.061C645.351 488.516 646.213 488.847 647.445 489.056L649.549 489.425C651.331 489.748 652.629 490.402 653.444 491.387C654.259 492.354 654.667 493.539 654.667 494.941C654.667 495.851 654.506 496.685 654.184 497.443C653.88 498.201 653.416 498.846 652.79 499.377C652.184 499.907 651.426 500.324 650.516 500.628C649.625 500.912 648.602 501.054 647.445 501.054ZM664.977 501.054C663.858 501.054 662.854 500.874 661.963 500.514C661.072 500.154 660.323 499.642 659.717 498.979C659.11 498.315 658.646 497.519 658.324 496.59C658.001 495.643 657.84 494.581 657.84 493.406C657.84 492.231 658.001 491.169 658.324 490.222C658.665 489.274 659.129 488.468 659.717 487.805C660.323 487.122 661.053 486.601 661.906 486.241C662.759 485.881 663.707 485.701 664.749 485.701C665.773 485.701 666.702 485.881 667.536 486.241C668.37 486.582 669.08 487.075 669.668 487.72C670.255 488.364 670.701 489.132 671.004 490.023C671.326 490.913 671.488 491.899 671.488 492.979V494.145H660.968V494.628C660.968 495.785 661.328 496.732 662.048 497.472C662.768 498.192 663.764 498.552 665.034 498.552C665.981 498.552 666.787 498.353 667.45 497.955C668.133 497.538 668.682 496.988 669.099 496.306L671.033 498.012C670.54 498.865 669.782 499.585 668.758 500.173C667.753 500.76 666.493 501.054 664.977 501.054ZM664.749 488.061C664.2 488.061 663.688 488.155 663.214 488.345C662.759 488.535 662.361 488.809 662.02 489.17C661.697 489.511 661.442 489.918 661.252 490.392C661.063 490.866 660.968 491.387 660.968 491.956V492.155H668.332V491.871C668.332 490.714 668 489.795 667.336 489.113C666.692 488.411 665.83 488.061 664.749 488.061ZM675.343 498.211H679.238V488.544H675.343V486.042H682.337V489.937H682.508C682.641 489.425 682.83 488.933 683.077 488.459C683.323 487.985 683.636 487.577 684.015 487.236C684.394 486.876 684.858 486.592 685.408 486.383C685.958 486.156 686.602 486.042 687.341 486.042H689.104V488.999H686.204C685.067 488.999 684.138 489.34 683.418 490.023C682.698 490.686 682.337 491.586 682.337 492.724V498.211H687.654V500.713H675.343V498.211ZM696.855 500.713L691.595 486.042H694.808L696.827 492.24L698.731 498.126H698.902L700.807 492.24L702.826 486.042H705.925L700.665 500.713H696.855ZM716.718 483.369C715.922 483.369 715.362 483.208 715.04 482.886C714.737 482.564 714.585 482.166 714.585 481.692V481.095C714.585 480.621 714.737 480.223 715.04 479.901C715.362 479.579 715.912 479.417 716.689 479.417C717.485 479.417 718.035 479.579 718.338 479.901C718.661 480.223 718.822 480.621 718.822 481.095V481.692C718.822 482.166 718.661 482.564 718.338 482.886C718.035 483.208 717.495 483.369 716.718 483.369ZM710.15 498.211H715.154V488.544H710.15V486.042H718.253V498.211H722.944V500.713H710.15V498.211ZM733.396 501.054C732.297 501.054 731.311 500.874 730.439 500.514C729.586 500.154 728.856 499.642 728.25 498.979C727.662 498.315 727.207 497.51 726.885 496.562C726.582 495.614 726.43 494.553 726.43 493.377C726.43 492.202 726.582 491.141 726.885 490.193C727.207 489.245 727.662 488.44 728.25 487.776C728.856 487.113 729.586 486.601 730.439 486.241C731.311 485.881 732.287 485.701 733.368 485.701C734.884 485.701 736.097 486.023 737.007 486.668C737.936 487.312 738.628 488.146 739.082 489.17L736.666 490.477C736.4 489.795 735.993 489.255 735.443 488.857C734.912 488.459 734.221 488.26 733.368 488.26C732.192 488.26 731.283 488.62 730.638 489.34C729.994 490.041 729.672 490.98 729.672 492.155V494.6C729.672 495.756 729.994 496.695 730.638 497.415C731.283 498.135 732.211 498.495 733.425 498.495C734.334 498.495 735.074 498.287 735.642 497.87C736.23 497.453 736.694 496.884 737.035 496.164L739.31 497.557C738.836 498.581 738.116 499.424 737.149 500.087C736.182 500.732 734.931 501.054 733.396 501.054ZM750.217 501.054C749.098 501.054 748.094 500.874 747.203 500.514C746.312 500.154 745.563 499.642 744.957 498.979C744.35 498.315 743.886 497.519 743.564 496.59C743.241 495.643 743.08 494.581 743.08 493.406C743.08 492.231 743.241 491.169 743.564 490.222C743.905 489.274 744.369 488.468 744.957 487.805C745.563 487.122 746.293 486.601 747.146 486.241C747.999 485.881 748.947 485.701 749.989 485.701C751.013 485.701 751.941 485.881 752.775 486.241C753.609 486.582 754.32 487.075 754.908 487.72C755.495 488.364 755.941 489.132 756.244 490.023C756.566 490.913 756.727 491.899 756.727 492.979V494.145H746.208V494.628C746.208 495.785 746.568 496.732 747.288 497.472C748.008 498.192 749.004 498.552 750.273 498.552C751.221 498.552 752.027 498.353 752.69 497.955C753.373 497.538 753.922 496.988 754.339 496.306L756.273 498.012C755.78 498.865 755.022 499.585 753.998 500.173C752.993 500.76 751.733 501.054 750.217 501.054ZM749.989 488.061C749.439 488.061 748.928 488.155 748.454 488.345C747.999 488.535 747.601 488.809 747.26 489.17C746.937 489.511 746.682 489.918 746.492 490.392C746.302 490.866 746.208 491.387 746.208 491.956V492.155H753.572V491.871C753.572 490.714 753.24 489.795 752.576 489.113C751.932 488.411 751.07 488.061 749.989 488.061ZM766.98 501.054C765.388 501.054 764.014 500.798 762.858 500.286C761.72 499.775 760.801 499.092 760.1 498.239L762.005 496.533C762.649 497.235 763.369 497.775 764.166 498.154C764.981 498.514 765.938 498.694 767.037 498.694C768.042 498.694 768.847 498.524 769.454 498.182C770.079 497.841 770.392 497.311 770.392 496.59C770.392 496.287 770.335 496.031 770.222 495.823C770.108 495.614 769.947 495.444 769.738 495.311C769.53 495.178 769.283 495.074 768.999 494.998C768.734 494.922 768.449 494.865 768.146 494.828L765.815 494.458C765.246 494.382 764.668 494.259 764.08 494.088C763.493 493.918 762.962 493.681 762.488 493.377C762.033 493.055 761.654 492.648 761.351 492.155C761.066 491.662 760.924 491.037 760.924 490.278C760.924 488.781 761.493 487.644 762.63 486.867C763.786 486.089 765.303 485.701 767.179 485.701C768.544 485.701 769.719 485.909 770.705 486.326C771.709 486.724 772.543 487.284 773.207 488.004L771.473 489.823C771.093 489.388 770.553 488.989 769.852 488.629C769.151 488.25 768.222 488.061 767.066 488.061C765 488.061 763.967 488.715 763.967 490.023C763.967 490.648 764.184 491.084 764.62 491.33C765.075 491.558 765.606 491.709 766.213 491.785L768.544 492.155C769.132 492.25 769.71 492.373 770.278 492.525C770.866 492.676 771.387 492.913 771.842 493.235C772.316 493.539 772.695 493.937 772.979 494.429C773.283 494.922 773.434 495.548 773.434 496.306C773.434 497.784 772.856 498.95 771.7 499.803C770.563 500.637 768.989 501.054 766.98 501.054Z" fill="black"/>
<path d="M907.625 501.054C905.104 501.054 903.228 500.163 901.996 498.381C900.783 496.6 900.176 494.069 900.176 490.79C900.176 487.511 900.783 484.981 901.996 483.199C903.228 481.417 905.104 480.526 907.625 480.526C908.592 480.526 909.426 480.659 910.127 480.924C910.848 481.171 911.464 481.521 911.976 481.976C912.487 482.412 912.914 482.934 913.255 483.54C913.615 484.128 913.909 484.763 914.136 485.445L911.265 486.412C911.113 485.957 910.942 485.53 910.753 485.132C910.563 484.734 910.326 484.393 910.042 484.109C909.758 483.824 909.417 483.597 909.019 483.426C908.64 483.256 908.166 483.17 907.597 483.17C906.194 483.17 905.171 483.711 904.526 484.791C903.882 485.853 903.56 487.293 903.56 489.113V492.468C903.56 494.287 903.882 495.737 904.526 496.818C905.171 497.879 906.194 498.41 907.597 498.41C908.166 498.41 908.64 498.325 909.019 498.154C909.417 497.983 909.758 497.756 910.042 497.472C910.326 497.187 910.563 496.846 910.753 496.448C910.942 496.05 911.113 495.624 911.265 495.169L914.136 496.135C913.909 496.818 913.615 497.462 913.255 498.069C912.914 498.656 912.487 499.178 911.976 499.632C911.464 500.068 910.848 500.419 910.127 500.684C909.426 500.931 908.592 501.054 907.625 501.054ZM924.105 501.054C923.024 501.054 922.048 500.874 921.176 500.514C920.323 500.154 919.594 499.642 918.987 498.979C918.399 498.315 917.945 497.51 917.622 496.562C917.3 495.614 917.139 494.553 917.139 493.377C917.139 492.202 917.3 491.141 917.622 490.193C917.945 489.245 918.399 488.44 918.987 487.776C919.594 487.113 920.323 486.601 921.176 486.241C922.048 485.881 923.024 485.701 924.105 485.701C925.185 485.701 926.152 485.881 927.005 486.241C927.877 486.601 928.607 487.113 929.194 487.776C929.801 488.44 930.265 489.245 930.587 490.193C930.909 491.141 931.071 492.202 931.071 493.377C931.071 494.553 930.909 495.614 930.587 496.562C930.265 497.51 929.801 498.315 929.194 498.979C928.607 499.642 927.877 500.154 927.005 500.514C926.152 500.874 925.185 501.054 924.105 501.054ZM924.105 498.609C925.242 498.609 926.142 498.268 926.806 497.585C927.488 496.884 927.829 495.851 927.829 494.486V492.269C927.829 490.904 927.488 489.88 926.806 489.198C926.142 488.497 925.242 488.146 924.105 488.146C922.968 488.146 922.058 488.497 921.375 489.198C920.712 489.88 920.38 490.904 920.38 492.269V494.486C920.38 495.851 920.712 496.884 921.375 497.585C922.058 498.268 922.968 498.609 924.105 498.609ZM933.874 500.713V486.042H936.518V487.947H936.661C936.888 487.321 937.21 486.791 937.627 486.355C938.063 485.919 938.679 485.701 939.475 485.701C940.252 485.701 940.85 485.919 941.267 486.355C941.702 486.772 941.977 487.35 942.091 488.089H942.205C942.47 487.426 942.84 486.867 943.314 486.412C943.787 485.938 944.47 485.701 945.361 485.701C946.498 485.701 947.285 486.099 947.721 486.895C948.175 487.691 948.403 488.857 948.403 490.392V500.713H945.759V490.79C945.759 489.767 945.636 489.065 945.389 488.686C945.143 488.288 944.745 488.089 944.195 488.089C943.702 488.089 943.285 488.26 942.944 488.601C942.622 488.923 942.461 489.416 942.461 490.079V500.713H939.817V490.79C939.817 489.767 939.693 489.065 939.447 488.686C939.219 488.288 938.831 488.089 938.281 488.089C937.769 488.089 937.343 488.26 937.002 488.601C936.68 488.923 936.518 489.416 936.518 490.079V500.713H933.874ZM950.922 500.713V486.042H953.566V487.947H953.709C953.936 487.321 954.258 486.791 954.675 486.355C955.111 485.919 955.727 485.701 956.523 485.701C957.3 485.701 957.898 485.919 958.315 486.355C958.75 486.772 959.025 487.35 959.139 488.089H959.253C959.518 487.426 959.888 486.867 960.362 486.412C960.835 485.938 961.518 485.701 962.409 485.701C963.546 485.701 964.333 486.099 964.769 486.895C965.223 487.691 965.451 488.857 965.451 490.392V500.713H962.807V490.79C962.807 489.767 962.684 489.065 962.437 488.686C962.191 488.288 961.793 488.089 961.243 488.089C960.75 488.089 960.333 488.26 959.992 488.601C959.67 488.923 959.509 489.416 959.509 490.079V500.713H956.864V490.79C956.864 489.767 956.741 489.065 956.495 488.686C956.267 488.288 955.879 488.089 955.329 488.089C954.817 488.089 954.391 488.26 954.05 488.601C953.728 488.923 953.566 489.416 953.566 490.079V500.713H950.922ZM975.562 501.054C974.443 501.054 973.439 500.874 972.548 500.514C971.657 500.154 970.908 499.642 970.302 498.979C969.695 498.315 969.231 497.519 968.908 496.59C968.586 495.643 968.425 494.581 968.425 493.406C968.425 492.231 968.586 491.169 968.908 490.222C969.25 489.274 969.714 488.468 970.302 487.805C970.908 487.122 971.638 486.601 972.491 486.241C973.344 485.881 974.292 485.701 975.334 485.701C976.358 485.701 977.286 485.881 978.12 486.241C978.954 486.582 979.665 487.075 980.253 487.72C980.84 488.364 981.286 489.132 981.589 490.023C981.911 490.913 982.072 491.899 982.072 492.979V494.145H971.553V494.628C971.553 495.785 971.913 496.732 972.633 497.472C973.353 498.192 974.348 498.552 975.618 498.552C976.566 498.552 977.372 498.353 978.035 497.955C978.717 497.538 979.267 496.988 979.684 496.306L981.618 498.012C981.125 498.865 980.367 499.585 979.343 500.173C978.338 500.76 977.078 501.054 975.562 501.054ZM975.334 488.061C974.784 488.061 974.273 488.155 973.799 488.345C973.344 488.535 972.946 488.809 972.605 489.17C972.282 489.511 972.027 489.918 971.837 490.392C971.647 490.866 971.553 491.387 971.553 491.956V492.155H978.916V491.871C978.916 490.714 978.585 489.795 977.921 489.113C977.277 488.411 976.414 488.061 975.334 488.061ZM985.928 498.211H989.823V488.544H985.928V486.042H992.922V489.937H993.093C993.226 489.425 993.415 488.933 993.662 488.459C993.908 487.985 994.221 487.577 994.6 487.236C994.979 486.876 995.443 486.592 995.993 486.383C996.543 486.156 997.187 486.042 997.926 486.042H999.689V488.999H996.789C995.652 488.999 994.723 489.34 994.003 490.023C993.282 490.686 992.922 491.586 992.922 492.724V498.211H998.239V500.713H985.928V498.211ZM1009.88 501.054C1008.79 501.054 1007.8 500.874 1006.93 500.514C1006.08 500.154 1005.35 499.642 1004.74 498.979C1004.15 498.315 1003.7 497.51 1003.37 496.562C1003.07 495.614 1002.92 494.553 1002.92 493.377C1002.92 492.202 1003.07 491.141 1003.37 490.193C1003.7 489.245 1004.15 488.44 1004.74 487.776C1005.35 487.113 1006.08 486.601 1006.93 486.241C1007.8 485.881 1008.78 485.701 1009.86 485.701C1011.37 485.701 1012.59 486.023 1013.5 486.668C1014.42 487.312 1015.12 488.146 1015.57 489.17L1013.15 490.477C1012.89 489.795 1012.48 489.255 1011.93 488.857C1011.4 488.459 1010.71 488.26 1009.86 488.26C1008.68 488.26 1007.77 488.62 1007.13 489.34C1006.48 490.041 1006.16 490.98 1006.16 492.155V494.6C1006.16 495.756 1006.48 496.695 1007.13 497.415C1007.77 498.135 1008.7 498.495 1009.91 498.495C1010.82 498.495 1011.56 498.287 1012.13 497.87C1012.72 497.453 1013.18 496.884 1013.52 496.164L1015.8 497.557C1015.32 498.581 1014.6 499.424 1013.64 500.087C1012.67 500.732 1011.42 501.054 1009.88 501.054ZM1026.71 501.054C1025.59 501.054 1024.58 500.874 1023.69 500.514C1022.8 500.154 1022.05 499.642 1021.45 498.979C1020.84 498.315 1020.37 497.519 1020.05 496.59C1019.73 495.643 1019.57 494.581 1019.57 493.406C1019.57 492.231 1019.73 491.169 1020.05 490.222C1020.39 489.274 1020.86 488.468 1021.45 487.805C1022.05 487.122 1022.78 486.601 1023.63 486.241C1024.49 485.881 1025.44 485.701 1026.48 485.701C1027.5 485.701 1028.43 485.881 1029.26 486.241C1030.1 486.582 1030.81 487.075 1031.4 487.72C1031.98 488.364 1032.43 489.132 1032.73 490.023C1033.06 490.913 1033.22 491.899 1033.22 492.979V494.145H1022.7V494.628C1022.7 495.785 1023.06 496.732 1023.78 497.472C1024.5 498.192 1025.49 498.552 1026.76 498.552C1027.71 498.552 1028.52 498.353 1029.18 497.955C1029.86 497.538 1030.41 496.988 1030.83 496.306L1032.76 498.012C1032.27 498.865 1031.51 499.585 1030.49 500.173C1029.48 500.76 1028.22 501.054 1026.71 501.054ZM1026.48 488.061C1025.93 488.061 1025.42 488.155 1024.94 488.345C1024.49 488.535 1024.09 488.809 1023.75 489.17C1023.43 489.511 1023.17 489.918 1022.98 490.392C1022.79 490.866 1022.7 491.387 1022.7 491.956V492.155H1030.06V491.871C1030.06 490.714 1029.73 489.795 1029.07 489.113C1028.42 488.411 1027.56 488.061 1026.48 488.061Z" fill="black"/>
<circle cx="505.504" cy="384.641" r="14.2159" fill="#B4B4B8"/>
<g filter="url(#filter0_d_1449_8942)">
<rect x="390" y="326" width="117.281" height="117.281" rx="58.6407" fill="#060611"/>
<rect x="391.777" y="327.777" width="113.727" height="113.727" rx="56.8637" stroke="#ECECEE" stroke-width="3.55398"/>
</g>
<path d="M448.702 385.723C447.284 385.857 446.069 385.52 444.854 384.912C438.911 381.941 432.969 378.97 426.959 375.931C426.487 375.729 426.014 375.459 425.676 375.121C424.663 374.243 424.663 373.23 425.676 372.42C426.081 372.083 426.622 371.812 427.162 371.542C432.969 368.638 438.844 365.735 444.651 362.764C447.352 361.413 450.053 361.413 452.754 362.764C458.561 365.668 464.368 368.571 470.243 371.475C470.581 371.677 470.986 371.812 471.323 372.082C472.944 373.095 472.877 374.378 471.256 375.459C470.918 375.729 470.581 375.864 470.243 376.067C464.368 378.97 458.494 381.941 452.619 384.912C451.403 385.52 450.12 385.925 448.702 385.723L448.702 385.723Z" fill="white"/>
<path d="M448.303 397.472C446.952 397.607 445.669 397.202 444.386 396.595C438.309 393.556 432.299 390.517 426.222 387.479C425.276 387.006 424.534 386.398 424.804 385.183C424.939 384.305 425.614 383.765 426.492 383.629C427.235 383.494 427.91 383.9 428.518 384.237C434.055 387.006 439.659 389.774 445.129 392.61C447.56 393.826 449.721 393.893 452.152 392.61C457.621 389.774 463.158 387.073 468.628 384.305C469.101 384.035 469.641 383.764 470.181 383.629C471.127 383.427 471.869 383.832 472.342 384.71C472.814 385.52 472.545 386.33 471.869 386.938C471.464 387.276 470.991 387.546 470.586 387.748C464.981 390.584 459.444 393.421 453.84 396.189C452.152 397.067 450.329 397.54 448.303 397.472H448.303Z" fill="white"/>
<path d="M448.706 408.817C447.085 408.952 445.6 408.479 444.114 407.736C438.307 404.833 432.567 401.997 426.76 399.093C426.287 398.823 425.747 398.553 425.342 398.215C424.667 397.607 424.532 396.797 425.004 395.987C425.545 395.176 426.22 394.704 427.233 395.041C427.705 395.176 428.178 395.446 428.651 395.649C434.188 398.418 439.793 401.186 445.262 404.022C447.558 405.238 449.719 405.238 452.015 404.022C457.687 401.118 463.359 398.283 469.031 395.446C469.841 395.041 470.584 394.636 471.462 395.176C472.678 395.852 472.813 397.54 471.732 398.418C471.327 398.755 470.854 398.958 470.382 399.16C464.71 401.996 458.97 404.833 453.298 407.669C451.947 408.411 450.394 408.952 448.706 408.817L448.706 408.817Z" fill="white"/>
<g opacity="0.5">
<circle cx="553.483" cy="384.641" r="5.33097" fill="#060611" fill-opacity="0.3"/>
<circle cx="574.807" cy="384.641" r="5.33097" fill="#060611" fill-opacity="0.3"/>
<circle cx="596.131" cy="384.641" r="5.33097" fill="#060611" fill-opacity="0.3"/>
</g>
<circle cx="644.109" cy="384.641" r="14.2159" fill="#B4B4B8"/>
<circle cx="764.945" cy="384.641" r="14.2159" fill="#B3B3B7"/>
<g filter="url(#filter1_d_1449_8942)">
<rect x="645.887" y="326" width="117.281" height="117.281" rx="58.6407" fill="#060611"/>
<rect x="644.11" y="324.223" width="120.835" height="120.835" rx="60.4177" stroke="white" stroke-width="3.55398"/>
</g>
<g clip-path="url(#clip0_1449_8942)">
<path d="M697.514 387.983C697.26 387.731 696.916 387.589 696.558 387.589C696.199 387.589 695.856 387.731 695.602 387.983L684.784 398.801C683.773 399.818 683.206 401.193 683.206 402.626C683.206 404.059 683.773 405.434 684.784 406.451L685.119 406.787V406.786C686.136 407.797 687.511 408.364 688.944 408.364C690.378 408.364 691.753 407.797 692.769 406.786L703.587 395.969C703.84 395.715 703.981 395.371 703.981 395.013C703.981 394.654 703.84 394.311 703.587 394.057L697.514 387.983Z" fill="white"/>
<path d="M710.673 384.087L717.83 376.931L722.743 376.25L722.743 376.25C723.27 376.177 723.728 375.851 723.97 375.376L726.278 370.845C726.434 370.539 726.489 370.191 726.436 369.852C726.382 369.512 726.222 369.198 725.979 368.955L722.619 365.595C722.375 365.352 722.062 365.192 721.722 365.138C721.383 365.084 721.035 365.14 720.729 365.296L716.197 367.604C715.723 367.846 715.397 368.304 715.324 368.831L714.643 373.743L707.486 380.9L710.673 384.087Z" fill="white"/>
<path d="M715.573 392.625L698.932 375.986C699.575 374.222 699.588 372.29 698.966 370.518C698.345 368.747 697.128 367.245 695.524 366.271C693.92 365.296 692.027 364.907 690.168 365.172C689.946 365.205 689.744 365.32 689.601 365.494C689.459 365.668 689.387 365.889 689.398 366.113C689.409 366.338 689.503 366.55 689.662 366.709L693.144 370.191C693.76 370.808 694.106 371.644 694.106 372.516C694.106 373.387 693.76 374.223 693.144 374.84L692.945 375.039C692.329 375.656 691.493 376.002 690.621 376.002C689.749 376.002 688.912 375.656 688.296 375.039L684.822 371.566C684.664 371.407 684.451 371.313 684.227 371.301C684.002 371.29 683.781 371.362 683.607 371.505C683.433 371.647 683.318 371.849 683.285 372.071C683.024 373.926 683.413 375.814 684.387 377.414C685.36 379.014 686.858 380.227 688.625 380.848C690.392 381.468 692.32 381.458 694.08 380.818L710.741 397.477C710.099 399.241 710.089 401.172 710.712 402.943C711.335 404.713 712.552 406.213 714.156 407.187C715.76 408.161 717.653 408.548 719.511 408.284C719.733 408.25 719.934 408.135 720.076 407.961C720.218 407.787 720.29 407.566 720.279 407.342C720.268 407.117 720.173 406.905 720.014 406.747L716.935 403.667V403.667C716.339 403.071 716.004 402.263 716.004 401.419C716.004 400.576 716.339 399.767 716.935 399.171L717.278 398.828V398.828C717.875 398.232 718.683 397.897 719.526 397.897C720.37 397.897 721.178 398.232 721.775 398.828L724.857 401.91C725.016 402.069 725.228 402.163 725.452 402.175C725.676 402.186 725.896 402.114 726.07 401.973C726.244 401.831 726.36 401.63 726.394 401.408C726.663 399.547 726.277 397.65 725.302 396.041C724.327 394.433 722.824 393.213 721.05 392.59C719.275 391.967 717.339 391.979 715.573 392.625L715.573 392.625Z" fill="white"/>
</g>
<g opacity="0.5">
<circle cx="812.924" cy="384.641" r="5.33097" fill="#060611" fill-opacity="0.3"/>
<circle cx="834.247" cy="384.641" r="5.33097" fill="#060611" fill-opacity="0.3"/>
<circle cx="855.572" cy="384.641" r="5.33097" fill="#060611" fill-opacity="0.3"/>
</g>
<circle cx="903.55" cy="384.641" r="14.2159" fill="#B2B3B7"/>
<circle cx="1024.39" cy="384.641" r="14.2159" fill="#B2B3B7"/>
<g filter="url(#filter2_d_1449_8942)">
<rect x="905.327" y="326" width="117.281" height="117.281" rx="58.6407" fill="#060611"/>
<rect x="903.55" y="324.223" width="120.835" height="120.835" rx="60.4177" stroke="white" stroke-width="3.55398"/>
</g>
<path d="M979.513 370.988L965.113 358.099C964.304 357.343 963.063 357.343 962.254 358.099L947.801 370.988C947.369 371.42 947.1 371.959 947.1 372.606V406.637C947.1 407.823 948.07 408.794 949.257 408.794H978.056C979.243 408.794 980.214 407.823 980.214 406.637V372.606C980.214 372.013 979.944 371.42 979.513 370.988ZM965.652 396.444V398.979C965.652 400.057 964.789 400.974 963.657 400.974C962.524 400.974 961.661 400.111 961.661 398.979V396.444C959.396 396.336 957.347 395.042 956.268 392.992C955.783 392.021 956.106 390.835 957.077 390.35C958.048 389.864 959.235 390.188 959.72 391.159C960.152 391.967 961.068 392.507 961.985 392.507H965.167C966.569 392.507 967.702 391.374 967.702 389.972C967.702 389.271 967.432 388.678 966.947 388.192C966.461 387.707 965.814 387.437 965.167 387.437H961.985C958.425 387.437 955.513 384.525 955.513 380.965C955.513 379.24 956.214 377.622 957.401 376.381C958.533 375.249 960.043 374.601 961.607 374.494V371.905C961.607 370.826 962.47 369.909 963.603 369.909C964.735 369.909 965.598 370.772 965.598 371.905V374.494C967.863 374.601 969.859 375.896 970.937 377.891C971.477 378.862 971.099 380.049 970.128 380.588C969.158 381.127 967.971 380.75 967.432 379.779C967 378.916 966.137 378.431 965.167 378.431H961.985C961.338 378.431 960.636 378.7 960.205 379.186C959.72 379.671 959.45 380.318 959.45 380.966C959.45 382.368 960.582 383.5 961.985 383.5H965.167C966.892 383.5 968.51 384.202 969.751 385.388C970.991 386.628 971.638 388.246 971.638 389.972C971.746 393.424 969.05 396.228 965.652 396.444Z" fill="white"/>
<g opacity="0.5">
<circle cx="1072.36" cy="384.641" r="5.33097" fill="#060611" fill-opacity="0.3"/>
<circle cx="1093.69" cy="384.641" r="5.33097" fill="#060611" fill-opacity="0.3"/>
<circle cx="1115.01" cy="384.641" r="5.33097" fill="#060611" fill-opacity="0.3"/>
</g>
<circle cx="1162.99" cy="384.641" r="14.2159" fill="#B2B3B7"/>
<g filter="url(#filter3_d_1449_8942)">
<rect x="1164.77" y="326" width="117.281" height="117.281" rx="58.6407" fill="#060611"/>
<rect x="1162.99" y="324.223" width="120.835" height="120.835" rx="60.4177" stroke="white" stroke-width="3.55398"/>
</g>
<path d="M1222.74 379.897L1223.41 376.579L1224.07 379.897C1225.3 386.026 1230.09 390.816 1236.22 392.042L1239.53 392.705L1236.22 393.369C1230.09 394.595 1225.3 399.385 1224.07 405.514L1223.41 408.832L1222.74 405.514C1221.52 399.385 1216.73 394.595 1210.6 393.369L1207.28 392.705L1210.6 392.042C1216.73 390.816 1221.52 386.026 1222.74 379.897Z" fill="white"/>
<path d="M1209.64 364.799L1209.97 363.14L1210.3 364.799C1210.91 367.863 1213.31 370.258 1216.37 370.871L1218.03 371.202L1216.37 371.534C1213.31 372.147 1210.91 374.542 1210.3 377.606L1209.97 379.265L1209.64 377.606C1209.03 374.542 1206.63 372.147 1203.57 371.534L1201.91 371.202L1203.57 370.871C1206.63 370.258 1209.03 367.863 1209.64 364.799Z" fill="white"/>
<path d="M1236.63 366.933L1236.85 365.827L1237.07 366.933C1237.48 368.976 1239.07 370.573 1241.12 370.981L1242.22 371.203L1241.12 371.424C1239.07 371.832 1237.48 373.429 1237.07 375.472L1236.85 376.578L1236.63 375.472C1236.22 373.429 1234.62 371.832 1232.58 371.424L1231.47 371.203L1232.58 370.981C1234.62 370.573 1236.22 368.976 1236.63 366.933Z" fill="white"/>
<path d="M1222.36 500.713L1220.86 495.425H1214.54L1213.04 500.713H1209.8L1215.6 480.867H1219.95L1225.75 500.713H1222.36ZM1217.81 484.08H1217.59L1215.14 492.78H1220.26L1217.81 484.08ZM1228.55 500.713V498.296H1233.21V483.284H1228.55V480.867H1241.06V483.284H1236.4V498.296H1241.06V500.713H1228.55Z" fill="black"/>
<defs>
<filter id="filter0_d_1449_8942" x="375.784" y="326" width="145.713" height="145.713" filterUnits="userSpaceOnUse" color-interpolation-filters="sRGB">
<feFlood flood-opacity="0" result="BackgroundImageFix"/>
<feColorMatrix in="SourceAlpha" type="matrix" values="0 0 0 0 0 0 0 0 0 0 0 0 0 0 0 0 0 0 127 0" result="hardAlpha"/>
<feOffset dy="14.2159"/>
<feGaussianBlur stdDeviation="7.10796"/>
<feComposite in2="hardAlpha" operator="out"/>
<feColorMatrix type="matrix" values="0 0 0 0 0.00392157 0 0 0 0 0.0862745 0 0 0 0 0.152941 0 0 0 0.06 0"/>
<feBlend mode="normal" in2="BackgroundImageFix" result="effect1_dropShadow_1449_8942"/>
<feBlend mode="normal" in="SourceGraphic" in2="effect1_dropShadow_1449_8942" result="shape"/>
</filter>
<filter id="filter1_d_1449_8942" x="628.117" y="322.446" width="152.821" height="152.821" filterUnits="userSpaceOnUse" color-interpolation-filters="sRGB">
<feFlood flood-opacity="0" result="BackgroundImageFix"/>
<feColorMatrix in="SourceAlpha" type="matrix" values="0 0 0 0 0 0 0 0 0 0 0 0 0 0 0 0 0 0 127 0" result="hardAlpha"/>
<feOffset dy="14.2159"/>
<feGaussianBlur stdDeviation="7.10796"/>
<feComposite in2="hardAlpha" operator="out"/>
<feColorMatrix type="matrix" values="0 0 0 0 0.00392157 0 0 0 0 0.0862745 0 0 0 0 0.152941 0 0 0 0.06 0"/>
<feBlend mode="normal" in2="BackgroundImageFix" result="effect1_dropShadow_1449_8942"/>
<feBlend mode="normal" in="SourceGraphic" in2="effect1_dropShadow_1449_8942" result="shape"/>
</filter>
<filter id="filter2_d_1449_8942" x="887.557" y="322.446" width="152.821" height="152.821" filterUnits="userSpaceOnUse" color-interpolation-filters="sRGB">
<feFlood flood-opacity="0" result="BackgroundImageFix"/>
<feColorMatrix in="SourceAlpha" type="matrix" values="0 0 0 0 0 0 0 0 0 0 0 0 0 0 0 0 0 0 127 0" result="hardAlpha"/>
<feOffset dy="14.2159"/>
<feGaussianBlur stdDeviation="7.10796"/>
<feComposite in2="hardAlpha" operator="out"/>
<feColorMatrix type="matrix" values="0 0 0 0 0.00392157 0 0 0 0 0.0862745 0 0 0 0 0.152941 0 0 0 0.06 0"/>
<feBlend mode="normal" in2="BackgroundImageFix" result="effect1_dropShadow_1449_8942"/>
<feBlend mode="normal" in="SourceGraphic" in2="effect1_dropShadow_1449_8942" result="shape"/>
</filter>
<filter id="filter3_d_1449_8942" x="1147" y="322.446" width="152.821" height="152.821" filterUnits="userSpaceOnUse" color-interpolation-filters="sRGB">
<feFlood flood-opacity="0" result="BackgroundImageFix"/>
<feColorMatrix in="SourceAlpha" type="matrix" values="0 0 0 0 0 0 0 0 0 0 0 0 0 0 0 0 0 0 127 0" result="hardAlpha"/>
<feOffset dy="14.2159"/>
<feGaussianBlur stdDeviation="7.10796"/>
<feComposite in2="hardAlpha" operator="out"/>
<feColorMatrix type="matrix" values="0 0 0 0 0.00392157 0 0 0 0 0.0862745 0 0 0 0 0.152941 0 0 0 0.06 0"/>
<feBlend mode="normal" in2="BackgroundImageFix" result="effect1_dropShadow_1449_8942"/>
<feBlend mode="normal" in="SourceGraphic" in2="effect1_dropShadow_1449_8942" result="shape"/>
</filter>
<radialGradient id="paint0_radial_1449_8942" cx="0" cy="0" r="1" gradientUnits="userSpaceOnUse" gradientTransform="translate(831.499 384.059) rotate(-90) scale(372.245 792.695)">
<stop stop-color="#FAFAFA" stop-opacity="0.74"/>
<stop offset="1" stop-color="#FBFBFD"/>
</radialGradient>
<clipPath id="clip0_1449_8942">
<rect width="43.2718" height="43.2718" fill="white" transform="translate(683.204 365.094)"/>
</clipPath>
</defs>
</svg>
