<svg width="1677" height="845" viewBox="0 0 1677 845" fill="none" xmlns="http://www.w3.org/2000/svg">
<rect x="329" y="440" width="303" height="152" rx="16" fill="#212126"/>
<rect x="329" y="440" width="303" height="152" rx="16" stroke="#3A3D40" stroke-width="4"/>
<path d="M396 498.75H366.021C364.871 498.75 363.938 499.683 363.938 500.833V506.967C363.938 507.519 364.157 508.048 364.549 508.439C364.939 508.831 365.469 509.05 366.021 509.05H396C396.553 509.05 397.083 508.831 397.474 508.439C397.864 508.048 398.083 507.519 398.083 506.967V500.833C398.083 500.281 397.864 499.752 397.474 499.361C397.083 498.969 396.553 498.75 396 498.75ZM368.5 506.542C368.075 506.542 367.692 506.286 367.53 505.894C367.367 505.501 367.458 505.05 367.758 504.748C368.058 504.448 368.51 504.359 368.902 504.522C369.294 504.684 369.55 505.067 369.55 505.492C369.55 506.072 369.08 506.542 368.5 506.542ZM368.5 503.358C368.075 503.358 367.692 503.103 367.53 502.709C367.367 502.317 367.458 501.865 367.758 501.565C368.058 501.265 368.51 501.175 368.902 501.337C369.294 501.5 369.55 501.884 369.55 502.308C369.55 502.887 369.08 503.358 368.5 503.358ZM371.667 506.542C371.242 506.542 370.86 506.286 370.697 505.894C370.535 505.501 370.624 505.05 370.924 504.748C371.225 504.448 371.677 504.359 372.069 504.522C372.461 504.684 372.717 505.067 372.717 505.492C372.717 506.072 372.247 506.542 371.667 506.542ZM371.667 503.358C371.242 503.358 370.86 503.103 370.697 502.709C370.535 502.317 370.624 501.865 370.924 501.565C371.225 501.265 371.677 501.175 372.069 501.337C372.461 501.5 372.717 501.884 372.717 502.308C372.717 502.887 372.247 503.358 371.667 503.358ZM393.75 504.734L380.695 504.733C380.236 504.733 379.863 504.361 379.863 503.9C379.863 503.439 380.236 503.067 380.695 503.067H393.733C394.194 503.067 394.568 503.439 394.568 503.9C394.568 504.361 394.194 504.733 393.733 504.733L393.75 504.734ZM396 486.85H366.02C364.87 486.85 363.938 487.783 363.938 488.933V495.067C363.938 495.619 364.156 496.148 364.549 496.539C364.939 496.931 365.469 497.15 366.02 497.15H396C396.553 497.15 397.083 496.931 397.474 496.539C397.864 496.148 398.083 495.619 398.083 495.067V488.933C398.083 488.381 397.864 487.851 397.474 487.461C397.083 487.069 396.553 486.85 396 486.85ZM368.5 494.642C368.075 494.642 367.692 494.386 367.53 493.993C367.367 493.601 367.458 493.15 367.758 492.848C368.058 492.548 368.51 492.459 368.902 492.622C369.294 492.784 369.55 493.167 369.55 493.592C369.55 493.87 369.439 494.137 369.242 494.334C369.045 494.531 368.778 494.642 368.5 494.642ZM368.5 491.457C368.075 491.457 367.692 491.203 367.53 490.809C367.367 490.417 367.458 489.965 367.758 489.665C368.058 489.365 368.51 489.275 368.902 489.437C369.294 489.6 369.55 489.984 369.55 490.407C369.55 490.687 369.439 490.953 369.242 491.151C369.045 491.348 368.778 491.457 368.5 491.457ZM371.683 494.642C371.26 494.642 370.875 494.386 370.713 493.993C370.55 493.601 370.641 493.15 370.941 492.848C371.241 492.548 371.692 492.459 372.084 492.622C372.478 492.784 372.733 493.167 372.733 493.592C372.733 493.873 372.62 494.142 372.42 494.34C372.219 494.537 371.949 494.647 371.667 494.642H371.683ZM371.683 491.459V491.457C371.26 491.457 370.875 491.203 370.713 490.809C370.55 490.417 370.641 489.965 370.941 489.665C371.241 489.365 371.692 489.275 372.084 489.437C372.478 489.6 372.733 489.984 372.733 490.407C372.733 490.689 372.62 490.959 372.42 491.156C372.219 491.354 371.949 491.462 371.667 491.457L371.683 491.459ZM393.766 492.834L380.695 492.832C380.236 492.832 379.862 492.461 379.862 492C379.862 491.539 380.236 491.167 380.695 491.167H393.733C394.194 491.167 394.567 491.539 394.567 492C394.567 492.461 394.194 492.832 393.733 492.832L393.766 492.834ZM396 474.95H366.02C364.87 474.95 363.938 475.883 363.938 477.033V483.167C363.938 483.718 364.156 484.248 364.548 484.639C364.939 485.031 365.469 485.25 366.02 485.25H396C396.553 485.25 397.083 485.031 397.473 484.639C397.864 484.248 398.083 483.718 398.083 483.167V477.033C398.083 476.481 397.864 475.951 397.473 475.561C397.083 475.168 396.553 474.95 396 474.95ZM368.5 482.742C368.075 482.742 367.692 482.485 367.53 482.093C367.367 481.701 367.458 481.25 367.758 480.948C368.058 480.648 368.509 480.559 368.902 480.721C369.294 480.884 369.55 481.267 369.55 481.692C369.55 482.271 369.08 482.742 368.5 482.742ZM368.5 479.557C368.075 479.557 367.692 479.303 367.53 478.909C367.367 478.517 367.458 478.065 367.758 477.765C368.058 477.465 368.509 477.375 368.902 477.537C369.294 477.7 369.55 478.084 369.55 478.507C369.55 479.087 369.08 479.557 368.5 479.557ZM371.683 482.742C371.259 482.742 370.875 482.485 370.712 482.093C370.55 481.701 370.641 481.25 370.941 480.948C371.241 480.648 371.692 480.559 372.084 480.721C372.478 480.884 372.733 481.267 372.733 481.692C372.733 481.973 372.62 482.242 372.42 482.44C372.219 482.637 371.948 482.746 371.667 482.742H371.683ZM371.683 479.559V479.557C371.259 479.557 370.875 479.303 370.712 478.909C370.55 478.517 370.641 478.065 370.941 477.765C371.241 477.465 371.692 477.375 372.084 477.537C372.478 477.7 372.733 478.084 372.733 478.507C372.733 478.789 372.62 479.059 372.42 479.256C372.219 479.454 371.948 479.562 371.667 479.557L371.683 479.559ZM393.765 480.934L380.695 480.932C380.236 480.932 379.862 480.56 379.862 480.1C379.862 479.639 380.236 479.267 380.695 479.267H393.733C394.194 479.267 394.567 479.639 394.567 480.1C394.567 480.56 394.194 480.932 393.733 480.932L393.765 480.934Z" fill="#12ABB5"/>
<path d="M368.714 551V542.585L361.396 529.717H364.324L369.995 539.962H370.086L375.758 529.717H378.685L371.275 542.493V551H368.714ZM386.703 551.366C385.646 551.366 384.68 551.173 383.806 550.787C382.932 550.4 382.18 549.852 381.55 549.14C380.94 548.408 380.462 547.544 380.117 546.548C379.771 545.532 379.599 544.394 379.599 543.133C379.599 541.893 379.771 540.765 380.117 539.749C380.462 538.732 380.94 537.869 381.55 537.157C382.18 536.425 382.932 535.866 383.806 535.48C384.68 535.094 385.646 534.901 386.703 534.901C387.76 534.901 388.715 535.094 389.569 535.48C390.443 535.866 391.195 536.425 391.825 537.157C392.456 537.869 392.943 538.732 393.289 539.749C393.634 540.765 393.807 541.893 393.807 543.133C393.807 544.394 393.634 545.532 393.289 546.548C392.943 547.544 392.456 548.408 391.825 549.14C391.195 549.852 390.443 550.4 389.569 550.787C388.715 551.173 387.76 551.366 386.703 551.366ZM386.703 549.201C388.024 549.201 389.102 548.794 389.935 547.981C390.768 547.168 391.185 545.928 391.185 544.262V542.005C391.185 540.338 390.768 539.098 389.935 538.285C389.102 537.472 388.024 537.066 386.703 537.066C385.382 537.066 384.304 537.472 383.471 538.285C382.637 539.098 382.221 540.338 382.221 542.005V544.262C382.221 545.928 382.637 547.168 383.471 547.981C384.304 548.794 385.382 549.201 386.703 549.201ZM408.125 548.439H408.003C407.84 548.805 407.637 549.171 407.393 549.536C407.17 549.882 406.885 550.197 406.539 550.482C406.194 550.746 405.777 550.959 405.289 551.122C404.801 551.285 404.232 551.366 403.582 551.366C401.956 551.366 400.665 550.848 399.709 549.811C398.754 548.754 398.276 547.27 398.276 545.359V535.267H400.716V544.932C400.716 547.758 401.915 549.171 404.314 549.171C404.801 549.171 405.269 549.11 405.716 548.988C406.184 548.866 406.59 548.683 406.936 548.439C407.302 548.195 407.586 547.89 407.789 547.524C408.013 547.138 408.125 546.68 408.125 546.152V535.267H410.564V551H408.125V548.439ZM437.753 551L435.618 544.719H427.02L424.885 551H422.294L429.733 529.717H432.996L440.436 551H437.753ZM431.38 532.096H431.227L427.63 542.463H434.978L431.38 532.096ZM444.327 535.267H446.766V537.828H446.888C447.295 536.832 447.884 536.1 448.657 535.633C449.45 535.145 450.395 534.901 451.492 534.901C452.468 534.901 453.352 535.094 454.145 535.48C454.938 535.866 455.609 536.415 456.158 537.127C456.727 537.838 457.154 538.702 457.438 539.718C457.743 540.735 457.896 541.873 457.896 543.133C457.896 544.394 457.743 545.532 457.438 546.548C457.154 547.565 456.727 548.429 456.158 549.14C455.609 549.852 454.938 550.4 454.145 550.787C453.352 551.173 452.468 551.366 451.492 551.366C449.358 551.366 447.823 550.39 446.888 548.439H446.766V557.098H444.327V535.267ZM450.822 549.171C452.204 549.171 453.291 548.744 454.084 547.89C454.877 547.016 455.273 545.878 455.273 544.475V541.792C455.273 540.389 454.877 539.261 454.084 538.407C453.291 537.533 452.204 537.096 450.822 537.096C450.273 537.096 449.744 537.177 449.236 537.34C448.748 537.482 448.321 537.686 447.956 537.95C447.59 538.214 447.295 538.539 447.071 538.926C446.868 539.291 446.766 539.688 446.766 540.115V545.969C446.766 546.477 446.868 546.935 447.071 547.341C447.295 547.727 447.59 548.063 447.956 548.347C448.321 548.612 448.748 548.815 449.236 548.957C449.744 549.099 450.273 549.171 450.822 549.171ZM462.624 535.267H465.063V537.828H465.185C465.592 536.832 466.181 536.1 466.954 535.633C467.747 535.145 468.692 534.901 469.789 534.901C470.765 534.901 471.649 535.094 472.442 535.48C473.235 535.866 473.906 536.415 474.455 537.127C475.024 537.838 475.451 538.702 475.735 539.718C476.04 540.735 476.193 541.873 476.193 543.133C476.193 544.394 476.04 545.532 475.735 546.548C475.451 547.565 475.024 548.429 474.455 549.14C473.906 549.852 473.235 550.4 472.442 550.787C471.649 551.173 470.765 551.366 469.789 551.366C467.655 551.366 466.12 550.39 465.185 548.439H465.063V557.098H462.624V535.267ZM469.119 549.171C470.501 549.171 471.588 548.744 472.381 547.89C473.174 547.016 473.57 545.878 473.57 544.475V541.792C473.57 540.389 473.174 539.261 472.381 538.407C471.588 537.533 470.501 537.096 469.119 537.096C468.57 537.096 468.041 537.177 467.533 537.34C467.045 537.482 466.618 537.686 466.252 537.95C465.887 538.214 465.592 538.539 465.368 538.926C465.165 539.291 465.063 539.688 465.063 540.115V545.969C465.063 546.477 465.165 546.935 465.368 547.341C465.592 547.727 465.887 548.063 466.252 548.347C466.618 548.612 467.045 548.815 467.533 548.957C468.041 549.099 468.57 549.171 469.119 549.171ZM481.854 528.132C482.505 528.132 482.972 528.305 483.257 528.65C483.562 528.975 483.714 529.402 483.714 529.931V530.358C483.714 531.191 483.47 532.116 482.982 533.132C482.495 534.128 481.814 535.002 480.94 535.755H478.897C479.506 535.104 479.994 534.494 480.36 533.925C480.746 533.336 481.021 532.685 481.183 531.974C480.777 531.872 480.472 531.679 480.269 531.394C480.086 531.11 479.994 530.764 479.994 530.358V529.931C479.994 529.402 480.137 528.975 480.421 528.65C480.726 528.305 481.204 528.132 481.854 528.132ZM492.301 551.366C490.838 551.366 489.608 551.091 488.612 550.543C487.636 549.973 486.793 549.221 486.081 548.286L487.819 546.884C488.429 547.656 489.11 548.256 489.862 548.683C490.614 549.089 491.488 549.293 492.484 549.293C493.521 549.293 494.324 549.069 494.893 548.622C495.483 548.175 495.777 547.544 495.777 546.731C495.777 546.121 495.574 545.603 495.168 545.176C494.781 544.729 494.07 544.424 493.033 544.262L491.783 544.079C491.051 543.977 490.381 543.824 489.771 543.621C489.161 543.398 488.622 543.113 488.155 542.767C487.708 542.402 487.352 541.954 487.088 541.426C486.844 540.897 486.722 540.267 486.722 539.535C486.722 538.763 486.864 538.092 487.149 537.523C487.433 536.934 487.819 536.446 488.307 536.059C488.815 535.673 489.415 535.389 490.106 535.206C490.797 535.002 491.539 534.901 492.332 534.901C493.613 534.901 494.68 535.124 495.534 535.572C496.408 536.019 497.17 536.639 497.82 537.432L496.204 538.895C495.859 538.407 495.351 537.97 494.68 537.584C494.009 537.177 493.165 536.974 492.149 536.974C491.133 536.974 490.36 537.198 489.832 537.645C489.324 538.072 489.069 538.661 489.069 539.413C489.069 540.186 489.324 540.745 489.832 541.09C490.36 541.436 491.112 541.69 492.088 541.853L493.308 542.036C495.056 542.3 496.296 542.808 497.028 543.56C497.759 544.292 498.125 545.258 498.125 546.457C498.125 547.981 497.607 549.181 496.57 550.055C495.534 550.929 494.111 551.366 492.301 551.366ZM517.079 551.366C515.352 551.366 513.878 551.041 512.658 550.39C511.439 549.719 510.402 548.805 509.548 547.646L511.439 546.06C512.191 547.057 513.024 547.819 513.939 548.347C514.854 548.855 515.931 549.11 517.171 549.11C518.695 549.11 519.854 548.744 520.647 548.012C521.46 547.28 521.866 546.304 521.866 545.085C521.866 544.068 521.562 543.286 520.952 542.737C520.342 542.188 519.336 541.751 517.933 541.426L516.195 541.029C514.244 540.582 512.75 539.911 511.713 539.017C510.697 538.102 510.188 536.822 510.188 535.175C510.188 534.24 510.361 533.407 510.707 532.675C511.052 531.943 511.53 531.333 512.14 530.846C512.77 530.358 513.512 529.992 514.366 529.748C515.24 529.484 516.195 529.351 517.232 529.351C518.838 529.351 520.21 529.646 521.348 530.236C522.507 530.825 523.482 531.689 524.275 532.827L522.354 534.23C521.765 533.417 521.053 532.777 520.22 532.309C519.387 531.842 518.35 531.608 517.11 531.608C515.748 531.608 514.671 531.903 513.878 532.492C513.105 533.061 512.719 533.925 512.719 535.084C512.719 536.1 513.044 536.873 513.695 537.401C514.366 537.909 515.372 538.316 516.713 538.621L518.451 539.017C520.545 539.485 522.06 540.196 522.995 541.151C523.93 542.107 524.397 543.377 524.397 544.963C524.397 545.939 524.224 546.823 523.879 547.616C523.554 548.408 523.076 549.079 522.446 549.628C521.816 550.177 521.043 550.604 520.128 550.909C519.234 551.213 518.218 551.366 517.079 551.366ZM535.101 551.366C534.024 551.366 533.048 551.173 532.174 550.787C531.32 550.4 530.578 549.852 529.948 549.14C529.338 548.408 528.861 547.544 528.515 546.548C528.19 545.532 528.027 544.394 528.027 543.133C528.027 541.893 528.19 540.765 528.515 539.749C528.861 538.732 529.338 537.869 529.948 537.157C530.578 536.425 531.32 535.866 532.174 535.48C533.048 535.094 534.024 534.901 535.101 534.901C536.158 534.901 537.103 535.094 537.937 535.48C538.77 535.866 539.482 536.405 540.071 537.096C540.661 537.767 541.108 538.57 541.413 539.505C541.738 540.44 541.901 541.467 541.901 542.585V543.743H530.589V544.475C530.589 545.146 530.69 545.776 530.893 546.365C531.117 546.935 531.422 547.433 531.808 547.859C532.215 548.286 532.703 548.622 533.272 548.866C533.861 549.11 534.522 549.232 535.254 549.232C536.25 549.232 537.114 548.998 537.845 548.53C538.597 548.063 539.177 547.392 539.583 546.518L541.321 547.768C540.813 548.845 540.02 549.719 538.943 550.39C537.866 551.041 536.585 551.366 535.101 551.366ZM535.101 536.944C534.43 536.944 533.821 537.066 533.272 537.31C532.723 537.533 532.245 537.858 531.839 538.285C531.452 538.712 531.148 539.22 530.924 539.81C530.7 540.379 530.589 541.009 530.589 541.7V541.914H539.278V541.578C539.278 540.176 538.892 539.058 538.12 538.224C537.368 537.371 536.361 536.944 535.101 536.944ZM546.53 551V535.267H548.969V538.163H549.122C549.406 537.411 549.915 536.74 550.646 536.151C551.378 535.561 552.384 535.267 553.665 535.267H554.61V537.706H553.177C551.856 537.706 550.819 537.96 550.067 538.468C549.335 538.956 548.969 539.576 548.969 540.328V551H546.53ZM562.109 551L556.591 535.267H559.03L561.774 543.072L563.482 548.439H563.634L565.342 543.072L568.147 535.267H570.494L564.945 551H562.109ZM579.928 551.366C578.85 551.366 577.875 551.173 577 550.787C576.147 550.4 575.405 549.852 574.775 549.14C574.165 548.408 573.687 547.544 573.342 546.548C573.016 545.532 572.854 544.394 572.854 543.133C572.854 541.893 573.016 540.765 573.342 539.749C573.687 538.732 574.165 537.869 574.775 537.157C575.405 536.425 576.147 535.866 577 535.48C577.875 535.094 578.85 534.901 579.928 534.901C580.985 534.901 581.93 535.094 582.763 535.48C583.597 535.866 584.308 536.405 584.898 537.096C585.487 537.767 585.934 538.57 586.239 539.505C586.564 540.44 586.727 541.467 586.727 542.585V543.743H575.415V544.475C575.415 545.146 575.517 545.776 575.72 546.365C575.943 546.935 576.248 547.433 576.635 547.859C577.041 548.286 577.529 548.622 578.098 548.866C578.688 549.11 579.348 549.232 580.08 549.232C581.076 549.232 581.94 548.998 582.672 548.53C583.424 548.063 584.003 547.392 584.41 546.518L586.148 547.768C585.64 548.845 584.847 549.719 583.769 550.39C582.692 551.041 581.411 551.366 579.928 551.366ZM579.928 536.944C579.257 536.944 578.647 537.066 578.098 537.31C577.549 537.533 577.072 537.858 576.665 538.285C576.279 538.712 575.974 539.22 575.75 539.81C575.527 540.379 575.415 541.009 575.415 541.7V541.914H584.105V541.578C584.105 540.176 583.719 539.058 582.946 538.224C582.194 537.371 581.188 536.944 579.928 536.944ZM591.356 551V535.267H593.796V538.163H593.948C594.233 537.411 594.741 536.74 595.473 536.151C596.204 535.561 597.211 535.267 598.491 535.267H599.437V537.706H598.003C596.682 537.706 595.645 537.96 594.893 538.468C594.162 538.956 593.796 539.576 593.796 540.328V551H591.356Z" fill="white"/>
<path d="M676.128 453.248V463.616C676.128 465.216 676.424 466.432 677.016 467.264C677.608 468.08 678.648 468.488 680.136 468.488C681.624 468.488 682.664 468.08 683.256 467.264C683.848 466.432 684.144 465.216 684.144 463.616V453.248H686.16V463.136C686.16 464.352 686.048 465.408 685.824 466.304C685.616 467.2 685.272 467.944 684.792 468.536C684.312 469.128 683.68 469.568 682.896 469.856C682.128 470.144 681.184 470.288 680.064 470.288C678.944 470.288 678 470.144 677.232 469.856C676.48 469.568 675.872 469.128 675.408 468.536C674.944 467.944 674.608 467.2 674.4 466.304C674.208 465.408 674.112 464.352 674.112 463.136V453.248H676.128ZM694.506 470.288C693.354 470.288 692.386 470.072 691.602 469.64C690.834 469.192 690.17 468.6 689.61 467.864L690.978 466.76C691.458 467.368 691.994 467.84 692.586 468.176C693.178 468.496 693.866 468.656 694.65 468.656C695.466 468.656 696.098 468.48 696.546 468.128C697.01 467.776 697.242 467.28 697.242 466.64C697.242 466.16 697.082 465.752 696.762 465.416C696.458 465.064 695.898 464.824 695.082 464.696L694.098 464.552C693.522 464.472 692.994 464.352 692.514 464.192C692.034 464.016 691.61 463.792 691.242 463.52C690.89 463.232 690.61 462.88 690.402 462.464C690.21 462.048 690.114 461.552 690.114 460.976C690.114 460.368 690.226 459.84 690.45 459.392C690.674 458.928 690.978 458.544 691.362 458.24C691.762 457.936 692.234 457.712 692.778 457.568C693.322 457.408 693.906 457.328 694.53 457.328C695.538 457.328 696.378 457.504 697.05 457.856C697.738 458.208 698.338 458.696 698.85 459.32L697.578 460.472C697.306 460.088 696.906 459.744 696.378 459.44C695.85 459.12 695.186 458.96 694.386 458.96C693.586 458.96 692.978 459.136 692.562 459.488C692.162 459.824 691.962 460.288 691.962 460.88C691.962 461.488 692.162 461.928 692.562 462.2C692.978 462.472 693.57 462.672 694.338 462.8L695.298 462.944C696.674 463.152 697.65 463.552 698.226 464.144C698.802 464.72 699.09 465.48 699.09 466.424C699.09 467.624 698.682 468.568 697.866 469.256C697.05 469.944 695.93 470.288 694.506 470.288ZM707.617 470.288C706.769 470.288 706.001 470.136 705.313 469.832C704.641 469.528 704.057 469.096 703.561 468.536C703.081 467.96 702.705 467.28 702.433 466.496C702.177 465.696 702.049 464.8 702.049 463.808C702.049 462.832 702.177 461.944 702.433 461.144C702.705 460.344 703.081 459.664 703.561 459.104C704.057 458.528 704.641 458.088 705.313 457.784C706.001 457.48 706.769 457.328 707.617 457.328C708.449 457.328 709.193 457.48 709.849 457.784C710.505 458.088 711.065 458.512 711.529 459.056C711.993 459.584 712.345 460.216 712.585 460.952C712.841 461.688 712.969 462.496 712.969 463.376V464.288H704.065V464.864C704.065 465.392 704.145 465.888 704.305 466.352C704.481 466.8 704.721 467.192 705.025 467.528C705.345 467.864 705.729 468.128 706.177 468.32C706.641 468.512 707.161 468.608 707.737 468.608C708.521 468.608 709.201 468.424 709.777 468.056C710.369 467.688 710.825 467.16 711.145 466.472L712.513 467.456C712.113 468.304 711.489 468.992 710.641 469.52C709.793 470.032 708.785 470.288 707.617 470.288ZM707.617 458.936C707.089 458.936 706.609 459.032 706.177 459.224C705.745 459.4 705.369 459.656 705.049 459.992C704.745 460.328 704.505 460.728 704.329 461.192C704.153 461.64 704.065 462.136 704.065 462.68V462.848H710.905V462.584C710.905 461.48 710.601 460.6 709.993 459.944C709.401 459.272 708.609 458.936 707.617 458.936ZM716.613 470V457.616H718.533V459.896H718.653C718.877 459.304 719.277 458.776 719.853 458.312C720.429 457.848 721.221 457.616 722.229 457.616H722.973V459.536H721.845C720.805 459.536 719.989 459.736 719.397 460.136C718.821 460.52 718.533 461.008 718.533 461.6V470H716.613ZM722.663 473.96V472.28H734.783V473.96H722.663ZM738.994 454.712C738.578 454.712 738.274 454.616 738.082 454.424C737.906 454.216 737.818 453.952 737.818 453.632V453.32C737.818 453 737.906 452.744 738.082 452.552C738.274 452.344 738.578 452.24 738.994 452.24C739.41 452.24 739.706 452.344 739.882 452.552C740.074 452.744 740.17 453 740.17 453.32V453.632C740.17 453.952 740.074 454.216 739.882 454.424C739.706 454.616 739.41 454.712 738.994 454.712ZM738.034 457.616H739.954V470H738.034V457.616ZM752.434 467.984H752.338C751.586 469.52 750.378 470.288 748.714 470.288C747.946 470.288 747.25 470.136 746.626 469.832C746.002 469.528 745.466 469.096 745.018 468.536C744.586 467.976 744.25 467.296 744.01 466.496C743.786 465.696 743.674 464.8 743.674 463.808C743.674 462.816 743.786 461.92 744.01 461.12C744.25 460.32 744.586 459.64 745.018 459.08C745.466 458.52 746.002 458.088 746.626 457.784C747.25 457.48 747.946 457.328 748.714 457.328C749.578 457.328 750.314 457.52 750.922 457.904C751.546 458.272 752.018 458.848 752.338 459.632H752.434V452.24H754.354V470H752.434V467.984ZM749.242 468.56C749.674 468.56 750.082 468.504 750.466 468.392C750.866 468.28 751.21 468.12 751.498 467.912C751.786 467.688 752.01 467.424 752.17 467.12C752.346 466.8 752.434 466.44 752.434 466.04V461.432C752.434 461.096 752.346 460.784 752.17 460.496C752.01 460.192 751.786 459.936 751.498 459.728C751.21 459.52 750.866 459.36 750.466 459.248C750.082 459.12 749.674 459.056 749.242 459.056C748.154 459.056 747.298 459.4 746.674 460.088C746.05 460.76 745.738 461.648 745.738 462.752V464.864C745.738 465.968 746.05 466.864 746.674 467.552C747.298 468.224 748.154 468.56 749.242 468.56ZM757.092 473.624L763.356 452.24H765.084L758.82 473.624H757.092ZM778.185 470L776.505 465.056H769.737L768.057 470H766.017L771.873 453.248H774.441L780.297 470H778.185ZM773.169 455.12H773.049L770.217 463.28H776.001L773.169 455.12ZM790.992 467.984H790.896C790.768 468.272 790.608 468.56 790.416 468.848C790.24 469.12 790.016 469.368 789.744 469.592C789.472 469.8 789.144 469.968 788.76 470.096C788.376 470.224 787.928 470.288 787.416 470.288C786.136 470.288 785.12 469.88 784.368 469.064C783.616 468.232 783.24 467.064 783.24 465.56V457.616H785.16V465.224C785.16 467.448 786.104 468.56 787.992 468.56C788.376 468.56 788.744 468.512 789.096 468.416C789.464 468.32 789.784 468.176 790.056 467.984C790.344 467.792 790.568 467.552 790.728 467.264C790.904 466.96 790.992 466.6 790.992 466.184V457.616H792.912V470H790.992V467.984ZM800.217 470C799.545 470 799.033 469.816 798.681 469.448C798.345 469.064 798.177 468.568 798.177 467.96V459.296H796.137V457.616H797.289C797.705 457.616 797.985 457.536 798.129 457.376C798.289 457.2 798.369 456.904 798.369 456.488V454.184H800.097V457.616H802.809V459.296H800.097V468.32H802.617V470H800.217ZM806.375 452.24H808.295V459.632H808.391C808.695 458.928 809.119 458.368 809.663 457.952C810.223 457.536 810.967 457.328 811.895 457.328C813.175 457.328 814.183 457.744 814.919 458.576C815.671 459.392 816.047 460.552 816.047 462.056V470H814.127V462.392C814.127 460.168 813.191 459.056 811.319 459.056C810.935 459.056 810.559 459.104 810.191 459.2C809.839 459.296 809.519 459.44 809.231 459.632C808.943 459.824 808.711 460.072 808.535 460.376C808.375 460.664 808.295 461.008 808.295 461.408V470H806.375V452.24ZM825.175 470.288C824.343 470.288 823.583 470.136 822.895 469.832C822.207 469.528 821.615 469.096 821.119 468.536C820.639 467.96 820.263 467.28 819.991 466.496C819.719 465.696 819.583 464.8 819.583 463.808C819.583 462.832 819.719 461.944 819.991 461.144C820.263 460.344 820.639 459.664 821.119 459.104C821.615 458.528 822.207 458.088 822.895 457.784C823.583 457.48 824.343 457.328 825.175 457.328C826.007 457.328 826.759 457.48 827.431 457.784C828.119 458.088 828.711 458.528 829.207 459.104C829.703 459.664 830.087 460.344 830.359 461.144C830.631 461.944 830.767 462.832 830.767 463.808C830.767 464.8 830.631 465.696 830.359 466.496C830.087 467.28 829.703 467.96 829.207 468.536C828.711 469.096 828.119 469.528 827.431 469.832C826.759 470.136 826.007 470.288 825.175 470.288ZM825.175 468.584C826.215 468.584 827.063 468.264 827.719 467.624C828.375 466.984 828.703 466.008 828.703 464.696V462.92C828.703 461.608 828.375 460.632 827.719 459.992C827.063 459.352 826.215 459.032 825.175 459.032C824.135 459.032 823.287 459.352 822.631 459.992C821.975 460.632 821.647 461.608 821.647 462.92V464.696C821.647 466.008 821.975 466.984 822.631 467.624C823.287 468.264 824.135 468.584 825.175 468.584ZM834.405 470V457.616H836.325V459.896H836.445C836.669 459.304 837.069 458.776 837.645 458.312C838.221 457.848 839.013 457.616 840.021 457.616H840.765V459.536H839.637C838.597 459.536 837.781 459.736 837.189 460.136C836.613 460.52 836.325 461.008 836.325 461.6V470H834.405ZM844.658 454.712C844.242 454.712 843.938 454.616 843.746 454.424C843.57 454.216 843.482 453.952 843.482 453.632V453.32C843.482 453 843.57 452.744 843.746 452.552C843.938 452.344 844.242 452.24 844.658 452.24C845.074 452.24 845.37 452.344 845.546 452.552C845.738 452.744 845.834 453 845.834 453.32V453.632C845.834 453.952 845.738 454.216 845.546 454.424C845.37 454.616 845.074 454.712 844.658 454.712ZM843.698 457.616H845.618V470H843.698V457.616ZM848.929 470V468.392L855.961 459.296H849.145V457.616H858.289V459.056L851.113 468.32H858.481V470H848.929ZM870.79 470C870.07 470 869.55 469.808 869.23 469.424C868.926 469.04 868.734 468.56 868.654 467.984H868.534C868.262 468.752 867.814 469.328 867.19 469.712C866.566 470.096 865.822 470.288 864.958 470.288C863.646 470.288 862.622 469.952 861.886 469.28C861.166 468.608 860.806 467.696 860.806 466.544C860.806 465.376 861.23 464.48 862.078 463.856C862.942 463.232 864.278 462.92 866.086 462.92H868.534V461.696C868.534 460.816 868.294 460.144 867.814 459.68C867.334 459.216 866.598 458.984 865.606 458.984C864.854 458.984 864.222 459.152 863.71 459.488C863.214 459.824 862.798 460.272 862.462 460.832L861.31 459.752C861.646 459.08 862.182 458.512 862.918 458.048C863.654 457.568 864.582 457.328 865.702 457.328C867.206 457.328 868.374 457.696 869.206 458.432C870.038 459.168 870.454 460.192 870.454 461.504V468.32H871.87V470H870.79ZM865.27 468.656C865.75 468.656 866.19 468.6 866.59 468.488C866.99 468.376 867.334 468.216 867.622 468.008C867.91 467.8 868.134 467.56 868.294 467.288C868.454 467.016 868.534 466.72 868.534 466.4V464.36H865.99C864.886 464.36 864.078 464.52 863.566 464.84C863.07 465.16 862.822 465.624 862.822 466.232V466.736C862.822 467.344 863.038 467.816 863.47 468.152C863.918 468.488 864.518 468.656 865.27 468.656ZM877.827 470C877.155 470 876.643 469.816 876.291 469.448C875.955 469.064 875.787 468.568 875.787 467.96V459.296H873.747V457.616H874.899C875.315 457.616 875.595 457.536 875.739 457.376C875.899 457.2 875.979 456.904 875.979 456.488V454.184H877.707V457.616H880.419V459.296H877.707V468.32H880.227V470H877.827ZM884.945 454.712C884.529 454.712 884.225 454.616 884.033 454.424C883.857 454.216 883.769 453.952 883.769 453.632V453.32C883.769 453 883.857 452.744 884.033 452.552C884.225 452.344 884.529 452.24 884.945 452.24C885.361 452.24 885.657 452.344 885.833 452.552C886.025 452.744 886.121 453 886.121 453.32V453.632C886.121 453.952 886.025 454.216 885.833 454.424C885.657 454.616 885.361 454.712 884.945 454.712ZM883.985 457.616H885.905V470H883.985V457.616ZM895.145 470.288C894.313 470.288 893.553 470.136 892.865 469.832C892.177 469.528 891.585 469.096 891.089 468.536C890.609 467.96 890.233 467.28 889.961 466.496C889.689 465.696 889.553 464.8 889.553 463.808C889.553 462.832 889.689 461.944 889.961 461.144C890.233 460.344 890.609 459.664 891.089 459.104C891.585 458.528 892.177 458.088 892.865 457.784C893.553 457.48 894.313 457.328 895.145 457.328C895.977 457.328 896.729 457.48 897.401 457.784C898.089 458.088 898.681 458.528 899.177 459.104C899.673 459.664 900.057 460.344 900.329 461.144C900.601 461.944 900.737 462.832 900.737 463.808C900.737 464.8 900.601 465.696 900.329 466.496C900.057 467.28 899.673 467.96 899.177 468.536C898.681 469.096 898.089 469.528 897.401 469.832C896.729 470.136 895.977 470.288 895.145 470.288ZM895.145 468.584C896.185 468.584 897.033 468.264 897.689 467.624C898.345 466.984 898.673 466.008 898.673 464.696V462.92C898.673 461.608 898.345 460.632 897.689 459.992C897.033 459.352 896.185 459.032 895.145 459.032C894.105 459.032 893.257 459.352 892.601 459.992C891.945 460.632 891.617 461.608 891.617 462.92V464.696C891.617 466.008 891.945 466.984 892.601 467.624C893.257 468.264 894.105 468.584 895.145 468.584ZM904.374 470V457.616H906.294V459.632H906.39C906.694 458.928 907.118 458.368 907.662 457.952C908.222 457.536 908.966 457.328 909.894 457.328C911.174 457.328 912.182 457.744 912.918 458.576C913.67 459.392 914.046 460.552 914.046 462.056V470H912.126V462.392C912.126 460.168 911.19 459.056 909.318 459.056C908.934 459.056 908.558 459.104 908.19 459.2C907.838 459.296 907.518 459.44 907.23 459.632C906.942 459.824 906.71 460.072 906.534 460.376C906.374 460.664 906.294 461.008 906.294 461.408V470H904.374ZM917.175 473.96V472.28H929.295V473.96H917.175ZM935.724 470.288C934.86 470.288 934.084 470.136 933.396 469.832C932.708 469.528 932.124 469.096 931.644 468.536C931.18 467.976 930.82 467.296 930.564 466.496C930.324 465.696 930.204 464.8 930.204 463.808C930.204 462.816 930.324 461.92 930.564 461.12C930.82 460.32 931.18 459.64 931.644 459.08C932.124 458.52 932.708 458.088 933.396 457.784C934.084 457.48 934.86 457.328 935.724 457.328C936.956 457.328 937.94 457.6 938.676 458.144C939.428 458.672 939.988 459.368 940.356 460.232L938.748 461.048C938.524 460.408 938.156 459.912 937.644 459.56C937.132 459.208 936.492 459.032 935.724 459.032C935.148 459.032 934.644 459.128 934.212 459.32C933.78 459.496 933.42 459.752 933.132 460.088C932.844 460.408 932.628 460.8 932.484 461.264C932.34 461.712 932.268 462.208 932.268 462.752V464.864C932.268 465.952 932.556 466.848 933.132 467.552C933.724 468.24 934.588 468.584 935.724 468.584C937.276 468.584 938.396 467.864 939.084 466.424L940.476 467.36C940.076 468.256 939.476 468.968 938.676 469.496C937.892 470.024 936.908 470.288 935.724 470.288ZM948.205 470.288C947.373 470.288 946.613 470.136 945.925 469.832C945.237 469.528 944.645 469.096 944.149 468.536C943.669 467.96 943.293 467.28 943.021 466.496C942.749 465.696 942.613 464.8 942.613 463.808C942.613 462.832 942.749 461.944 943.021 461.144C943.293 460.344 943.669 459.664 944.149 459.104C944.645 458.528 945.237 458.088 945.925 457.784C946.613 457.48 947.373 457.328 948.205 457.328C949.037 457.328 949.789 457.48 950.461 457.784C951.149 458.088 951.741 458.528 952.237 459.104C952.733 459.664 953.117 460.344 953.389 461.144C953.661 461.944 953.797 462.832 953.797 463.808C953.797 464.8 953.661 465.696 953.389 466.496C953.117 467.28 952.733 467.96 952.237 468.536C951.741 469.096 951.149 469.528 950.461 469.832C949.789 470.136 949.037 470.288 948.205 470.288ZM948.205 468.584C949.245 468.584 950.093 468.264 950.749 467.624C951.405 466.984 951.733 466.008 951.733 464.696V462.92C951.733 461.608 951.405 460.632 950.749 459.992C950.093 459.352 949.245 459.032 948.205 459.032C947.165 459.032 946.317 459.352 945.661 459.992C945.005 460.632 944.677 461.608 944.677 462.92V464.696C944.677 466.008 945.005 466.984 945.661 467.624C946.317 468.264 947.165 468.584 948.205 468.584ZM965.355 467.984H965.259C964.507 469.52 963.299 470.288 961.635 470.288C960.867 470.288 960.171 470.136 959.547 469.832C958.923 469.528 958.387 469.096 957.939 468.536C957.507 467.976 957.171 467.296 956.931 466.496C956.707 465.696 956.595 464.8 956.595 463.808C956.595 462.816 956.707 461.92 956.931 461.12C957.171 460.32 957.507 459.64 957.939 459.08C958.387 458.52 958.923 458.088 959.547 457.784C960.171 457.48 960.867 457.328 961.635 457.328C962.499 457.328 963.235 457.52 963.843 457.904C964.467 458.272 964.939 458.848 965.259 459.632H965.355V452.24H967.275V470H965.355V467.984ZM962.163 468.56C962.595 468.56 963.003 468.504 963.387 468.392C963.787 468.28 964.131 468.12 964.419 467.912C964.707 467.688 964.931 467.424 965.091 467.12C965.267 466.8 965.355 466.44 965.355 466.04V461.432C965.355 461.096 965.267 460.784 965.091 460.496C964.931 460.192 964.707 459.936 964.419 459.728C964.131 459.52 963.787 459.36 963.387 459.248C963.003 459.12 962.595 459.056 962.163 459.056C961.075 459.056 960.219 459.4 959.595 460.088C958.971 460.76 958.659 461.648 958.659 462.752V464.864C958.659 465.968 958.971 466.864 959.595 467.552C960.219 468.224 961.075 468.56 962.163 468.56ZM976.493 470.288C975.645 470.288 974.877 470.136 974.189 469.832C973.517 469.528 972.933 469.096 972.437 468.536C971.957 467.96 971.581 467.28 971.309 466.496C971.053 465.696 970.925 464.8 970.925 463.808C970.925 462.832 971.053 461.944 971.309 461.144C971.581 460.344 971.957 459.664 972.437 459.104C972.933 458.528 973.517 458.088 974.189 457.784C974.877 457.48 975.645 457.328 976.493 457.328C977.325 457.328 978.069 457.48 978.725 457.784C979.381 458.088 979.941 458.512 980.405 459.056C980.869 459.584 981.221 460.216 981.461 460.952C981.717 461.688 981.845 462.496 981.845 463.376V464.288H972.941V464.864C972.941 465.392 973.021 465.888 973.181 466.352C973.357 466.8 973.597 467.192 973.901 467.528C974.221 467.864 974.605 468.128 975.053 468.32C975.517 468.512 976.037 468.608 976.613 468.608C977.397 468.608 978.077 468.424 978.653 468.056C979.245 467.688 979.701 467.16 980.021 466.472L981.389 467.456C980.989 468.304 980.365 468.992 979.517 469.52C978.669 470.032 977.661 470.288 976.493 470.288ZM976.493 458.936C975.965 458.936 975.485 459.032 975.053 459.224C974.621 459.4 974.245 459.656 973.925 459.992C973.621 460.328 973.381 460.728 973.205 461.192C973.029 461.64 972.941 462.136 972.941 462.68V462.848H979.781V462.584C979.781 461.48 979.477 460.6 978.869 459.944C978.277 459.272 977.485 458.936 976.493 458.936Z" fill="#978E8E"/>
<path d="M1035.5 492L1016.44 480.998V503.002L1035.5 492ZM672 493.906H675.786V490.094H672V493.906ZM683.359 493.906H690.932V490.094H683.359V493.906ZM698.505 493.906H706.078V490.094H698.505V493.906ZM713.651 493.906H721.224V490.094H713.651V493.906ZM728.797 493.906H736.37V490.094H728.797V493.906ZM743.943 493.906H751.516V490.094H743.943V493.906ZM759.089 493.906H766.661V490.094H759.089V493.906ZM774.234 493.906H781.807V490.094H774.234V493.906ZM789.38 493.906H796.953V490.094H789.38V493.906ZM804.526 493.906H812.099V490.094H804.526V493.906ZM819.672 493.906H827.245V490.094H819.672V493.906ZM834.818 493.906H842.391V490.094H834.818V493.906ZM849.964 493.906H857.536V490.094H849.964V493.906ZM865.109 493.906H872.682V490.094H865.109V493.906ZM880.255 493.906H887.828V490.094H880.255V493.906ZM895.401 493.906H902.974V490.094H895.401V493.906ZM910.547 493.906H918.12V490.094H910.547V493.906ZM925.693 493.906H933.266V490.094H925.693V493.906ZM940.839 493.906H948.412V490.094H940.839V493.906ZM955.984 493.906H963.557V490.094H955.984V493.906ZM971.13 493.906H978.703V490.094H971.13V493.906ZM986.276 493.906H993.849V490.094H986.276V493.906ZM1001.42 493.906H1008.99V490.094H1001.42V493.906ZM1016.57 493.906H1024.14V490.094H1016.57V493.906Z" fill="#2C2C31"/>
<path d="M672 540L691.057 551.002V528.998L672 540ZM1035.5 538.094H1031.71V541.906H1035.5V538.094ZM1024.14 538.094H1016.57V541.906H1024.14V538.094ZM1008.99 538.094H1001.42V541.906H1008.99V538.094ZM993.849 538.094H986.276V541.906H993.849V538.094ZM978.703 538.094H971.13V541.906H978.703V538.094ZM963.557 538.094H955.984V541.906H963.557V538.094ZM948.411 538.094H940.839V541.906H948.411V538.094ZM933.266 538.094H925.693V541.906H933.266V538.094ZM918.12 538.094H910.547V541.906H918.12V538.094ZM902.974 538.094H895.401V541.906H902.974V538.094ZM887.828 538.094H880.255V541.906H887.828V538.094ZM872.682 538.094H865.109V541.906H872.682V538.094ZM857.536 538.094H849.964V541.906H857.536V538.094ZM842.391 538.094H834.818V541.906H842.391V538.094ZM827.245 538.094H819.672V541.906H827.245V538.094ZM812.099 538.094H804.526V541.906H812.099V538.094ZM796.953 538.094H789.38V541.906H796.953V538.094ZM781.807 538.094H774.234V541.906H781.807V538.094ZM766.661 538.094H759.088V541.906H766.661V538.094ZM751.516 538.094H743.943V541.906H751.516V538.094ZM736.37 538.094H728.797V541.906H736.37V538.094ZM721.224 538.094H713.651V541.906H721.224V538.094ZM706.078 538.094H698.505V541.906H706.078V538.094ZM690.932 538.094H683.359V541.906H690.932V538.094Z" fill="#2C2C31"/>
<path d="M751.745 581V564.248H753.761V579.224H760.889V581H751.745ZM765.016 565.712C764.6 565.712 764.296 565.616 764.104 565.424C763.928 565.216 763.84 564.952 763.84 564.632V564.32C763.84 564 763.928 563.744 764.104 563.552C764.296 563.344 764.6 563.24 765.016 563.24C765.432 563.24 765.728 563.344 765.904 563.552C766.096 563.744 766.192 564 766.192 564.32V564.632C766.192 564.952 766.096 565.216 765.904 565.424C765.728 565.616 765.432 565.712 765.016 565.712ZM764.056 568.616H765.976V581H764.056V568.616ZM770.536 581V568.616H772.456V570.632H772.552C772.856 569.928 773.28 569.368 773.824 568.952C774.384 568.536 775.128 568.328 776.056 568.328C777.336 568.328 778.344 568.744 779.08 569.576C779.832 570.392 780.208 571.552 780.208 573.056V581H778.288V573.392C778.288 571.168 777.352 570.056 775.48 570.056C775.096 570.056 774.72 570.104 774.352 570.2C774 570.296 773.68 570.44 773.392 570.632C773.104 570.824 772.872 571.072 772.696 571.376C772.536 571.664 772.456 572.008 772.456 572.408V581H770.536ZM784.657 563.24H786.577V574.496H786.673L788.569 572.384L792.073 568.616H794.401L789.817 573.512L794.857 581H792.529L788.425 574.688L786.577 576.584V581H784.657V563.24ZM796.708 584.96V583.28H808.828V584.96H796.708ZM814.205 581C813.533 581 813.021 580.816 812.669 580.448C812.333 580.064 812.165 579.568 812.165 578.96V570.296H810.125V568.616H811.277C811.693 568.616 811.973 568.536 812.117 568.376C812.277 568.2 812.357 567.904 812.357 567.488V565.184H814.085V568.616H816.797V570.296H814.085V579.32H816.605V581H814.205ZM824.949 581.288C824.117 581.288 823.357 581.136 822.669 580.832C821.981 580.528 821.389 580.096 820.893 579.536C820.413 578.96 820.037 578.28 819.765 577.496C819.493 576.696 819.357 575.8 819.357 574.808C819.357 573.832 819.493 572.944 819.765 572.144C820.037 571.344 820.413 570.664 820.893 570.104C821.389 569.528 821.981 569.088 822.669 568.784C823.357 568.48 824.117 568.328 824.949 568.328C825.781 568.328 826.533 568.48 827.205 568.784C827.893 569.088 828.485 569.528 828.981 570.104C829.477 570.664 829.861 571.344 830.133 572.144C830.405 572.944 830.541 573.832 830.541 574.808C830.541 575.8 830.405 576.696 830.133 577.496C829.861 578.28 829.477 578.96 828.981 579.536C828.485 580.096 827.893 580.528 827.205 580.832C826.533 581.136 825.781 581.288 824.949 581.288ZM824.949 579.584C825.989 579.584 826.837 579.264 827.493 578.624C828.149 577.984 828.477 577.008 828.477 575.696V573.92C828.477 572.608 828.149 571.632 827.493 570.992C826.837 570.352 825.989 570.032 824.949 570.032C823.909 570.032 823.061 570.352 822.405 570.992C821.749 571.632 821.421 572.608 821.421 573.92V575.696C821.421 577.008 821.749 577.984 822.405 578.624C823.061 579.264 823.909 579.584 824.949 579.584ZM834.179 563.24H836.099V574.496H836.195L838.091 572.384L841.595 568.616H843.923L839.339 573.512L844.379 581H842.051L837.947 574.688L836.099 576.584V581H834.179V563.24ZM851.572 581.288C850.724 581.288 849.956 581.136 849.268 580.832C848.596 580.528 848.012 580.096 847.516 579.536C847.036 578.96 846.66 578.28 846.388 577.496C846.132 576.696 846.004 575.8 846.004 574.808C846.004 573.832 846.132 572.944 846.388 572.144C846.66 571.344 847.036 570.664 847.516 570.104C848.012 569.528 848.596 569.088 849.268 568.784C849.956 568.48 850.724 568.328 851.572 568.328C852.404 568.328 853.148 568.48 853.804 568.784C854.46 569.088 855.02 569.512 855.484 570.056C855.948 570.584 856.3 571.216 856.54 571.952C856.796 572.688 856.924 573.496 856.924 574.376V575.288H848.02V575.864C848.02 576.392 848.1 576.888 848.26 577.352C848.436 577.8 848.676 578.192 848.98 578.528C849.3 578.864 849.684 579.128 850.132 579.32C850.596 579.512 851.116 579.608 851.692 579.608C852.476 579.608 853.156 579.424 853.732 579.056C854.324 578.688 854.78 578.16 855.1 577.472L856.468 578.456C856.068 579.304 855.444 579.992 854.596 580.52C853.748 581.032 852.74 581.288 851.572 581.288ZM851.572 569.936C851.044 569.936 850.564 570.032 850.132 570.224C849.7 570.4 849.324 570.656 849.004 570.992C848.7 571.328 848.46 571.728 848.284 572.192C848.108 572.64 848.02 573.136 848.02 573.68V573.848H854.86V573.584C854.86 572.48 854.556 571.6 853.948 570.944C853.356 570.272 852.564 569.936 851.572 569.936ZM860.568 581V568.616H862.488V570.632H862.584C862.888 569.928 863.312 569.368 863.856 568.952C864.416 568.536 865.16 568.328 866.088 568.328C867.368 568.328 868.376 568.744 869.112 569.576C869.864 570.392 870.24 571.552 870.24 573.056V581H868.32V573.392C868.32 571.168 867.384 570.056 865.512 570.056C865.128 570.056 864.752 570.104 864.384 570.2C864.032 570.296 863.712 570.44 863.424 570.632C863.136 570.824 862.904 571.072 862.728 571.376C862.568 571.664 862.488 572.008 862.488 572.408V581H860.568ZM872.865 584.624L879.129 563.24H880.857L874.593 584.624H872.865ZM893.958 581L892.278 576.056H885.51L883.83 581H881.79L887.646 564.248H890.214L896.07 581H893.958ZM888.942 566.12H888.822L885.99 574.28H891.774L888.942 566.12ZM903.741 581.288C902.877 581.288 902.101 581.136 901.413 580.832C900.725 580.528 900.141 580.096 899.661 579.536C899.197 578.976 898.837 578.296 898.581 577.496C898.341 576.696 898.221 575.8 898.221 574.808C898.221 573.816 898.341 572.92 898.581 572.12C898.837 571.32 899.197 570.64 899.661 570.08C900.141 569.52 900.725 569.088 901.413 568.784C902.101 568.48 902.877 568.328 903.741 568.328C904.973 568.328 905.957 568.6 906.693 569.144C907.445 569.672 908.005 570.368 908.373 571.232L906.765 572.048C906.541 571.408 906.173 570.912 905.661 570.56C905.149 570.208 904.509 570.032 903.741 570.032C903.165 570.032 902.661 570.128 902.229 570.32C901.797 570.496 901.437 570.752 901.149 571.088C900.861 571.408 900.645 571.8 900.501 572.264C900.357 572.712 900.285 573.208 900.285 573.752V575.864C900.285 576.952 900.573 577.848 901.149 578.552C901.741 579.24 902.605 579.584 903.741 579.584C905.293 579.584 906.413 578.864 907.101 577.424L908.493 578.36C908.093 579.256 907.493 579.968 906.693 580.496C905.909 581.024 904.925 581.288 903.741 581.288ZM916.151 581.288C915.287 581.288 914.511 581.136 913.823 580.832C913.135 580.528 912.551 580.096 912.071 579.536C911.607 578.976 911.247 578.296 910.991 577.496C910.751 576.696 910.631 575.8 910.631 574.808C910.631 573.816 910.751 572.92 910.991 572.12C911.247 571.32 911.607 570.64 912.071 570.08C912.551 569.52 913.135 569.088 913.823 568.784C914.511 568.48 915.287 568.328 916.151 568.328C917.383 568.328 918.367 568.6 919.103 569.144C919.855 569.672 920.415 570.368 920.783 571.232L919.175 572.048C918.951 571.408 918.583 570.912 918.071 570.56C917.559 570.208 916.919 570.032 916.151 570.032C915.575 570.032 915.071 570.128 914.639 570.32C914.207 570.496 913.847 570.752 913.559 571.088C913.271 571.408 913.055 571.8 912.911 572.264C912.767 572.712 912.695 573.208 912.695 573.752V575.864C912.695 576.952 912.983 577.848 913.559 578.552C914.151 579.24 915.015 579.584 916.151 579.584C917.703 579.584 918.823 578.864 919.511 577.424L920.903 578.36C920.503 579.256 919.903 579.968 919.103 580.496C918.319 581.024 917.335 581.288 916.151 581.288ZM928.609 581.288C927.761 581.288 926.993 581.136 926.305 580.832C925.633 580.528 925.049 580.096 924.553 579.536C924.073 578.96 923.697 578.28 923.425 577.496C923.169 576.696 923.041 575.8 923.041 574.808C923.041 573.832 923.169 572.944 923.425 572.144C923.697 571.344 924.073 570.664 924.553 570.104C925.049 569.528 925.633 569.088 926.305 568.784C926.993 568.48 927.761 568.328 928.609 568.328C929.441 568.328 930.185 568.48 930.841 568.784C931.497 569.088 932.057 569.512 932.521 570.056C932.985 570.584 933.337 571.216 933.577 571.952C933.833 572.688 933.961 573.496 933.961 574.376V575.288H925.057V575.864C925.057 576.392 925.137 576.888 925.297 577.352C925.473 577.8 925.713 578.192 926.017 578.528C926.337 578.864 926.721 579.128 927.169 579.32C927.633 579.512 928.153 579.608 928.729 579.608C929.513 579.608 930.193 579.424 930.769 579.056C931.361 578.688 931.817 578.16 932.137 577.472L933.505 578.456C933.105 579.304 932.481 579.992 931.633 580.52C930.785 581.032 929.777 581.288 928.609 581.288ZM928.609 569.936C928.081 569.936 927.601 570.032 927.169 570.224C926.737 570.4 926.361 570.656 926.041 570.992C925.737 571.328 925.497 571.728 925.321 572.192C925.145 572.64 925.057 573.136 925.057 573.68V573.848H931.897V573.584C931.897 572.48 931.593 571.6 930.985 570.944C930.393 570.272 929.601 569.936 928.609 569.936ZM941.325 581.288C940.173 581.288 939.205 581.072 938.421 580.64C937.653 580.192 936.989 579.6 936.429 578.864L937.797 577.76C938.277 578.368 938.813 578.84 939.405 579.176C939.997 579.496 940.685 579.656 941.469 579.656C942.285 579.656 942.917 579.48 943.365 579.128C943.829 578.776 944.061 578.28 944.061 577.64C944.061 577.16 943.901 576.752 943.581 576.416C943.277 576.064 942.717 575.824 941.901 575.696L940.917 575.552C940.341 575.472 939.813 575.352 939.333 575.192C938.853 575.016 938.429 574.792 938.061 574.52C937.709 574.232 937.429 573.88 937.221 573.464C937.029 573.048 936.933 572.552 936.933 571.976C936.933 571.368 937.045 570.84 937.269 570.392C937.493 569.928 937.797 569.544 938.181 569.24C938.581 568.936 939.053 568.712 939.597 568.568C940.141 568.408 940.725 568.328 941.349 568.328C942.357 568.328 943.197 568.504 943.869 568.856C944.557 569.208 945.157 569.696 945.669 570.32L944.397 571.472C944.125 571.088 943.725 570.744 943.197 570.44C942.669 570.12 942.005 569.96 941.205 569.96C940.405 569.96 939.797 570.136 939.381 570.488C938.981 570.824 938.781 571.288 938.781 571.88C938.781 572.488 938.981 572.928 939.381 573.2C939.797 573.472 940.389 573.672 941.157 573.8L942.117 573.944C943.493 574.152 944.469 574.552 945.045 575.144C945.621 575.72 945.909 576.48 945.909 577.424C945.909 578.624 945.501 579.568 944.685 580.256C943.869 580.944 942.749 581.288 941.325 581.288ZM953.359 581.288C952.207 581.288 951.239 581.072 950.455 580.64C949.687 580.192 949.023 579.6 948.463 578.864L949.831 577.76C950.311 578.368 950.847 578.84 951.439 579.176C952.031 579.496 952.719 579.656 953.503 579.656C954.319 579.656 954.951 579.48 955.399 579.128C955.863 578.776 956.095 578.28 956.095 577.64C956.095 577.16 955.935 576.752 955.615 576.416C955.311 576.064 954.751 575.824 953.935 575.696L952.951 575.552C952.375 575.472 951.847 575.352 951.367 575.192C950.887 575.016 950.463 574.792 950.095 574.52C949.743 574.232 949.463 573.88 949.255 573.464C949.063 573.048 948.967 572.552 948.967 571.976C948.967 571.368 949.079 570.84 949.303 570.392C949.527 569.928 949.831 569.544 950.215 569.24C950.615 568.936 951.087 568.712 951.631 568.568C952.175 568.408 952.759 568.328 953.383 568.328C954.391 568.328 955.231 568.504 955.903 568.856C956.591 569.208 957.191 569.696 957.703 570.32L956.431 571.472C956.159 571.088 955.759 570.744 955.231 570.44C954.703 570.12 954.039 569.96 953.239 569.96C952.439 569.96 951.831 570.136 951.415 570.488C951.015 570.824 950.815 571.288 950.815 571.88C950.815 572.488 951.015 572.928 951.415 573.2C951.831 573.472 952.423 573.672 953.191 573.8L954.151 573.944C955.527 574.152 956.503 574.552 957.079 575.144C957.655 575.72 957.943 576.48 957.943 577.424C957.943 578.624 957.535 579.568 956.719 580.256C955.903 580.944 954.783 581.288 953.359 581.288ZM960.026 584.96V583.28H972.146V584.96H960.026ZM977.523 581C976.851 581 976.339 580.816 975.987 580.448C975.651 580.064 975.483 579.568 975.483 578.96V570.296H973.443V568.616H974.595C975.011 568.616 975.291 568.536 975.435 568.376C975.595 568.2 975.675 567.904 975.675 567.488V565.184H977.403V568.616H980.115V570.296H977.403V579.32H979.923V581H977.523ZM988.267 581.288C987.435 581.288 986.675 581.136 985.987 580.832C985.299 580.528 984.707 580.096 984.211 579.536C983.731 578.96 983.355 578.28 983.083 577.496C982.811 576.696 982.675 575.8 982.675 574.808C982.675 573.832 982.811 572.944 983.083 572.144C983.355 571.344 983.731 570.664 984.211 570.104C984.707 569.528 985.299 569.088 985.987 568.784C986.675 568.48 987.435 568.328 988.267 568.328C989.099 568.328 989.851 568.48 990.523 568.784C991.211 569.088 991.803 569.528 992.299 570.104C992.795 570.664 993.179 571.344 993.451 572.144C993.723 572.944 993.859 573.832 993.859 574.808C993.859 575.8 993.723 576.696 993.451 577.496C993.179 578.28 992.795 578.96 992.299 579.536C991.803 580.096 991.211 580.528 990.523 580.832C989.851 581.136 989.099 581.288 988.267 581.288ZM988.267 579.584C989.307 579.584 990.155 579.264 990.811 578.624C991.467 577.984 991.795 577.008 991.795 575.696V573.92C991.795 572.608 991.467 571.632 990.811 570.992C990.155 570.352 989.307 570.032 988.267 570.032C987.227 570.032 986.379 570.352 985.723 570.992C985.067 571.632 984.739 572.608 984.739 573.92V575.696C984.739 577.008 985.067 577.984 985.723 578.624C986.379 579.264 987.227 579.584 988.267 579.584ZM997.497 563.24H999.417V574.496H999.513L1001.41 572.384L1004.91 568.616H1007.24L1002.66 573.512L1007.7 581H1005.37L1001.26 574.688L999.417 576.584V581H997.497V563.24ZM1014.89 581.288C1014.04 581.288 1013.27 581.136 1012.59 580.832C1011.91 580.528 1011.33 580.096 1010.83 579.536C1010.35 578.96 1009.98 578.28 1009.71 577.496C1009.45 576.696 1009.32 575.8 1009.32 574.808C1009.32 573.832 1009.45 572.944 1009.71 572.144C1009.98 571.344 1010.35 570.664 1010.83 570.104C1011.33 569.528 1011.91 569.088 1012.59 568.784C1013.27 568.48 1014.04 568.328 1014.89 568.328C1015.72 568.328 1016.47 568.48 1017.12 568.784C1017.78 569.088 1018.34 569.512 1018.8 570.056C1019.27 570.584 1019.62 571.216 1019.86 571.952C1020.11 572.688 1020.24 573.496 1020.24 574.376V575.288H1011.34V575.864C1011.34 576.392 1011.42 576.888 1011.58 577.352C1011.75 577.8 1011.99 578.192 1012.3 578.528C1012.62 578.864 1013 579.128 1013.45 579.32C1013.91 579.512 1014.43 579.608 1015.01 579.608C1015.79 579.608 1016.47 579.424 1017.05 579.056C1017.64 578.688 1018.1 578.16 1018.42 577.472L1019.79 578.456C1019.39 579.304 1018.76 579.992 1017.91 580.52C1017.07 581.032 1016.06 581.288 1014.89 581.288ZM1014.89 569.936C1014.36 569.936 1013.88 570.032 1013.45 570.224C1013.02 570.4 1012.64 570.656 1012.32 570.992C1012.02 571.328 1011.78 571.728 1011.6 572.192C1011.43 572.64 1011.34 573.136 1011.34 573.68V573.848H1018.18V573.584C1018.18 572.48 1017.87 571.6 1017.27 570.944C1016.67 570.272 1015.88 569.936 1014.89 569.936ZM1023.89 581V568.616H1025.81V570.632H1025.9C1026.21 569.928 1026.63 569.368 1027.17 568.952C1027.73 568.536 1028.48 568.328 1029.41 568.328C1030.69 568.328 1031.69 568.744 1032.43 569.576C1033.18 570.392 1033.56 571.552 1033.56 573.056V581H1031.64V573.392C1031.64 571.168 1030.7 570.056 1028.83 570.056C1028.45 570.056 1028.07 570.104 1027.7 570.2C1027.35 570.296 1027.03 570.44 1026.74 570.632C1026.45 570.824 1026.22 571.072 1026.05 571.376C1025.89 571.664 1025.81 572.008 1025.81 572.408V581H1023.89Z" fill="#978E8E"/>
<rect x="1075.5" y="436" width="303" height="160" rx="16" fill="#212126"/>
<rect x="1075.5" y="436" width="303" height="160" rx="16" stroke="#3A3D40" stroke-width="3.81136"/>
<path d="M1142.5 494.75H1112.52C1111.37 494.75 1110.44 495.683 1110.44 496.833V502.967C1110.44 503.519 1110.66 504.048 1111.05 504.439C1111.44 504.831 1111.97 505.05 1112.52 505.05H1142.5C1143.05 505.05 1143.58 504.831 1143.97 504.439C1144.36 504.048 1144.58 503.519 1144.58 502.967V496.833C1144.58 496.281 1144.36 495.752 1143.97 495.361C1143.58 494.969 1143.05 494.75 1142.5 494.75ZM1115 502.542C1114.58 502.542 1114.19 502.286 1114.03 501.894C1113.87 501.501 1113.96 501.05 1114.26 500.748C1114.56 500.448 1115.01 500.359 1115.4 500.522C1115.79 500.684 1116.05 501.067 1116.05 501.492C1116.05 502.072 1115.58 502.542 1115 502.542ZM1115 499.358C1114.58 499.358 1114.19 499.103 1114.03 498.709C1113.87 498.317 1113.96 497.865 1114.26 497.565C1114.56 497.265 1115.01 497.175 1115.4 497.337C1115.79 497.5 1116.05 497.884 1116.05 498.308C1116.05 498.887 1115.58 499.358 1115 499.358ZM1118.17 502.542C1117.74 502.542 1117.36 502.286 1117.2 501.894C1117.03 501.501 1117.12 501.05 1117.42 500.748C1117.73 500.448 1118.18 500.359 1118.57 500.522C1118.96 500.684 1119.22 501.067 1119.22 501.492C1119.22 502.072 1118.75 502.542 1118.17 502.542ZM1118.17 499.358C1117.74 499.358 1117.36 499.103 1117.2 498.709C1117.03 498.317 1117.12 497.865 1117.42 497.565C1117.73 497.265 1118.18 497.175 1118.57 497.337C1118.96 497.5 1119.22 497.884 1119.22 498.308C1119.22 498.887 1118.75 499.358 1118.17 499.358ZM1140.25 500.734L1127.2 500.733C1126.74 500.733 1126.36 500.361 1126.36 499.9C1126.36 499.439 1126.74 499.067 1127.2 499.067H1140.23C1140.69 499.067 1141.07 499.439 1141.07 499.9C1141.07 500.361 1140.69 500.733 1140.23 500.733L1140.25 500.734ZM1142.5 482.85H1112.52C1111.37 482.85 1110.44 483.783 1110.44 484.933V491.067C1110.44 491.619 1110.66 492.148 1111.05 492.539C1111.44 492.931 1111.97 493.15 1112.52 493.15H1142.5C1143.05 493.15 1143.58 492.931 1143.97 492.539C1144.36 492.148 1144.58 491.619 1144.58 491.067V484.933C1144.58 484.381 1144.36 483.851 1143.97 483.461C1143.58 483.069 1143.05 482.85 1142.5 482.85ZM1115 490.642C1114.58 490.642 1114.19 490.386 1114.03 489.993C1113.87 489.601 1113.96 489.15 1114.26 488.848C1114.56 488.548 1115.01 488.459 1115.4 488.622C1115.79 488.784 1116.05 489.167 1116.05 489.592C1116.05 489.87 1115.94 490.137 1115.74 490.334C1115.55 490.531 1115.28 490.642 1115 490.642ZM1115 487.457C1114.58 487.457 1114.19 487.203 1114.03 486.809C1113.87 486.417 1113.96 485.965 1114.26 485.665C1114.56 485.365 1115.01 485.275 1115.4 485.437C1115.79 485.6 1116.05 485.984 1116.05 486.407C1116.05 486.687 1115.94 486.953 1115.74 487.151C1115.55 487.348 1115.28 487.457 1115 487.457ZM1118.18 490.642C1117.76 490.642 1117.38 490.386 1117.21 489.993C1117.05 489.601 1117.14 489.15 1117.44 488.848C1117.74 488.548 1118.19 488.459 1118.58 488.622C1118.98 488.784 1119.23 489.167 1119.23 489.592C1119.23 489.873 1119.12 490.142 1118.92 490.34C1118.72 490.537 1118.45 490.647 1118.17 490.642H1118.18ZM1118.18 487.459V487.457C1117.76 487.457 1117.38 487.203 1117.21 486.809C1117.05 486.417 1117.14 485.965 1117.44 485.665C1117.74 485.365 1118.19 485.275 1118.58 485.437C1118.98 485.6 1119.23 485.984 1119.23 486.407C1119.23 486.689 1119.12 486.959 1118.92 487.156C1118.72 487.354 1118.45 487.462 1118.17 487.457L1118.18 487.459ZM1140.27 488.834L1127.2 488.832C1126.74 488.832 1126.36 488.461 1126.36 488C1126.36 487.539 1126.74 487.167 1127.2 487.167H1140.23C1140.69 487.167 1141.07 487.539 1141.07 488C1141.07 488.461 1140.69 488.832 1140.23 488.832L1140.27 488.834ZM1142.5 470.95H1112.52C1111.37 470.95 1110.44 471.883 1110.44 473.033V479.167C1110.44 479.718 1110.66 480.248 1111.05 480.639C1111.44 481.031 1111.97 481.25 1112.52 481.25H1142.5C1143.05 481.25 1143.58 481.031 1143.97 480.639C1144.36 480.248 1144.58 479.718 1144.58 479.167V473.033C1144.58 472.481 1144.36 471.951 1143.97 471.561C1143.58 471.168 1143.05 470.95 1142.5 470.95ZM1115 478.742C1114.57 478.742 1114.19 478.485 1114.03 478.093C1113.87 477.701 1113.96 477.25 1114.26 476.948C1114.56 476.648 1115.01 476.559 1115.4 476.721C1115.79 476.884 1116.05 477.267 1116.05 477.692C1116.05 478.271 1115.58 478.742 1115 478.742ZM1115 475.557C1114.57 475.557 1114.19 475.303 1114.03 474.909C1113.87 474.517 1113.96 474.065 1114.26 473.765C1114.56 473.465 1115.01 473.375 1115.4 473.537C1115.79 473.7 1116.05 474.084 1116.05 474.507C1116.05 475.087 1115.58 475.557 1115 475.557ZM1118.18 478.742C1117.76 478.742 1117.37 478.485 1117.21 478.093C1117.05 477.701 1117.14 477.25 1117.44 476.948C1117.74 476.648 1118.19 476.559 1118.58 476.721C1118.98 476.884 1119.23 477.267 1119.23 477.692C1119.23 477.973 1119.12 478.242 1118.92 478.44C1118.72 478.637 1118.45 478.746 1118.17 478.742H1118.18ZM1118.18 475.559V475.557C1117.76 475.557 1117.37 475.303 1117.21 474.909C1117.05 474.517 1117.14 474.065 1117.44 473.765C1117.74 473.465 1118.19 473.375 1118.58 473.537C1118.98 473.7 1119.23 474.084 1119.23 474.507C1119.23 474.789 1119.12 475.059 1118.92 475.256C1118.72 475.454 1118.45 475.562 1118.17 475.557L1118.18 475.559ZM1140.27 476.934L1127.2 476.932C1126.74 476.932 1126.36 476.56 1126.36 476.1C1126.36 475.639 1126.74 475.267 1127.2 475.267H1140.23C1140.69 475.267 1141.07 475.639 1141.07 476.1C1141.07 476.56 1140.69 476.932 1140.23 476.932L1140.27 476.934Z" fill="#12ABB5"/>
<path d="M1117.36 550.16C1116.12 550.16 1114.72 550.053 1113.16 549.84C1112.31 549.733 1111.72 549.509 1111.4 549.168C1111.08 548.827 1110.95 548.272 1110.99 547.504C1111.14 545.392 1111.49 542.789 1112.04 539.696C1112.6 536.581 1113.27 533.584 1114.06 530.704C1114.21 530.171 1114.51 529.797 1114.96 529.584C1115.4 529.371 1115.99 529.264 1116.72 529.264C1118.02 529.264 1118.67 529.627 1118.67 530.352C1118.67 530.651 1118.6 530.992 1118.48 531.376C1117.92 533.083 1117.37 535.376 1116.81 538.256C1116.26 541.115 1115.86 543.845 1115.63 546.448C1116.27 546.512 1116.99 546.544 1117.8 546.544C1121.54 546.544 1124.32 545.413 1126.16 543.152C1128.01 540.891 1128.94 537.872 1128.94 534.096C1128.94 531.557 1128.21 529.595 1126.76 528.208C1125.31 526.821 1123.27 526.128 1120.62 526.128C1118.91 526.128 1117.22 526.395 1115.53 526.928C1113.87 527.461 1112.36 528.165 1111.02 529.04C1110.74 529.232 1110.44 529.328 1110.12 529.328C1109.76 529.328 1109.47 529.179 1109.26 528.88C1109.05 528.56 1108.94 528.176 1108.94 527.728C1108.94 527.216 1109.03 526.8 1109.2 526.48C1109.37 526.139 1109.65 525.829 1110.06 525.552C1111.53 524.549 1113.26 523.792 1115.24 523.28C1117.23 522.747 1119.14 522.48 1120.97 522.48C1123.57 522.48 1125.83 522.939 1127.72 523.856C1129.62 524.752 1131.08 526.075 1132.11 527.824C1133.13 529.573 1133.64 531.685 1133.64 534.16C1133.64 537.381 1133 540.197 1131.72 542.608C1130.44 544.997 1128.58 546.853 1126.12 548.176C1123.67 549.499 1120.75 550.16 1117.36 550.16ZM1138.39 550.16C1137.57 550.16 1137 549.733 1136.66 548.88C1136.34 548.027 1136.18 546.661 1136.18 544.784C1136.18 542.011 1136.57 539.376 1137.36 536.88C1137.55 536.261 1137.86 535.813 1138.29 535.536C1138.74 535.237 1139.36 535.088 1140.15 535.088C1140.57 535.088 1140.87 535.141 1141.04 535.248C1141.21 535.355 1141.3 535.557 1141.3 535.856C1141.3 536.197 1141.14 536.965 1140.82 538.16C1140.6 539.013 1140.43 539.76 1140.31 540.4C1140.18 541.04 1140.07 541.829 1139.99 542.768C1140.69 540.933 1141.48 539.44 1142.35 538.288C1143.23 537.136 1144.08 536.315 1144.91 535.824C1145.77 535.333 1146.55 535.088 1147.25 535.088C1148.64 535.088 1149.33 535.781 1149.33 537.168C1149.33 537.445 1149.23 538.117 1149.04 539.184C1148.87 540.037 1148.79 540.571 1148.79 540.784C1148.79 541.531 1149.05 541.904 1149.59 541.904C1150.18 541.904 1150.95 541.435 1151.89 540.496C1152.17 540.219 1152.45 540.08 1152.75 540.08C1153.03 540.08 1153.24 540.208 1153.39 540.464C1153.56 540.699 1153.65 541.019 1153.65 541.424C1153.65 542.213 1153.44 542.832 1153.01 543.28C1152.41 543.899 1151.71 544.432 1150.9 544.88C1150.11 545.307 1149.27 545.52 1148.37 545.52C1147.24 545.52 1146.37 545.232 1145.78 544.656C1145.2 544.08 1144.91 543.301 1144.91 542.32C1144.91 542 1144.95 541.68 1145.01 541.36C1145.05 540.933 1145.07 540.645 1145.07 540.496C1145.07 540.155 1144.96 539.984 1144.72 539.984C1144.4 539.984 1143.97 540.347 1143.44 541.072C1142.93 541.776 1142.42 542.715 1141.91 543.888C1141.39 545.061 1140.98 546.299 1140.66 547.6C1140.42 548.603 1140.15 549.285 1139.83 549.648C1139.53 549.989 1139.05 550.16 1138.39 550.16ZM1155.51 532.976C1154.61 532.976 1153.94 532.773 1153.49 532.368C1153.04 531.941 1152.82 531.355 1152.82 530.608C1152.82 529.861 1153.11 529.243 1153.68 528.752C1154.28 528.24 1155.02 527.984 1155.89 527.984C1156.68 527.984 1157.32 528.176 1157.81 528.56C1158.3 528.944 1158.55 529.488 1158.55 530.192C1158.55 531.045 1158.27 531.728 1157.72 532.24C1157.16 532.731 1156.43 532.976 1155.51 532.976ZM1155.25 550.16C1153.87 550.16 1152.85 549.669 1152.21 548.688C1151.59 547.707 1151.28 546.405 1151.28 544.784C1151.28 543.824 1151.4 542.597 1151.64 541.104C1151.89 539.589 1152.21 538.181 1152.6 536.88C1152.79 536.197 1153.04 535.728 1153.36 535.472C1153.68 535.216 1154.2 535.088 1154.9 535.088C1155.99 535.088 1156.53 535.451 1156.53 536.176C1156.53 536.709 1156.33 537.947 1155.92 539.888C1155.41 542.235 1155.16 543.824 1155.16 544.656C1155.16 545.296 1155.24 545.787 1155.41 546.128C1155.58 546.469 1155.87 546.64 1156.28 546.64C1156.66 546.64 1157.14 546.373 1157.72 545.84C1158.29 545.307 1159.06 544.464 1160.02 543.312C1160.28 543.013 1160.56 542.864 1160.88 542.864C1161.16 542.864 1161.37 542.992 1161.52 543.248C1161.69 543.504 1161.78 543.856 1161.78 544.304C1161.78 545.157 1161.58 545.819 1161.17 546.288C1159.06 548.869 1157.09 550.16 1155.25 550.16ZM1175.98 540.272C1176.05 540.251 1176.15 540.24 1176.3 540.24C1176.62 540.24 1176.87 540.347 1177.04 540.56C1177.21 540.773 1177.3 541.061 1177.3 541.424C1177.3 542.085 1177.17 542.608 1176.91 542.992C1176.66 543.355 1176.27 543.621 1175.76 543.792C1174.78 544.112 1173.73 544.272 1172.62 544.272C1171.68 544.272 1170.8 544.144 1169.97 543.888C1169.35 544.891 1168.67 545.925 1167.92 546.992C1167.07 548.208 1166.33 549.04 1165.71 549.488C1165.09 549.936 1164.39 550.16 1163.6 550.16C1162.72 550.16 1162.03 549.819 1161.52 549.136C1161.03 548.453 1160.72 547.376 1160.59 545.904C1160.34 542.917 1160.21 540.304 1160.21 538.064V536.944C1160.23 536.24 1160.42 535.749 1160.78 535.472C1161.15 535.195 1161.69 535.056 1162.42 535.056C1162.97 535.056 1163.38 535.184 1163.63 535.44C1163.91 535.675 1164.05 536.08 1164.05 536.656C1164.05 539.109 1164.2 542.299 1164.5 546.224C1165.78 544.325 1166.74 542.811 1167.38 541.68C1167.06 541.061 1166.9 540.325 1166.9 539.472C1166.9 538.747 1167.06 538.043 1167.38 537.36C1167.7 536.677 1168.13 536.123 1168.69 535.696C1169.24 535.269 1169.87 535.056 1170.58 535.056C1171.19 535.056 1171.7 535.28 1172.08 535.728C1172.46 536.155 1172.66 536.784 1172.66 537.616C1172.66 538.576 1172.4 539.675 1171.89 540.912C1172.7 540.869 1173.78 540.709 1175.12 540.432L1175.98 540.272ZM1187.29 542.864C1187.56 542.864 1187.78 542.992 1187.93 543.248C1188.1 543.504 1188.18 543.856 1188.18 544.304C1188.18 545.157 1187.98 545.819 1187.57 546.288C1186.66 547.419 1185.65 548.347 1184.57 549.072C1183.5 549.797 1182.28 550.16 1180.92 550.16C1179.04 550.16 1177.64 549.307 1176.73 547.6C1175.83 545.893 1175.38 543.685 1175.38 540.976C1175.38 538.373 1175.71 535.408 1176.37 532.08C1177.06 528.752 1178.05 525.893 1179.35 523.504C1180.67 521.115 1182.24 519.92 1184.05 519.92C1185.08 519.92 1185.88 520.4 1186.45 521.36C1187.05 522.299 1187.35 523.653 1187.35 525.424C1187.35 527.963 1186.65 530.907 1185.24 534.256C1183.83 537.605 1181.92 540.923 1179.51 544.208C1179.66 545.083 1179.91 545.712 1180.25 546.096C1180.59 546.459 1181.04 546.64 1181.59 546.64C1182.47 546.64 1183.23 546.395 1183.89 545.904C1184.56 545.392 1185.4 544.528 1186.42 543.312C1186.68 543.013 1186.97 542.864 1187.29 542.864ZM1183.35 523.088C1182.86 523.088 1182.31 523.973 1181.69 525.744C1181.07 527.515 1180.52 529.712 1180.05 532.336C1179.59 534.96 1179.33 537.477 1179.29 539.888C1180.8 537.392 1182.01 534.896 1182.9 532.4C1183.8 529.883 1184.25 527.589 1184.25 525.52C1184.25 523.899 1183.95 523.088 1183.35 523.088ZM1197.44 535.088C1197.93 535.088 1198.27 535.152 1198.46 535.28C1198.65 535.408 1198.75 535.621 1198.75 535.92C1198.75 536.432 1198.47 538.256 1197.92 541.392C1197.43 544.4 1197.14 546.181 1197.05 546.736C1196.26 552.219 1195.17 556.56 1193.79 559.76C1192.4 562.96 1190.56 564.56 1188.25 564.56C1187.16 564.56 1186.28 564.219 1185.6 563.536C1184.91 562.875 1184.57 562 1184.57 560.912C1184.57 559.909 1184.8 558.885 1185.24 557.84C1185.71 556.795 1186.57 555.589 1187.8 554.224C1189.06 552.88 1190.83 551.333 1193.12 549.584L1193.21 548.848C1193.36 548.059 1193.53 546.928 1193.72 545.456C1193.3 546.992 1192.7 548.165 1191.93 548.976C1191.16 549.765 1190.35 550.16 1189.5 550.16C1188.54 550.16 1187.75 549.723 1187.13 548.848C1186.53 547.952 1186.24 546.843 1186.24 545.52C1186.24 543.92 1186.34 542.459 1186.56 541.136C1186.77 539.792 1187.12 538.373 1187.61 536.88C1187.83 536.24 1188.12 535.781 1188.51 535.504C1188.89 535.227 1189.5 535.088 1190.33 535.088C1190.8 535.088 1191.12 535.163 1191.29 535.312C1191.48 535.461 1191.58 535.685 1191.58 535.984C1191.58 536.155 1191.46 536.731 1191.23 537.712C1191.01 538.501 1190.84 539.216 1190.72 539.856C1190.55 540.731 1190.4 541.573 1190.27 542.384C1190.14 543.173 1190.08 543.824 1190.08 544.336C1190.08 545.147 1190.3 545.552 1190.75 545.552C1191.07 545.552 1191.46 545.232 1191.93 544.592C1192.42 543.952 1192.93 542.981 1193.47 541.68C1194.02 540.379 1194.56 538.779 1195.07 536.88C1195.24 536.24 1195.49 535.781 1195.84 535.504C1196.2 535.227 1196.73 535.088 1197.44 535.088ZM1188.6 561.456C1189.14 561.456 1189.73 560.837 1190.4 559.6C1191.06 558.363 1191.72 556.304 1192.38 553.424C1190.74 554.811 1189.54 556.069 1188.8 557.2C1188.07 558.352 1187.71 559.355 1187.71 560.208C1187.71 560.571 1187.77 560.869 1187.9 561.104C1188.05 561.339 1188.28 561.456 1188.6 561.456Z" fill="white"/>
<rect x="385" y="105" width="168.907" height="62.8682" rx="31.4341" fill="#212126"/>
<rect x="385" y="105" width="168.907" height="62.8682" rx="31.4341" stroke="#3A3D40" stroke-width="3.81136"/>
<g clip-path="url(#clip0_1334_1977)">
<path d="M425.68 122.872C418.201 122.872 412.117 128.956 412.117 136.434C412.117 143.912 418.201 149.997 425.68 149.997C433.158 149.997 439.242 143.912 439.242 136.434C439.242 128.956 433.158 122.872 425.68 122.872ZM425.68 125.722C427.803 125.722 429.53 127.479 429.53 129.64C429.53 131.8 427.803 133.558 425.68 133.558C423.557 133.558 421.829 131.8 421.829 129.64C421.829 127.48 423.557 125.722 425.68 125.722ZM432.971 146.271H418.388V143.139C418.388 138.909 421.659 135.467 425.68 135.467C429.701 135.467 432.972 138.918 432.972 143.16L432.971 146.271Z" fill="#FF7E7E"/>
</g>
<path d="M456.359 126.151V139.324C456.359 141.356 456.735 142.901 457.487 143.958C458.239 144.995 459.56 145.513 461.451 145.513C463.341 145.513 464.662 144.995 465.414 143.958C466.167 142.901 466.543 141.356 466.543 139.324V126.151H469.104V138.714C469.104 140.259 468.962 141.6 468.677 142.738C468.413 143.877 467.976 144.822 467.366 145.574C466.756 146.326 465.953 146.885 464.957 147.251C463.981 147.617 462.782 147.8 461.359 147.8C459.936 147.8 458.737 147.617 457.761 147.251C456.806 146.885 456.033 146.326 455.444 145.574C454.854 144.822 454.428 143.877 454.163 142.738C453.919 141.6 453.797 140.259 453.797 138.714V126.151H456.359ZM479.707 147.8C478.243 147.8 477.013 147.526 476.017 146.977C475.042 146.408 474.198 145.655 473.486 144.72L475.224 143.318C475.834 144.09 476.515 144.69 477.267 145.117C478.019 145.523 478.894 145.727 479.89 145.727C480.926 145.727 481.729 145.503 482.298 145.056C482.888 144.609 483.183 143.978 483.183 143.165C483.183 142.556 482.979 142.037 482.573 141.61C482.187 141.163 481.475 140.858 480.438 140.696L479.188 140.513C478.457 140.411 477.786 140.259 477.176 140.055C476.566 139.832 476.027 139.547 475.56 139.202C475.113 138.836 474.757 138.388 474.493 137.86C474.249 137.331 474.127 136.701 474.127 135.969C474.127 135.197 474.269 134.526 474.554 133.957C474.838 133.368 475.224 132.88 475.712 132.494C476.221 132.107 476.82 131.823 477.511 131.64C478.202 131.437 478.944 131.335 479.737 131.335C481.018 131.335 482.085 131.558 482.939 132.006C483.813 132.453 484.575 133.073 485.225 133.866L483.609 135.329C483.264 134.841 482.756 134.404 482.085 134.018C481.414 133.612 480.571 133.408 479.554 133.408C478.538 133.408 477.765 133.632 477.237 134.079C476.729 134.506 476.475 135.095 476.475 135.848C476.475 136.62 476.729 137.179 477.237 137.525C477.765 137.87 478.517 138.124 479.493 138.287L480.713 138.47C482.461 138.734 483.701 139.242 484.433 139.994C485.165 140.726 485.53 141.692 485.53 142.891C485.53 144.415 485.012 145.615 483.975 146.489C482.939 147.363 481.516 147.8 479.707 147.8ZM496.364 147.8C495.287 147.8 494.311 147.607 493.437 147.221C492.583 146.834 491.841 146.286 491.211 145.574C490.601 144.842 490.123 143.978 489.778 142.982C489.453 141.966 489.29 140.828 489.29 139.567C489.29 138.327 489.453 137.199 489.778 136.183C490.123 135.167 490.601 134.303 491.211 133.591C491.841 132.859 492.583 132.3 493.437 131.914C494.311 131.528 495.287 131.335 496.364 131.335C497.421 131.335 498.366 131.528 499.2 131.914C500.033 132.3 500.744 132.839 501.334 133.53C501.923 134.201 502.371 135.004 502.676 135.939C503.001 136.874 503.163 137.901 503.163 139.019V140.177H491.851V140.909C491.851 141.58 491.953 142.21 492.156 142.799C492.38 143.369 492.685 143.867 493.071 144.294C493.477 144.72 493.965 145.056 494.535 145.3C495.124 145.544 495.785 145.666 496.516 145.666C497.512 145.666 498.376 145.432 499.108 144.964C499.86 144.497 500.44 143.826 500.846 142.952L502.584 144.202C502.076 145.279 501.283 146.153 500.206 146.824C499.128 147.475 497.848 147.8 496.364 147.8ZM496.364 133.378C495.693 133.378 495.083 133.5 494.535 133.744C493.986 133.967 493.508 134.292 493.101 134.719C492.715 135.146 492.41 135.654 492.187 136.244C491.963 136.813 491.851 137.443 491.851 138.134V138.348H500.541V138.012C500.541 136.61 500.155 135.492 499.383 134.658C498.63 133.805 497.624 133.378 496.364 133.378ZM507.793 147.434V131.701H510.232V134.597H510.385C510.669 133.845 511.177 133.174 511.909 132.585C512.641 131.996 513.647 131.701 514.928 131.701H515.873V134.14H514.44C513.119 134.14 512.082 134.394 511.33 134.902C510.598 135.39 510.232 136.01 510.232 136.762V147.434H507.793Z" fill="white"/>
<path d="M469.453 259.868L480.456 240.811L458.451 240.811L469.453 259.868ZM467.547 183.868L467.547 187.668L471.359 187.668L471.359 183.868L467.547 183.868ZM467.547 195.268L467.547 202.868L471.359 202.868L471.359 195.268L467.547 195.268ZM467.547 210.468L467.547 218.068L471.359 218.068L471.359 210.468L467.547 210.468ZM467.547 225.668L467.547 233.268L471.359 233.268L471.359 225.668L467.547 225.668ZM467.547 240.868L467.547 248.468L471.359 248.468L471.359 240.868L467.547 240.868Z" fill="#2C2C31"/>
<rect x="313" y="275.868" width="312.907" height="64.8682" rx="32.4341" fill="#212126"/>
<rect x="313" y="275.868" width="312.907" height="64.8682" rx="32.4341" stroke="#3A3D40" stroke-width="3.81136"/>
<path d="M346.434 310.361L346.435 306.721C346.435 305.1 347.632 303.781 349.103 303.781H356.344V301.261H349.103C346.371 301.261 344.148 303.71 344.148 306.721L344.147 310.362C344.148 313.372 346.371 315.821 349.103 315.821H356.344V313.301H349.103C347.631 313.301 346.435 311.983 346.434 310.361ZM367.226 301.261H359.984V303.781H367.226C368.696 303.781 369.893 305.1 369.893 306.721V310.361C369.893 311.982 368.696 313.301 367.226 313.301H359.984V315.821H367.226C369.958 315.821 372.18 313.372 372.18 310.361V306.721C372.18 303.71 369.958 301.261 367.226 301.261ZM350.977 309.801H365.352V307.281H350.977V309.801Z" fill="#7EFFFF"/>
<path d="M398.092 320.686C396.94 320.686 395.905 320.484 394.988 320.078C394.07 319.673 393.292 319.097 392.652 318.35C392.033 317.604 391.553 316.697 391.212 315.63C390.892 314.564 390.732 313.369 390.732 312.046C390.732 310.724 390.892 309.529 391.212 308.462C391.553 307.396 392.033 306.489 392.652 305.742C393.292 304.996 394.07 304.42 394.988 304.014C395.905 303.609 396.94 303.406 398.092 303.406C399.734 303.406 401.046 303.769 402.028 304.494C403.03 305.198 403.777 306.126 404.268 307.278L402.124 308.366C401.825 307.513 401.334 306.852 400.652 306.382C399.969 305.913 399.116 305.678 398.092 305.678C397.324 305.678 396.652 305.806 396.076 306.062C395.5 306.297 395.02 306.638 394.636 307.086C394.252 307.513 393.964 308.036 393.772 308.654C393.58 309.252 393.484 309.913 393.484 310.638V313.454C393.484 314.905 393.868 316.1 394.636 317.038C395.425 317.956 396.577 318.414 398.092 318.414C400.161 318.414 401.654 317.454 402.572 315.534L404.428 316.782C403.894 317.977 403.094 318.926 402.028 319.63C400.982 320.334 399.67 320.686 398.092 320.686ZM414.734 320.686C413.624 320.686 412.611 320.484 411.694 320.078C410.776 319.673 409.987 319.097 409.326 318.35C408.686 317.582 408.184 316.676 407.822 315.63C407.459 314.564 407.278 313.369 407.278 312.046C407.278 310.745 407.459 309.561 407.822 308.494C408.184 307.428 408.686 306.521 409.326 305.774C409.987 305.006 410.776 304.42 411.694 304.014C412.611 303.609 413.624 303.406 414.734 303.406C415.843 303.406 416.846 303.609 417.742 304.014C418.659 304.42 419.448 305.006 420.11 305.774C420.771 306.521 421.283 307.428 421.646 308.494C422.008 309.561 422.19 310.745 422.19 312.046C422.19 313.369 422.008 314.564 421.646 315.63C421.283 316.676 420.771 317.582 420.11 318.35C419.448 319.097 418.659 319.673 417.742 320.078C416.846 320.484 415.843 320.686 414.734 320.686ZM414.734 318.414C416.12 318.414 417.251 317.988 418.126 317.134C419 316.281 419.438 314.98 419.438 313.23V310.862C419.438 309.113 419 307.812 418.126 306.958C417.251 306.105 416.12 305.678 414.734 305.678C413.347 305.678 412.216 306.105 411.342 306.958C410.467 307.812 410.03 309.113 410.03 310.862V313.23C410.03 314.98 410.467 316.281 411.342 317.134C412.216 317.988 413.347 318.414 414.734 318.414ZM427.04 320.302V303.79H429.6V306.478H429.728C430.133 305.54 430.699 304.793 431.424 304.238C432.171 303.684 433.163 303.406 434.4 303.406C436.107 303.406 437.451 303.961 438.432 305.07C439.435 306.158 439.936 307.705 439.936 309.71V320.302H437.376V310.158C437.376 307.193 436.128 305.71 433.632 305.71C433.12 305.71 432.619 305.774 432.128 305.902C431.659 306.03 431.232 306.222 430.848 306.478C430.464 306.734 430.155 307.065 429.92 307.47C429.707 307.854 429.6 308.313 429.6 308.846V320.302H427.04ZM445.868 320.302V303.79H448.428V306.478H448.556C448.961 305.54 449.526 304.793 450.252 304.238C450.998 303.684 451.99 303.406 453.228 303.406C454.934 303.406 456.278 303.961 457.26 305.07C458.262 306.158 458.764 307.705 458.764 309.71V320.302H456.204V310.158C456.204 307.193 454.956 305.71 452.46 305.71C451.948 305.71 451.446 305.774 450.956 305.902C450.486 306.03 450.06 306.222 449.676 306.478C449.292 306.734 448.982 307.065 448.748 307.47C448.534 307.854 448.428 308.313 448.428 308.846V320.302H445.868ZM470.903 320.686C469.772 320.686 468.748 320.484 467.831 320.078C466.935 319.673 466.156 319.097 465.495 318.35C464.855 317.582 464.354 316.676 463.991 315.63C463.65 314.564 463.479 313.369 463.479 312.046C463.479 310.745 463.65 309.561 463.991 308.494C464.354 307.428 464.855 306.521 465.495 305.774C466.156 305.006 466.935 304.42 467.831 304.014C468.748 303.609 469.772 303.406 470.903 303.406C472.012 303.406 473.004 303.609 473.879 304.014C474.754 304.42 475.5 304.985 476.119 305.71C476.738 306.414 477.207 307.257 477.527 308.238C477.868 309.22 478.039 310.297 478.039 311.47V312.686H466.167V313.454C466.167 314.158 466.274 314.82 466.487 315.438C466.722 316.036 467.042 316.558 467.447 317.006C467.874 317.454 468.386 317.806 468.983 318.062C469.602 318.318 470.295 318.446 471.063 318.446C472.108 318.446 473.015 318.201 473.783 317.71C474.572 317.22 475.18 316.516 475.607 315.598L477.431 316.91C476.898 318.041 476.066 318.958 474.935 319.662C473.804 320.345 472.46 320.686 470.903 320.686ZM470.903 305.55C470.199 305.55 469.559 305.678 468.983 305.934C468.407 306.169 467.906 306.51 467.479 306.958C467.074 307.406 466.754 307.94 466.519 308.558C466.284 309.156 466.167 309.817 466.167 310.542V310.766H475.287V310.414C475.287 308.942 474.882 307.769 474.071 306.894C473.282 305.998 472.226 305.55 470.903 305.55ZM489.042 320.686C487.89 320.686 486.855 320.484 485.938 320.078C485.02 319.673 484.242 319.097 483.602 318.35C482.983 317.604 482.503 316.697 482.162 315.63C481.842 314.564 481.682 313.369 481.682 312.046C481.682 310.724 481.842 309.529 482.162 308.462C482.503 307.396 482.983 306.489 483.602 305.742C484.242 304.996 485.02 304.42 485.938 304.014C486.855 303.609 487.89 303.406 489.042 303.406C490.684 303.406 491.996 303.769 492.978 304.494C493.98 305.198 494.727 306.126 495.218 307.278L493.074 308.366C492.775 307.513 492.284 306.852 491.602 306.382C490.919 305.913 490.066 305.678 489.042 305.678C488.274 305.678 487.602 305.806 487.026 306.062C486.45 306.297 485.97 306.638 485.586 307.086C485.202 307.513 484.914 308.036 484.722 308.654C484.53 309.252 484.434 309.913 484.434 310.638V313.454C484.434 314.905 484.818 316.1 485.586 317.038C486.375 317.956 487.527 318.414 489.042 318.414C491.111 318.414 492.604 317.454 493.522 315.534L495.378 316.782C494.844 317.977 494.044 318.926 492.978 319.63C491.932 320.334 490.62 320.686 489.042 320.686ZM503.279 320.302C502.383 320.302 501.701 320.057 501.231 319.566C500.783 319.054 500.559 318.393 500.559 317.582V306.03H497.839V303.79H499.375C499.93 303.79 500.303 303.684 500.495 303.47C500.709 303.236 500.815 302.841 500.815 302.286V299.214H503.119V303.79H506.735V306.03H503.119V318.062H506.479V320.302H503.279ZM513.122 320.686C512.439 320.686 511.938 320.516 511.618 320.174C511.319 319.833 511.17 319.385 511.17 318.83V318.414C511.17 317.86 511.319 317.412 511.618 317.07C511.938 316.729 512.439 316.558 513.122 316.558C513.805 316.558 514.295 316.729 514.594 317.07C514.914 317.412 515.074 317.86 515.074 318.414V318.83C515.074 319.385 514.914 319.833 514.594 320.174C514.295 320.516 513.805 320.686 513.122 320.686ZM530.784 317.614H530.656C529.653 319.662 528.042 320.686 525.824 320.686C524.8 320.686 523.872 320.484 523.04 320.078C522.208 319.673 521.493 319.097 520.896 318.35C520.32 317.604 519.872 316.697 519.552 315.63C519.253 314.564 519.104 313.369 519.104 312.046C519.104 310.724 519.253 309.529 519.552 308.462C519.872 307.396 520.32 306.489 520.896 305.742C521.493 304.996 522.208 304.42 523.04 304.014C523.872 303.609 524.8 303.406 525.824 303.406C526.976 303.406 527.957 303.662 528.768 304.174C529.6 304.665 530.229 305.433 530.656 306.478H530.784V296.622H533.344V320.302H530.784V317.614ZM526.528 318.382C527.104 318.382 527.648 318.308 528.16 318.158C528.693 318.009 529.152 317.796 529.536 317.518C529.92 317.22 530.218 316.868 530.432 316.462C530.666 316.036 530.784 315.556 530.784 315.022V308.878C530.784 308.43 530.666 308.014 530.432 307.63C530.218 307.225 529.92 306.884 529.536 306.606C529.152 306.329 528.693 306.116 528.16 305.966C527.648 305.796 527.104 305.71 526.528 305.71C525.077 305.71 523.936 306.169 523.104 307.086C522.272 307.982 521.856 309.166 521.856 310.638V313.454C521.856 314.926 522.272 316.121 523.104 317.038C523.936 317.934 525.077 318.382 526.528 318.382ZM539.426 320.302V303.79H541.986V306.83H542.146C542.445 306.041 542.978 305.337 543.746 304.718C544.514 304.1 545.57 303.79 546.914 303.79H547.906V306.35H546.402C545.016 306.35 543.928 306.617 543.138 307.15C542.37 307.662 541.986 308.313 541.986 309.102V320.302H539.426ZM553.096 299.918C552.542 299.918 552.136 299.79 551.88 299.534C551.646 299.257 551.528 298.905 551.528 298.478V298.062C551.528 297.636 551.646 297.294 551.88 297.038C552.136 296.761 552.542 296.622 553.096 296.622C553.651 296.622 554.046 296.761 554.28 297.038C554.536 297.294 554.664 297.636 554.664 298.062V298.478C554.664 298.905 554.536 299.257 554.28 299.534C554.046 299.79 553.651 299.918 553.096 299.918ZM551.816 303.79H554.376V320.302H551.816V303.79ZM564.104 320.302L558.312 303.79H560.872L563.752 311.982L565.544 317.614H565.704L567.496 311.982L570.44 303.79H572.904L567.08 320.302H564.104ZM579.566 320.302C578.67 320.302 577.988 320.057 577.518 319.566C577.07 319.054 576.846 318.414 576.846 317.646V296.622H579.406V318.062H581.838V320.302H579.566ZM596.069 303.79H598.597L591.205 324.142C591.013 324.633 590.821 325.038 590.629 325.358C590.437 325.7 590.202 325.966 589.925 326.158C589.647 326.35 589.295 326.489 588.869 326.574C588.463 326.66 587.962 326.702 587.365 326.702H586.053V324.462H588.645L589.893 320.942L583.717 303.79H586.277L590.245 315.022L591.013 317.71H591.173L592.069 315.022L596.069 303.79Z" fill="white"/>
<path d="M469.453 432.736L480.456 413.68L458.451 413.68L469.453 432.736ZM467.547 356.736L467.547 360.536L471.359 360.536L471.359 356.736L467.547 356.736ZM467.547 368.136L467.547 375.736L471.359 375.736L471.359 368.136L467.547 368.136ZM467.547 383.336L467.547 390.936L471.359 390.936L471.359 383.336L467.547 383.336ZM467.547 398.536L467.547 406.136L471.359 406.136L471.359 398.536L467.547 398.536ZM467.547 413.736L467.547 421.336L471.359 421.336L471.359 413.736L467.547 413.736Z" fill="#2C2C31"/>
<path d="M464.396 672L475.399 652.943L453.394 652.943L464.396 672ZM462.491 596L462.491 599.8L466.302 599.8L466.302 596L462.491 596ZM462.491 607.4L462.491 615L466.302 615L466.302 607.4L462.491 607.4ZM462.491 622.6L462.491 630.2L466.302 630.2L466.302 622.6L462.491 622.6ZM462.491 637.8L462.491 645.4L466.302 645.4L466.302 637.8L462.491 637.8ZM462.491 653L462.491 660.6L466.302 660.6L466.302 653L462.491 653Z" fill="#2C2C31"/>
<rect x="299" y="688" width="330.793" height="62.8682" rx="31.4341" fill="#212126"/>
<rect x="299" y="688" width="330.793" height="62.8682" rx="31.4341" stroke="#3A3D40" stroke-width="3.81136"/>
<path d="M336.779 712.672C336.224 712.361 335.71 711.982 335.249 711.545C334.32 710.664 333.581 709.536 333.052 708.194L332.283 706.24L331.514 708.194C330.985 709.537 330.246 710.664 329.317 711.545C328.855 711.984 328.34 712.363 327.788 712.673L326.503 713.394L327.788 714.115C328.34 714.425 328.855 714.804 329.317 715.242C330.246 716.123 330.985 717.251 331.514 718.593L332.283 720.548L333.053 718.593C333.581 717.251 334.32 716.123 335.25 715.242C335.712 714.804 336.227 714.424 336.78 714.114L338.066 713.393L336.779 712.672Z" fill="#7EFFFF"/>
<path d="M350.284 721.23C349.72 720.913 349.197 720.528 348.73 720.085C347.776 719.181 347.014 718.017 346.467 716.626L344.928 712.716L343.39 716.626C342.842 718.017 342.081 719.181 341.127 720.085C340.657 720.531 340.135 720.916 339.574 721.23L337.004 722.673L339.574 724.115C340.135 724.429 340.658 724.815 341.127 725.259C342.081 726.164 342.842 727.328 343.39 728.719L344.929 732.629L346.467 728.719C347.015 727.328 347.776 726.164 348.731 725.259C349.2 724.814 349.723 724.428 350.284 724.114L352.856 722.671L350.284 721.23Z" fill="#7EFFFF"/>
<path d="M381.274 730.434L379.14 724.153H370.542L368.407 730.434H365.816L373.255 709.151H376.518L383.958 730.434H381.274ZM374.902 711.53H374.749L371.151 721.897H378.5L374.902 711.53ZM397.545 727.873H397.423C397.261 728.239 397.057 728.605 396.813 728.971C396.59 729.316 396.305 729.631 395.96 729.916C395.614 730.18 395.197 730.393 394.709 730.556C394.222 730.719 393.652 730.8 393.002 730.8C391.376 730.8 390.085 730.282 389.13 729.245C388.174 728.188 387.697 726.704 387.697 724.793V714.701H390.136V724.366C390.136 727.192 391.335 728.605 393.734 728.605C394.222 728.605 394.689 728.544 395.136 728.422C395.604 728.3 396.01 728.117 396.356 727.873C396.722 727.629 397.006 727.324 397.21 726.958C397.433 726.572 397.545 726.115 397.545 725.586V714.701H399.984V730.434H397.545V727.873ZM409.265 730.434C408.411 730.434 407.76 730.2 407.313 729.733C406.886 729.245 406.673 728.615 406.673 727.842V716.835H404.081V714.701H405.545C406.073 714.701 406.429 714.599 406.612 714.396C406.815 714.172 406.917 713.796 406.917 713.268V710.341H409.112V714.701H412.558V716.835H409.112V728.3H412.314V730.434H409.265ZM422.915 730.8C421.858 730.8 420.892 730.607 420.018 730.221C419.144 729.834 418.392 729.286 417.762 728.574C417.152 727.842 416.674 726.978 416.329 725.982C415.983 724.966 415.81 723.828 415.81 722.567C415.81 721.327 415.983 720.199 416.329 719.183C416.674 718.167 417.152 717.303 417.762 716.591C418.392 715.859 419.144 715.3 420.018 714.914C420.892 714.528 421.858 714.335 422.915 714.335C423.972 714.335 424.927 714.528 425.781 714.914C426.655 715.3 427.407 715.859 428.037 716.591C428.667 717.303 429.155 718.167 429.501 719.183C429.846 720.199 430.019 721.327 430.019 722.567C430.019 723.828 429.846 724.966 429.501 725.982C429.155 726.978 428.667 727.842 428.037 728.574C427.407 729.286 426.655 729.834 425.781 730.221C424.927 730.607 423.972 730.8 422.915 730.8ZM422.915 728.635C424.236 728.635 425.313 728.229 426.147 727.415C426.98 726.602 427.397 725.362 427.397 723.696V721.439C427.397 719.772 426.98 718.532 426.147 717.719C425.313 716.906 424.236 716.5 422.915 716.5C421.594 716.5 420.516 716.906 419.683 717.719C418.849 718.532 418.433 719.772 418.433 721.439V723.696C418.433 725.362 418.849 726.602 419.683 727.415C420.516 728.229 421.594 728.635 422.915 728.635ZM434.641 730.434V714.701H437.08V717.262H437.202C437.385 716.855 437.588 716.479 437.812 716.134C438.056 715.768 438.34 715.453 438.665 715.189C439.011 714.924 439.407 714.721 439.855 714.579C440.302 714.416 440.83 714.335 441.44 714.335C442.477 714.335 443.432 714.589 444.306 715.097C445.18 715.585 445.831 716.398 446.258 717.536H446.319C446.603 716.683 447.132 715.941 447.904 715.311C448.697 714.66 449.764 714.335 451.106 714.335C452.712 714.335 453.962 714.863 454.856 715.92C455.771 716.957 456.228 718.431 456.228 720.342V730.434H453.789V720.768C453.789 719.366 453.515 718.309 452.966 717.597C452.417 716.886 451.543 716.53 450.343 716.53C449.856 716.53 449.388 716.591 448.941 716.713C448.514 716.835 448.128 717.018 447.782 717.262C447.437 717.506 447.162 717.821 446.959 718.207C446.756 718.573 446.654 719.01 446.654 719.518V730.434H444.215V720.768C444.215 719.366 443.94 718.309 443.392 717.597C442.843 716.886 441.989 716.53 440.83 716.53C440.342 716.53 439.875 716.591 439.428 716.713C438.981 716.835 438.584 717.018 438.239 717.262C437.893 717.506 437.608 717.821 437.385 718.207C437.182 718.573 437.08 719.01 437.08 719.518V730.434H434.641ZM467.816 730.8C466.759 730.8 465.794 730.607 464.92 730.221C464.046 729.834 463.293 729.286 462.663 728.574C462.053 727.842 461.576 726.978 461.23 725.982C460.885 724.966 460.712 723.828 460.712 722.567C460.712 721.327 460.885 720.199 461.23 719.183C461.576 718.167 462.053 717.303 462.663 716.591C463.293 715.859 464.046 715.3 464.92 714.914C465.794 714.528 466.759 714.335 467.816 714.335C468.873 714.335 469.829 714.528 470.682 714.914C471.556 715.3 472.309 715.859 472.939 716.591C473.569 717.303 474.057 718.167 474.402 719.183C474.748 720.199 474.921 721.327 474.921 722.567C474.921 723.828 474.748 724.966 474.402 725.982C474.057 726.978 473.569 727.842 472.939 728.574C472.309 729.286 471.556 729.834 470.682 730.221C469.829 730.607 468.873 730.8 467.816 730.8ZM467.816 728.635C469.137 728.635 470.215 728.229 471.048 727.415C471.882 726.602 472.298 725.362 472.298 723.696V721.439C472.298 719.772 471.882 718.532 471.048 717.719C470.215 716.906 469.137 716.5 467.816 716.5C466.495 716.5 465.418 716.906 464.584 717.719C463.751 718.532 463.334 719.772 463.334 721.439V723.696C463.334 725.362 463.751 726.602 464.584 727.415C465.418 728.229 466.495 728.635 467.816 728.635ZM483.018 730.434C482.164 730.434 481.514 730.2 481.067 729.733C480.64 729.245 480.426 728.615 480.426 727.842V716.835H477.835V714.701H479.298C479.827 714.701 480.182 714.599 480.365 714.396C480.569 714.172 480.67 713.796 480.67 713.268V710.341H482.866V714.701H486.311V716.835H482.866V728.3H486.067V730.434H483.018ZM492.061 711.011C491.533 711.011 491.147 710.889 490.903 710.645C490.679 710.381 490.567 710.046 490.567 709.639V709.243C490.567 708.836 490.679 708.511 490.903 708.267C491.147 708.003 491.533 707.871 492.061 707.871C492.59 707.871 492.966 708.003 493.189 708.267C493.433 708.511 493.555 708.836 493.555 709.243V709.639C493.555 710.046 493.433 710.381 493.189 710.645C492.966 710.889 492.59 711.011 492.061 711.011ZM490.842 714.701H493.281V730.434H490.842V714.701ZM502.55 730.434L497.031 714.701H499.471L502.215 722.506L503.922 727.873H504.075L505.782 722.506L508.587 714.701H510.935L505.386 730.434H502.55ZM520.368 730.8C519.291 730.8 518.315 730.607 517.441 730.221C516.587 729.834 515.845 729.286 515.215 728.574C514.605 727.842 514.128 726.978 513.782 725.982C513.457 724.966 513.294 723.828 513.294 722.567C513.294 721.327 513.457 720.199 513.782 719.183C514.128 718.167 514.605 717.303 515.215 716.591C515.845 715.859 516.587 715.3 517.441 714.914C518.315 714.528 519.291 714.335 520.368 714.335C521.425 714.335 522.37 714.528 523.204 714.914C524.037 715.3 524.749 715.839 525.338 716.53C525.928 717.201 526.375 718.004 526.68 718.939C527.005 719.874 527.168 720.901 527.168 722.019V723.177H515.856V723.909C515.856 724.58 515.957 725.21 516.161 725.799C516.384 726.369 516.689 726.867 517.075 727.294C517.482 727.72 517.97 728.056 518.539 728.3C519.128 728.544 519.789 728.666 520.521 728.666C521.517 728.666 522.381 728.432 523.112 727.964C523.865 727.497 524.444 726.826 524.85 725.952L526.588 727.202C526.08 728.279 525.287 729.153 524.21 729.824C523.133 730.475 521.852 730.8 520.368 730.8ZM520.368 716.378C519.697 716.378 519.088 716.5 518.539 716.744C517.99 716.967 517.512 717.292 517.106 717.719C516.72 718.146 516.415 718.654 516.191 719.244C515.967 719.813 515.856 720.443 515.856 721.134V721.348H524.546V721.012C524.546 719.61 524.159 718.492 523.387 717.658C522.635 716.805 521.629 716.378 520.368 716.378ZM539.857 709.151H546.992C548.313 709.151 549.512 709.375 550.59 709.822C551.667 710.269 552.582 710.94 553.334 711.835C554.106 712.709 554.696 713.817 555.102 715.158C555.509 716.479 555.712 718.024 555.712 719.793C555.712 721.561 555.509 723.116 555.102 724.458C554.696 725.779 554.106 726.887 553.334 727.781C552.582 728.655 551.667 729.316 550.59 729.763C549.512 730.21 548.313 730.434 546.992 730.434H539.857V709.151ZM546.992 728.178C547.866 728.178 548.669 728.035 549.4 727.751C550.132 727.446 550.762 727.009 551.291 726.44C551.819 725.871 552.226 725.179 552.51 724.366C552.815 723.533 552.968 722.588 552.968 721.531V718.055C552.968 716.998 552.815 716.063 552.51 715.25C552.226 714.416 551.819 713.715 551.291 713.146C550.762 712.577 550.132 712.15 549.4 711.865C548.669 711.56 547.866 711.408 546.992 711.408H542.418V728.178H546.992ZM572.113 730.434C571.198 730.434 570.538 730.19 570.131 729.702C569.745 729.214 569.501 728.605 569.399 727.873H569.247C568.901 728.849 568.332 729.58 567.539 730.068C566.747 730.556 565.801 730.8 564.704 730.8C563.037 730.8 561.736 730.373 560.801 729.519C559.886 728.666 559.429 727.507 559.429 726.043C559.429 724.559 559.967 723.421 561.045 722.628C562.142 721.836 563.84 721.439 566.137 721.439H569.247V719.884C569.247 718.766 568.942 717.912 568.332 717.323C567.722 716.733 566.787 716.439 565.527 716.439C564.572 716.439 563.769 716.652 563.118 717.079C562.488 717.506 561.96 718.075 561.533 718.787L560.069 717.414C560.496 716.561 561.177 715.839 562.112 715.25C563.047 714.64 564.226 714.335 565.649 714.335C567.56 714.335 569.044 714.802 570.101 715.737C571.158 716.673 571.686 717.973 571.686 719.64V728.3H573.485V730.434H572.113ZM565.1 728.727C565.71 728.727 566.269 728.655 566.777 728.513C567.285 728.371 567.722 728.168 568.088 727.903C568.454 727.639 568.739 727.334 568.942 726.989C569.145 726.643 569.247 726.267 569.247 725.86V723.269H566.015C564.612 723.269 563.586 723.472 562.935 723.879C562.305 724.285 561.99 724.875 561.99 725.647V726.287C561.99 727.06 562.264 727.659 562.813 728.086C563.382 728.513 564.145 728.727 565.1 728.727ZM581.052 730.434C580.199 730.434 579.548 730.2 579.101 729.733C578.674 729.245 578.461 728.615 578.461 727.842V716.835H575.869V714.701H577.332C577.861 714.701 578.217 714.599 578.4 714.396C578.603 714.172 578.705 713.796 578.705 713.268V710.341H580.9V714.701H584.345V716.835H580.9V728.3H584.101V730.434H581.052ZM600.31 730.434C599.395 730.434 598.735 730.19 598.328 729.702C597.942 729.214 597.698 728.605 597.596 727.873H597.444C597.098 728.849 596.529 729.58 595.736 730.068C594.944 730.556 593.998 730.8 592.901 730.8C591.234 730.8 589.933 730.373 588.998 729.519C588.083 728.666 587.626 727.507 587.626 726.043C587.626 724.559 588.164 723.421 589.242 722.628C590.339 721.836 592.037 721.439 594.334 721.439H597.444V719.884C597.444 718.766 597.139 717.912 596.529 717.323C595.919 716.733 594.984 716.439 593.724 716.439C592.769 716.439 591.966 716.652 591.315 717.079C590.685 717.506 590.156 718.075 589.73 718.787L588.266 717.414C588.693 716.561 589.374 715.839 590.309 715.25C591.244 714.64 592.423 714.335 593.846 714.335C595.757 714.335 597.241 714.802 598.298 715.737C599.355 716.673 599.883 717.973 599.883 719.64V728.3H601.682V730.434H600.31ZM593.297 728.727C593.907 728.727 594.466 728.655 594.974 728.513C595.482 728.371 595.919 728.168 596.285 727.903C596.651 727.639 596.936 727.334 597.139 726.989C597.342 726.643 597.444 726.267 597.444 725.86V723.269H594.212C592.809 723.269 591.783 723.472 591.132 723.879C590.502 724.285 590.187 724.875 590.187 725.647V726.287C590.187 727.06 590.461 727.659 591.01 728.086C591.579 728.513 592.342 728.727 593.297 728.727Z" fill="white"/>
<defs>
<clipPath id="clip0_1334_1977">
<rect width="28" height="28" fill="white" transform="translate(411.68 122.434)"/>
</clipPath>
</defs>
</svg>
