<svg width="1728" height="1097" viewBox="0 0 1728 1097" fill="none" xmlns="http://www.w3.org/2000/svg">
<g clip-path="url(#clip0_1425_8821)">
<g filter="url(#filter0_dd_1425_8821)">
<g clip-path="url(#clip1_1425_8821)">
<rect x="575" y="138" width="577.931" height="1012" rx="17.3033" fill="white"/>
<rect x="575" y="138" width="578" height="1012" rx="89.9504" fill="white"/>
<path d="M1083.65 179.921L1091.04 187.319M1091.04 187.319L1098.44 179.921M1091.04 187.319L1098.44 194.716M1091.04 187.319L1083.65 194.716" stroke="#2A3333" stroke-width="3.0823" stroke-linecap="round" stroke-linejoin="round"/>
<path d="M829.295 205.895C828.103 205.895 826.757 205.793 825.257 205.587C824.435 205.484 823.87 205.269 823.562 204.94C823.254 204.611 823.12 204.077 823.161 203.337C823.305 201.303 823.644 198.796 824.179 195.816C824.713 192.816 825.36 189.929 826.12 187.155C826.264 186.641 826.552 186.282 826.984 186.076C827.415 185.871 827.98 185.768 828.679 185.768C829.932 185.768 830.559 186.117 830.559 186.816C830.559 187.104 830.497 187.432 830.374 187.802C829.84 189.446 829.306 191.655 828.771 194.429C828.237 197.183 827.857 199.813 827.631 202.32C828.247 202.382 828.946 202.412 829.727 202.412C833.323 202.412 836.004 201.323 837.772 199.145C839.559 196.967 840.453 194.059 840.453 190.422C840.453 187.977 839.755 186.086 838.357 184.751C836.96 183.415 834.987 182.747 832.439 182.747C830.795 182.747 829.162 183.004 827.538 183.518C825.936 184.032 824.487 184.71 823.192 185.552C822.925 185.737 822.637 185.83 822.329 185.83C821.98 185.83 821.703 185.686 821.497 185.398C821.292 185.09 821.189 184.72 821.189 184.288C821.189 183.795 821.271 183.395 821.435 183.086C821.6 182.758 821.877 182.46 822.268 182.192C823.685 181.227 825.35 180.497 827.261 180.004C829.172 179.49 831.011 179.233 832.778 179.233C835.285 179.233 837.453 179.675 839.282 180.559C841.111 181.422 842.518 182.696 843.505 184.381C844.491 186.066 844.984 188.1 844.984 190.484C844.984 193.587 844.368 196.299 843.135 198.621C841.902 200.923 840.104 202.71 837.741 203.984C835.378 205.258 832.562 205.895 829.295 205.895ZM848.935 205.895C848.154 205.895 847.599 205.484 847.27 204.662C846.962 203.84 846.808 202.525 846.808 200.717C846.808 198.046 847.188 195.508 847.948 193.104C848.133 192.508 848.431 192.076 848.842 191.809C849.274 191.522 849.87 191.378 850.63 191.378C851.041 191.378 851.329 191.429 851.493 191.532C851.657 191.635 851.74 191.83 851.74 192.117C851.74 192.446 851.586 193.186 851.277 194.337C851.072 195.159 850.907 195.878 850.784 196.494C850.661 197.111 850.558 197.871 850.476 198.775C851.154 197.008 851.914 195.57 852.757 194.46C853.599 193.35 854.421 192.559 855.223 192.087C856.045 191.614 856.795 191.378 857.473 191.378C858.808 191.378 859.476 192.046 859.476 193.381C859.476 193.648 859.384 194.296 859.199 195.323C859.034 196.145 858.952 196.659 858.952 196.864C858.952 197.583 859.209 197.943 859.723 197.943C860.298 197.943 861.038 197.491 861.942 196.587C862.209 196.32 862.487 196.186 862.774 196.186C863.041 196.186 863.247 196.309 863.391 196.556C863.555 196.782 863.637 197.09 863.637 197.481C863.637 198.241 863.432 198.837 863.021 199.268C862.446 199.864 861.767 200.378 860.987 200.81C860.226 201.221 859.415 201.426 858.552 201.426C857.462 201.426 856.63 201.149 856.055 200.594C855.5 200.039 855.223 199.289 855.223 198.344C855.223 198.035 855.254 197.727 855.315 197.419C855.356 197.008 855.377 196.731 855.377 196.587C855.377 196.258 855.264 196.094 855.038 196.094C854.73 196.094 854.319 196.443 853.805 197.142C853.312 197.82 852.818 198.724 852.325 199.854C851.832 200.984 851.431 202.176 851.123 203.429C850.897 204.395 850.63 205.053 850.322 205.402C850.034 205.731 849.572 205.895 848.935 205.895ZM864.811 189.343C863.948 189.343 863.301 189.148 862.869 188.758C862.438 188.347 862.222 187.782 862.222 187.062C862.222 186.343 862.499 185.747 863.054 185.275C863.63 184.782 864.338 184.535 865.181 184.535C865.941 184.535 866.558 184.72 867.03 185.09C867.503 185.46 867.739 185.984 867.739 186.662C867.739 187.484 867.472 188.141 866.938 188.634C866.404 189.107 865.695 189.343 864.811 189.343ZM864.564 205.895C863.229 205.895 862.253 205.423 861.636 204.477C861.04 203.532 860.742 202.279 860.742 200.717C860.742 199.792 860.855 198.611 861.081 197.172C861.328 195.713 861.636 194.357 862.006 193.104C862.191 192.446 862.438 191.994 862.746 191.748C863.054 191.501 863.547 191.378 864.225 191.378C865.273 191.378 865.797 191.727 865.797 192.426C865.797 192.939 865.602 194.131 865.212 196.001C864.719 198.261 864.472 199.792 864.472 200.594C864.472 201.21 864.554 201.683 864.719 202.012C864.883 202.34 865.16 202.505 865.551 202.505C865.921 202.505 866.383 202.248 866.938 201.734C867.493 201.221 868.232 200.409 869.157 199.299C869.404 199.012 869.681 198.868 869.989 198.868C870.256 198.868 870.462 198.991 870.606 199.238C870.77 199.484 870.852 199.823 870.852 200.255C870.852 201.077 870.657 201.714 870.267 202.166C868.232 204.652 866.332 205.895 864.564 205.895ZM883.917 196.371C883.979 196.35 884.081 196.34 884.225 196.34C884.533 196.34 884.77 196.443 884.934 196.648C885.099 196.854 885.181 197.131 885.181 197.481C885.181 198.118 885.057 198.621 884.811 198.991C884.564 199.34 884.194 199.597 883.701 199.762C882.756 200.07 881.749 200.224 880.681 200.224C879.776 200.224 878.924 200.101 878.122 199.854C877.526 200.82 876.869 201.816 876.15 202.844C875.328 204.015 874.619 204.817 874.023 205.248C873.427 205.68 872.749 205.895 871.988 205.895C871.146 205.895 870.478 205.567 869.985 204.909C869.512 204.251 869.214 203.214 869.091 201.796C868.845 198.919 868.721 196.402 868.721 194.244V193.165C868.742 192.487 868.927 192.015 869.276 191.748C869.625 191.48 870.149 191.347 870.848 191.347C871.382 191.347 871.773 191.47 872.019 191.717C872.286 191.943 872.42 192.333 872.42 192.888C872.42 195.251 872.564 198.323 872.852 202.104C874.084 200.275 875.009 198.816 875.626 197.727C875.317 197.131 875.163 196.422 875.163 195.6C875.163 194.902 875.317 194.224 875.626 193.566C875.934 192.909 876.355 192.374 876.889 191.963C877.424 191.552 878.03 191.347 878.708 191.347C879.304 191.347 879.787 191.563 880.157 191.994C880.526 192.405 880.711 193.011 880.711 193.813C880.711 194.737 880.465 195.796 879.972 196.987C880.752 196.946 881.79 196.792 883.085 196.525L883.917 196.371ZM894.188 198.868C894.455 198.868 894.66 198.991 894.804 199.238C894.969 199.484 895.051 199.823 895.051 200.255C895.051 201.077 894.856 201.714 894.465 202.166C893.582 203.255 892.616 204.149 891.568 204.847C890.54 205.546 889.369 205.895 888.054 205.895C886.246 205.895 884.9 205.073 884.016 203.429C883.153 201.786 882.722 199.659 882.722 197.049C882.722 194.542 883.04 191.686 883.677 188.48C884.335 185.275 885.29 182.521 886.544 180.22C887.818 177.918 889.328 176.768 891.075 176.768C892.061 176.768 892.832 177.23 893.386 178.155C893.962 179.059 894.249 180.364 894.249 182.069C894.249 184.514 893.571 187.35 892.215 190.576C890.859 193.802 889.02 196.998 886.698 200.162C886.842 201.005 887.078 201.611 887.407 201.981C887.736 202.33 888.167 202.505 888.701 202.505C889.544 202.505 890.284 202.268 890.921 201.796C891.558 201.303 892.369 200.47 893.356 199.299C893.602 199.012 893.88 198.868 894.188 198.868ZM890.397 179.819C889.924 179.819 889.39 180.672 888.794 182.377C888.198 184.083 887.674 186.199 887.222 188.727C886.77 191.254 886.523 193.679 886.482 196.001C887.941 193.597 889.102 191.193 889.965 188.789C890.828 186.364 891.26 184.155 891.26 182.162C891.26 180.6 890.972 179.819 890.397 179.819ZM903.348 191.378C903.82 191.378 904.149 191.439 904.334 191.563C904.519 191.686 904.611 191.891 904.611 192.179C904.611 192.672 904.344 194.429 903.81 197.45C903.337 200.347 903.06 202.063 902.978 202.597C902.217 207.878 901.169 212.06 899.834 215.142C898.498 218.225 896.721 219.766 894.501 219.766C893.453 219.766 892.601 219.437 891.943 218.779C891.285 218.142 890.957 217.3 890.957 216.252C890.957 215.286 891.172 214.3 891.604 213.293C892.056 212.286 892.878 211.125 894.07 209.81C895.282 208.515 896.988 207.026 899.186 205.341L899.279 204.632C899.423 203.871 899.587 202.782 899.772 201.364C899.361 202.844 898.786 203.974 898.046 204.755C897.306 205.515 896.525 205.895 895.703 205.895C894.779 205.895 894.018 205.474 893.423 204.632C892.847 203.769 892.559 202.7 892.559 201.426C892.559 199.885 892.662 198.477 892.868 197.203C893.073 195.909 893.412 194.542 893.885 193.104C894.09 192.487 894.378 192.046 894.748 191.778C895.118 191.511 895.703 191.378 896.505 191.378C896.957 191.378 897.265 191.45 897.43 191.593C897.614 191.737 897.707 191.953 897.707 192.241C897.707 192.405 897.594 192.96 897.368 193.905C897.162 194.665 896.998 195.354 896.875 195.97C896.71 196.813 896.566 197.624 896.443 198.405C896.32 199.166 896.258 199.792 896.258 200.286C896.258 201.066 896.474 201.457 896.906 201.457C897.214 201.457 897.594 201.149 898.046 200.532C898.519 199.916 899.012 198.981 899.525 197.727C900.06 196.474 900.573 194.933 901.067 193.104C901.231 192.487 901.478 192.046 901.806 191.778C902.156 191.511 902.669 191.378 903.348 191.378ZM894.84 216.776C895.354 216.776 895.929 216.18 896.566 214.988C897.203 213.796 897.84 211.813 898.477 209.039C896.895 210.375 895.745 211.587 895.025 212.676C894.327 213.786 893.977 214.752 893.977 215.574C893.977 215.923 894.039 216.211 894.162 216.437C894.306 216.663 894.532 216.776 894.84 216.776Z" fill="black"/>
<g clip-path="url(#clip2_1425_8821)">
<circle cx="867" cy="532.825" r="73.9256" fill="#00CAB9" fill-opacity="0.3"/>
<circle cx="864" cy="531.209" r="37.2845" fill="white"/>
<path d="M864 496.06C844.471 496.06 828.585 511.946 828.585 531.475C828.585 551.004 844.471 566.89 864 566.89C883.529 566.89 899.416 551.004 899.416 531.475C899.416 511.946 883.529 496.06 864 496.06ZM878.444 525.682L863.266 540.86C862.76 541.34 862.128 541.593 861.47 541.593C860.813 541.593 860.18 541.34 859.674 540.86L849.556 530.741C848.569 529.754 848.569 528.135 849.556 527.149C850.542 526.162 852.161 526.162 853.148 527.149L861.471 535.497L874.853 522.089C875.839 521.103 877.458 521.103 878.445 522.089C879.432 523.076 879.431 524.695 878.444 525.682Z" fill="#00CAB9" fill-opacity="0.8"/>
</g>
<path d="M811.56 619.652C811.474 618.779 811.102 618.1 810.445 617.617C809.789 617.133 808.897 616.892 807.772 616.892C807.007 616.892 806.361 617 805.834 617.216C805.307 617.426 804.903 617.718 804.622 618.093C804.347 618.468 804.21 618.894 804.21 619.37C804.196 619.767 804.279 620.114 804.459 620.41C804.647 620.705 804.903 620.962 805.228 621.178C805.553 621.387 805.928 621.571 806.354 621.73C806.779 621.882 807.234 622.012 807.718 622.12L809.709 622.596C810.676 622.813 811.564 623.101 812.372 623.462C813.181 623.823 813.881 624.267 814.472 624.794C815.064 625.32 815.522 625.941 815.847 626.656C816.179 627.37 816.349 628.189 816.356 629.113C816.349 630.469 816.002 631.646 815.317 632.642C814.638 633.63 813.657 634.399 812.372 634.947C811.095 635.489 809.554 635.759 807.75 635.759C805.96 635.759 804.402 635.485 803.074 634.937C801.753 634.388 800.721 633.576 799.978 632.501C799.242 631.418 798.856 630.08 798.82 628.485H803.355C803.406 629.228 803.619 629.849 803.994 630.347C804.376 630.838 804.885 631.209 805.52 631.462C806.162 631.707 806.888 631.83 807.696 631.83C808.49 631.83 809.179 631.714 809.763 631.483C810.355 631.252 810.813 630.931 811.138 630.52C811.463 630.109 811.625 629.636 811.625 629.102C811.625 628.604 811.477 628.185 811.182 627.846C810.893 627.507 810.467 627.218 809.904 626.98C809.349 626.742 808.667 626.526 807.858 626.331L805.444 625.725C803.575 625.27 802.099 624.559 801.017 623.592C799.935 622.625 799.397 621.323 799.404 619.684C799.397 618.342 799.754 617.169 800.476 616.166C801.205 615.163 802.204 614.38 803.474 613.817C804.744 613.254 806.188 612.973 807.804 612.973C809.45 612.973 810.886 613.254 812.112 613.817C813.346 614.38 814.306 615.163 814.992 616.166C815.677 617.169 816.031 618.331 816.053 619.652H811.56ZM829.475 628.366V618.818H834.086V635.445H829.659V632.425H829.486C829.11 633.399 828.486 634.182 827.613 634.774C826.747 635.366 825.69 635.662 824.441 635.662C823.33 635.662 822.352 635.409 821.508 634.904C820.663 634.399 820.003 633.681 819.527 632.75C819.058 631.819 818.819 630.704 818.812 629.405V618.818H823.424V628.582C823.431 629.564 823.694 630.34 824.214 630.91C824.733 631.48 825.43 631.765 826.303 631.765C826.859 631.765 827.378 631.639 827.862 631.386C828.345 631.126 828.735 630.744 829.031 630.239C829.334 629.733 829.482 629.109 829.475 628.366ZM844.677 635.77C842.974 635.77 841.509 635.409 840.283 634.688C839.063 633.959 838.125 632.948 837.468 631.657C836.819 630.365 836.494 628.878 836.494 627.197C836.494 625.494 836.822 624 837.479 622.715C838.143 621.424 839.085 620.417 840.304 619.695C841.524 618.966 842.974 618.602 844.656 618.602C846.106 618.602 847.376 618.865 848.466 619.392C849.556 619.919 850.418 620.659 851.053 621.611C851.688 622.564 852.038 623.682 852.103 624.967H847.752C847.629 624.137 847.304 623.469 846.777 622.964C846.258 622.452 845.576 622.196 844.732 622.196C844.017 622.196 843.393 622.391 842.859 622.78C842.332 623.163 841.921 623.722 841.625 624.458C841.329 625.194 841.181 626.085 841.181 627.132C841.181 628.193 841.325 629.095 841.614 629.838C841.91 630.581 842.325 631.148 842.859 631.538C843.393 631.927 844.017 632.122 844.732 632.122C845.258 632.122 845.731 632.014 846.15 631.797C846.575 631.581 846.925 631.267 847.2 630.856C847.481 630.437 847.665 629.935 847.752 629.351H852.103C852.031 630.621 851.685 631.74 851.064 632.707C850.451 633.666 849.603 634.417 848.52 634.958C847.438 635.499 846.157 635.77 844.677 635.77ZM861.959 635.77C860.255 635.77 858.79 635.409 857.564 634.688C856.344 633.959 855.406 632.948 854.749 631.657C854.1 630.365 853.775 628.878 853.775 627.197C853.775 625.494 854.103 624 854.76 622.715C855.424 621.424 856.366 620.417 857.585 619.695C858.805 618.966 860.255 618.602 861.937 618.602C863.387 618.602 864.658 618.865 865.747 619.392C866.837 619.919 867.699 620.659 868.334 621.611C868.969 622.564 869.319 623.682 869.384 624.967H865.033C864.91 624.137 864.585 623.469 864.059 622.964C863.539 622.452 862.857 622.196 862.013 622.196C861.298 622.196 860.674 622.391 860.14 622.78C859.613 623.163 859.202 623.722 858.906 624.458C858.61 625.194 858.462 626.085 858.462 627.132C858.462 628.193 858.606 629.095 858.895 629.838C859.191 630.581 859.606 631.148 860.14 631.538C860.674 631.927 861.298 632.122 862.013 632.122C862.539 632.122 863.012 632.014 863.431 631.797C863.857 631.581 864.207 631.267 864.481 630.856C864.762 630.437 864.946 629.935 865.033 629.351H869.384C869.312 630.621 868.966 631.74 868.345 632.707C867.732 633.666 866.884 634.417 865.801 634.958C864.719 635.499 863.438 635.77 861.959 635.77ZM879.305 635.77C877.594 635.77 876.122 635.424 874.888 634.731C873.661 634.031 872.716 633.042 872.052 631.765C871.388 630.48 871.056 628.961 871.056 627.208C871.056 625.497 871.388 623.996 872.052 622.704C872.716 621.413 873.65 620.406 874.856 619.684C876.068 618.963 877.49 618.602 879.121 618.602C880.217 618.602 881.239 618.779 882.184 619.132C883.137 619.479 883.966 620.002 884.674 620.702C885.388 621.402 885.944 622.282 886.341 623.343C886.738 624.397 886.936 625.631 886.936 627.045V628.312H872.896V625.454H882.595C882.595 624.79 882.451 624.202 882.162 623.69C881.874 623.177 881.473 622.777 880.961 622.488C880.456 622.192 879.867 622.044 879.196 622.044C878.496 622.044 877.876 622.207 877.334 622.531C876.8 622.849 876.382 623.278 876.079 623.819C875.776 624.353 875.621 624.949 875.613 625.606V628.323C875.613 629.145 875.765 629.856 876.068 630.455C876.378 631.054 876.815 631.516 877.378 631.841C877.941 632.165 878.608 632.328 879.38 632.328C879.893 632.328 880.362 632.256 880.788 632.111C881.213 631.967 881.578 631.75 881.881 631.462C882.184 631.173 882.415 630.819 882.574 630.401L886.839 630.682C886.622 631.707 886.178 632.602 885.507 633.367C884.843 634.125 883.985 634.716 882.931 635.142C881.885 635.561 880.676 635.77 879.305 635.77ZM903.17 623.56L898.948 623.819C898.876 623.459 898.721 623.134 898.483 622.845C898.245 622.549 897.931 622.315 897.541 622.142C897.158 621.961 896.7 621.871 896.166 621.871C895.452 621.871 894.849 622.023 894.358 622.326C893.868 622.621 893.622 623.018 893.622 623.516C893.622 623.913 893.781 624.249 894.099 624.523C894.416 624.797 894.961 625.017 895.733 625.183L898.743 625.79C900.359 626.122 901.564 626.656 902.358 627.392C903.152 628.128 903.549 629.095 903.549 630.293C903.549 631.382 903.228 632.339 902.585 633.161C901.95 633.984 901.077 634.626 899.966 635.088C898.862 635.543 897.588 635.77 896.145 635.77C893.944 635.77 892.19 635.312 890.884 634.395C889.585 633.472 888.823 632.216 888.6 630.628L893.135 630.39C893.272 631.061 893.604 631.574 894.131 631.927C894.658 632.274 895.333 632.447 896.155 632.447C896.964 632.447 897.613 632.292 898.104 631.981C898.602 631.664 898.854 631.256 898.862 630.758C898.854 630.34 898.678 629.997 898.331 629.73C897.985 629.456 897.451 629.246 896.729 629.102L893.85 628.528C892.226 628.203 891.017 627.641 890.223 626.84C889.437 626.039 889.043 625.017 889.043 623.776C889.043 622.708 889.332 621.788 889.909 621.016C890.494 620.244 891.313 619.648 892.367 619.23C893.428 618.811 894.669 618.602 896.09 618.602C898.19 618.602 899.843 619.046 901.048 619.933C902.261 620.821 902.968 622.03 903.17 623.56ZM919.677 623.56L915.455 623.819C915.383 623.459 915.228 623.134 914.99 622.845C914.752 622.549 914.438 622.315 914.048 622.142C913.666 621.961 913.207 621.871 912.673 621.871C911.959 621.871 911.356 622.023 910.866 622.326C910.375 622.621 910.129 623.018 910.129 623.516C910.129 623.913 910.288 624.249 910.606 624.523C910.923 624.797 911.468 625.017 912.24 625.183L915.25 625.79C916.866 626.122 918.071 626.656 918.865 627.392C919.659 628.128 920.056 629.095 920.056 630.293C920.056 631.382 919.735 632.339 919.092 633.161C918.457 633.984 917.584 634.626 916.473 635.088C915.369 635.543 914.095 635.77 912.652 635.77C910.451 635.77 908.697 635.312 907.391 634.395C906.092 633.472 905.33 632.216 905.107 630.628L909.642 630.39C909.779 631.061 910.111 631.574 910.638 631.927C911.165 632.274 911.84 632.447 912.662 632.447C913.471 632.447 914.12 632.292 914.611 631.981C915.109 631.664 915.361 631.256 915.369 630.758C915.361 630.34 915.185 629.997 914.838 629.73C914.492 629.456 913.958 629.246 913.236 629.102L910.357 628.528C908.733 628.203 907.524 627.641 906.73 626.84C905.944 626.039 905.551 625.017 905.551 623.776C905.551 622.708 905.839 621.788 906.417 621.016C907.001 620.244 907.82 619.648 908.874 619.23C909.935 618.811 911.176 618.602 912.598 618.602C914.698 618.602 916.35 619.046 917.555 619.933C918.768 620.821 919.475 622.03 919.677 623.56ZM927.86 613.276L927.438 628.799H923.476L923.043 613.276H927.86ZM925.457 635.727C924.742 635.727 924.129 635.474 923.616 634.969C923.104 634.457 922.852 633.843 922.859 633.129C922.852 632.422 923.104 631.815 923.616 631.31C924.129 630.805 924.742 630.552 925.457 630.552C926.142 630.552 926.745 630.805 927.264 631.31C927.784 631.815 928.047 632.422 928.055 633.129C928.047 633.605 927.921 634.042 927.676 634.439C927.438 634.828 927.124 635.142 926.734 635.38C926.344 635.611 925.919 635.727 925.457 635.727Z" fill="#070707"/>
<path d="M669.857 670.115H672.11L676.614 677.696H676.804L681.308 670.115H683.56L677.692 679.663V686.355H675.726V679.663L669.857 670.115ZM689.447 686.609C688.347 686.609 687.382 686.348 686.552 685.824C685.728 685.301 685.083 684.569 684.617 683.628C684.157 682.687 683.928 681.587 683.928 680.329C683.928 679.06 684.157 677.952 684.617 677.006C685.083 676.06 685.728 675.325 686.552 674.801C687.382 674.278 688.347 674.016 689.447 674.016C690.546 674.016 691.509 674.278 692.333 674.801C693.163 675.325 693.808 676.06 694.268 677.006C694.733 677.952 694.966 679.06 694.966 680.329C694.966 681.587 694.733 682.687 694.268 683.628C693.808 684.569 693.163 685.301 692.333 685.824C691.509 686.348 690.546 686.609 689.447 686.609ZM689.447 684.928C690.282 684.928 690.969 684.714 691.509 684.286C692.048 683.858 692.447 683.294 692.706 682.597C692.965 681.899 693.095 681.143 693.095 680.329C693.095 679.515 692.965 678.756 692.706 678.053C692.447 677.35 692.048 676.781 691.509 676.348C690.969 675.914 690.282 675.698 689.447 675.698C688.612 675.698 687.924 675.914 687.385 676.348C686.846 676.781 686.447 677.35 686.188 678.053C685.929 678.756 685.799 679.515 685.799 680.329C685.799 681.143 685.929 681.899 686.188 682.597C686.447 683.294 686.846 683.858 687.385 684.286C687.924 684.714 688.612 684.928 689.447 684.928ZM705.87 681.375V674.175H707.742V686.355H705.87V684.294H705.743C705.458 684.912 705.014 685.438 704.411 685.872C703.808 686.3 703.047 686.514 702.127 686.514C701.366 686.514 700.689 686.348 700.097 686.014C699.505 685.676 699.04 685.169 698.701 684.492C698.363 683.81 698.194 682.951 698.194 681.915V674.175H700.065V681.788C700.065 682.676 700.314 683.384 700.811 683.913C701.313 684.442 701.953 684.706 702.73 684.706C703.195 684.706 703.668 684.587 704.149 684.349C704.636 684.111 705.043 683.747 705.371 683.255C705.704 682.763 705.87 682.137 705.87 681.375ZM711.54 686.355V674.175H713.348V676.015H713.475C713.697 675.412 714.099 674.923 714.681 674.548C715.262 674.172 715.918 673.985 716.647 673.985C716.785 673.985 716.957 673.987 717.163 673.993C717.369 673.998 717.525 674.006 717.631 674.016V675.92C717.567 675.904 717.422 675.88 717.195 675.848C716.972 675.811 716.737 675.793 716.489 675.793C715.897 675.793 715.368 675.917 714.903 676.165C714.443 676.409 714.078 676.747 713.808 677.18C713.544 677.609 713.412 678.098 713.412 678.648V686.355H711.54ZM727.792 686.355H725.73L731.693 670.115H733.723L739.687 686.355H737.625L732.772 672.684H732.645L727.792 686.355ZM728.553 680.011H736.864V681.756H728.553V680.011ZM750.01 681.375V674.175H751.881V686.355H750.01V684.294H749.883C749.598 684.912 749.153 685.438 748.551 685.872C747.948 686.3 747.187 686.514 746.267 686.514C745.506 686.514 744.829 686.348 744.237 686.014C743.645 685.676 743.18 685.169 742.841 684.492C742.503 683.81 742.334 682.951 742.334 681.915V674.175H744.205V681.788C744.205 682.676 744.454 683.384 744.951 683.913C745.453 684.442 746.092 684.706 746.87 684.706C747.335 684.706 747.808 684.587 748.289 684.349C748.775 684.111 749.183 683.747 749.51 683.255C749.843 682.763 750.01 682.137 750.01 681.375ZM760.977 674.175V675.761H754.665V674.175H760.977ZM756.505 671.257H758.376V682.866C758.376 683.395 758.453 683.791 758.606 684.056C758.765 684.315 758.966 684.489 759.209 684.579C759.457 684.664 759.719 684.706 759.994 684.706C760.2 684.706 760.369 684.695 760.502 684.674C760.634 684.648 760.739 684.627 760.819 684.611L761.199 686.292C761.073 686.34 760.895 686.387 760.668 686.435C760.441 686.488 760.153 686.514 759.804 686.514C759.275 686.514 758.757 686.4 758.249 686.173C757.747 685.946 757.33 685.599 756.997 685.134C756.669 684.669 756.505 684.082 756.505 683.374V671.257ZM768.981 686.609C767.881 686.609 766.917 686.348 766.087 685.824C765.262 685.301 764.617 684.569 764.152 683.628C763.692 682.687 763.462 681.587 763.462 680.329C763.462 679.06 763.692 677.952 764.152 677.006C764.617 676.06 765.262 675.325 766.087 674.801C766.917 674.278 767.881 674.016 768.981 674.016C770.081 674.016 771.043 674.278 771.868 674.801C772.698 675.325 773.343 676.06 773.803 677.006C774.268 677.952 774.5 679.06 774.5 680.329C774.5 681.587 774.268 682.687 773.803 683.628C773.343 684.569 772.698 685.301 771.868 685.824C771.043 686.348 770.081 686.609 768.981 686.609ZM768.981 684.928C769.816 684.928 770.504 684.714 771.043 684.286C771.582 683.858 771.981 683.294 772.24 682.597C772.499 681.899 772.629 681.143 772.629 680.329C772.629 679.515 772.499 678.756 772.24 678.053C771.981 677.35 771.582 676.781 771.043 676.348C770.504 675.914 769.816 675.698 768.981 675.698C768.146 675.698 767.459 675.914 766.919 676.348C766.38 676.781 765.981 677.35 765.722 678.053C765.463 678.756 765.333 679.515 765.333 680.329C765.333 681.143 765.463 681.899 765.722 682.597C765.981 683.294 766.38 683.858 766.919 684.286C767.459 684.714 768.146 684.928 768.981 684.928ZM791.051 675.19H789.084C788.968 674.624 788.764 674.127 788.473 673.699C788.188 673.271 787.839 672.911 787.427 672.621C787.019 672.325 786.567 672.103 786.071 671.955C785.574 671.807 785.056 671.733 784.516 671.733C783.533 671.733 782.642 671.981 781.844 672.478C781.051 672.975 780.419 673.707 779.949 674.675C779.483 675.642 779.251 676.829 779.251 678.235C779.251 679.641 779.483 680.828 779.949 681.796C780.419 682.763 781.051 683.495 781.844 683.992C782.642 684.489 783.533 684.738 784.516 684.738C785.056 684.738 785.574 684.664 786.071 684.516C786.567 684.368 787.019 684.148 787.427 683.858C787.839 683.561 788.188 683.199 788.473 682.771C788.764 682.338 788.968 681.841 789.084 681.28H791.051C790.903 682.11 790.633 682.853 790.242 683.509C789.851 684.164 789.364 684.722 788.783 685.182C788.201 685.636 787.548 685.983 786.824 686.221C786.105 686.459 785.336 686.578 784.516 686.578C783.131 686.578 781.899 686.239 780.821 685.562C779.742 684.886 778.894 683.924 778.275 682.676C777.657 681.428 777.348 679.948 777.348 678.235C777.348 676.522 777.657 675.042 778.275 673.794C778.894 672.547 779.742 671.585 780.821 670.908C781.899 670.231 783.131 669.893 784.516 669.893C785.336 669.893 786.105 670.012 786.824 670.25C787.548 670.488 788.201 670.836 788.783 671.296C789.364 671.751 789.851 672.306 790.242 672.962C790.633 673.612 790.903 674.355 791.051 675.19ZM796.217 679.028V686.355H794.346V670.115H796.217V676.078H796.376C796.661 675.449 797.09 674.95 797.661 674.579C798.237 674.204 799.003 674.016 799.96 674.016C800.79 674.016 801.517 674.183 802.141 674.516C802.765 674.844 803.249 675.349 803.592 676.031C803.941 676.707 804.116 677.569 804.116 678.616V686.355H802.244V678.743C802.244 677.775 801.993 677.027 801.491 676.498C800.994 675.965 800.304 675.698 799.421 675.698C798.808 675.698 798.258 675.827 797.772 676.086C797.291 676.345 796.91 676.723 796.63 677.22C796.355 677.717 796.217 678.32 796.217 679.028ZM813.017 686.609C811.844 686.609 810.831 686.35 809.98 685.832C809.134 685.309 808.481 684.579 808.021 683.643C807.567 682.702 807.339 681.608 807.339 680.36C807.339 679.113 807.567 678.013 808.021 677.062C808.481 676.105 809.121 675.359 809.941 674.825C810.765 674.286 811.727 674.016 812.827 674.016C813.461 674.016 814.088 674.122 814.706 674.334C815.325 674.545 815.888 674.889 816.396 675.365C816.903 675.835 817.307 676.459 817.609 677.236C817.91 678.013 818.061 678.97 818.061 680.107V680.9H808.672V679.282H816.158C816.158 678.595 816.02 677.981 815.745 677.442C815.476 676.903 815.09 676.477 814.587 676.165C814.091 675.854 813.504 675.698 812.827 675.698C812.082 675.698 811.437 675.883 810.892 676.253C810.353 676.617 809.938 677.093 809.647 677.68C809.356 678.267 809.211 678.896 809.211 679.567V680.646C809.211 681.566 809.37 682.346 809.687 682.985C810.009 683.62 810.456 684.103 811.027 684.436C811.598 684.764 812.261 684.928 813.017 684.928C813.509 684.928 813.953 684.859 814.35 684.722C814.751 684.579 815.098 684.368 815.388 684.087C815.679 683.802 815.904 683.448 816.062 683.025L817.87 683.532C817.68 684.146 817.36 684.685 816.911 685.15C816.462 685.61 815.907 685.97 815.246 686.229C814.585 686.482 813.842 686.609 813.017 686.609ZM826.227 686.609C825.085 686.609 824.102 686.34 823.277 685.8C822.452 685.261 821.818 684.518 821.374 683.572C820.93 682.626 820.708 681.545 820.708 680.329C820.708 679.092 820.935 678 821.39 677.054C821.85 676.102 822.489 675.359 823.309 674.825C824.134 674.286 825.096 674.016 826.195 674.016C827.052 674.016 827.824 674.175 828.511 674.492C829.198 674.809 829.761 675.253 830.2 675.824C830.639 676.395 830.911 677.062 831.017 677.823H829.145C829.003 677.268 828.685 676.776 828.194 676.348C827.707 675.914 827.052 675.698 826.227 675.698C825.498 675.698 824.858 675.888 824.308 676.269C823.763 676.644 823.338 677.175 823.031 677.862C822.73 678.544 822.579 679.345 822.579 680.265C822.579 681.206 822.727 682.026 823.023 682.724C823.325 683.421 823.748 683.963 824.292 684.349C824.842 684.735 825.487 684.928 826.227 684.928C826.713 684.928 827.155 684.843 827.551 684.674C827.948 684.505 828.284 684.262 828.558 683.945C828.833 683.628 829.029 683.247 829.145 682.803H831.017C830.911 683.522 830.649 684.169 830.232 684.746C829.819 685.317 829.272 685.771 828.59 686.11C827.914 686.443 827.126 686.609 826.227 686.609ZM835.868 681.915L835.837 679.599H836.217L841.546 674.175H843.862L838.184 679.916H838.025L835.868 681.915ZM834.124 686.355V670.115H835.995V686.355H834.124ZM841.863 686.355L837.105 680.329L838.438 679.028L844.242 686.355H841.863ZM856.878 686.641C856.106 686.641 855.405 686.496 854.776 686.205C854.147 685.909 853.647 685.483 853.277 684.928C852.907 684.368 852.722 683.691 852.722 682.898C852.722 682.2 852.86 681.634 853.135 681.201C853.409 680.762 853.777 680.419 854.237 680.17C854.697 679.922 855.204 679.737 855.759 679.615C856.32 679.488 856.883 679.388 857.448 679.314C858.189 679.218 858.789 679.147 859.249 679.1C859.714 679.047 860.052 678.959 860.264 678.838C860.48 678.716 860.589 678.505 860.589 678.203V678.14C860.589 677.358 860.375 676.75 859.946 676.316C859.523 675.883 858.881 675.666 858.019 675.666C857.126 675.666 856.426 675.861 855.918 676.253C855.41 676.644 855.054 677.062 854.847 677.506L853.071 676.871C853.388 676.131 853.811 675.555 854.34 675.142C854.874 674.725 855.455 674.434 856.085 674.27C856.719 674.101 857.343 674.016 857.956 674.016C858.347 674.016 858.797 674.064 859.304 674.159C859.817 674.249 860.311 674.437 860.787 674.722C861.268 675.008 861.667 675.439 861.984 676.015C862.302 676.591 862.46 677.363 862.46 678.33V686.355H860.589V684.706H860.494C860.367 684.97 860.155 685.253 859.859 685.555C859.563 685.856 859.169 686.112 858.678 686.324C858.186 686.535 857.586 686.641 856.878 686.641ZM857.163 684.96C857.903 684.96 858.527 684.814 859.034 684.524C859.547 684.233 859.933 683.858 860.192 683.398C860.457 682.938 860.589 682.454 860.589 681.946V680.234C860.509 680.329 860.335 680.416 860.065 680.495C859.801 680.569 859.494 680.635 859.145 680.693C858.802 680.746 858.466 680.794 858.138 680.836C857.816 680.873 857.554 680.905 857.353 680.931C856.867 680.995 856.412 681.098 855.989 681.241C855.572 681.378 855.233 681.587 854.974 681.867C854.721 682.142 854.594 682.517 854.594 682.993C854.594 683.643 854.834 684.135 855.315 684.468C855.802 684.796 856.418 684.96 857.163 684.96ZM871.195 686.609C870.054 686.609 869.07 686.34 868.246 685.8C867.421 685.261 866.786 684.518 866.342 683.572C865.898 682.626 865.676 681.545 865.676 680.329C865.676 679.092 865.904 678 866.358 677.054C866.818 676.102 867.458 675.359 868.277 674.825C869.102 674.286 870.064 674.016 871.164 674.016C872.02 674.016 872.792 674.175 873.479 674.492C874.167 674.809 874.73 675.253 875.168 675.824C875.607 676.395 875.879 677.062 875.985 677.823H874.114C873.971 677.268 873.654 676.776 873.162 676.348C872.676 675.914 872.02 675.698 871.195 675.698C870.466 675.698 869.826 675.888 869.276 676.269C868.732 676.644 868.306 677.175 868 677.862C867.698 678.544 867.548 679.345 867.548 680.265C867.548 681.206 867.696 682.026 867.992 682.724C868.293 683.421 868.716 683.963 869.261 684.349C869.81 684.735 870.455 684.928 871.195 684.928C871.682 684.928 872.123 684.843 872.52 684.674C872.916 684.505 873.252 684.262 873.527 683.945C873.802 683.628 873.997 683.247 874.114 682.803H875.985C875.879 683.522 875.618 684.169 875.2 684.746C874.788 685.317 874.241 685.771 873.559 686.11C872.882 686.443 872.094 686.609 871.195 686.609ZM884.04 686.609C882.898 686.609 881.915 686.34 881.09 685.8C880.266 685.261 879.631 684.518 879.187 683.572C878.743 682.626 878.521 681.545 878.521 680.329C878.521 679.092 878.748 678 879.203 677.054C879.663 676.102 880.303 675.359 881.122 674.825C881.947 674.286 882.909 674.016 884.009 674.016C884.865 674.016 885.637 674.175 886.324 674.492C887.012 674.809 887.575 675.253 888.013 675.824C888.452 676.395 888.724 677.062 888.83 677.823H886.959C886.816 677.268 886.499 676.776 886.007 676.348C885.521 675.914 884.865 675.698 884.04 675.698C883.311 675.698 882.671 675.888 882.121 676.269C881.577 676.644 881.151 677.175 880.845 677.862C880.543 678.544 880.393 679.345 880.393 680.265C880.393 681.206 880.541 682.026 880.837 682.724C881.138 683.421 881.561 683.963 882.105 684.349C882.655 684.735 883.3 684.928 884.04 684.928C884.527 684.928 884.968 684.843 885.365 684.674C885.761 684.505 886.097 684.262 886.372 683.945C886.647 683.628 886.842 683.247 886.959 682.803H888.83C888.724 683.522 888.463 684.169 888.045 684.746C887.633 685.317 887.086 685.771 886.404 686.11C885.727 686.443 884.939 686.609 884.04 686.609ZM896.885 686.609C895.786 686.609 894.821 686.348 893.991 685.824C893.166 685.301 892.521 684.569 892.056 683.628C891.596 682.687 891.366 681.587 891.366 680.329C891.366 679.06 891.596 677.952 892.056 677.006C892.521 676.06 893.166 675.325 893.991 674.801C894.821 674.278 895.786 674.016 896.885 674.016C897.985 674.016 898.947 674.278 899.772 674.801C900.602 675.325 901.247 676.06 901.707 677.006C902.172 677.952 902.405 679.06 902.405 680.329C902.405 681.587 902.172 682.687 901.707 683.628C901.247 684.569 900.602 685.301 899.772 685.824C898.947 686.348 897.985 686.609 896.885 686.609ZM896.885 684.928C897.721 684.928 898.408 684.714 898.947 684.286C899.486 683.858 899.886 683.294 900.145 682.597C900.404 681.899 900.533 681.143 900.533 680.329C900.533 679.515 900.404 678.756 900.145 678.053C899.886 677.35 899.486 676.781 898.947 676.348C898.408 675.914 897.721 675.698 896.885 675.698C896.05 675.698 895.363 675.914 894.824 676.348C894.284 676.781 893.885 677.35 893.626 678.053C893.367 678.756 893.238 679.515 893.238 680.329C893.238 681.143 893.367 681.899 893.626 682.597C893.885 683.294 894.284 683.858 894.824 684.286C895.363 684.714 896.05 684.928 896.885 684.928ZM913.309 681.375V674.175H915.18V686.355H913.309V684.294H913.182C912.896 684.912 912.452 685.438 911.85 685.872C911.247 686.3 910.486 686.514 909.566 686.514C908.804 686.514 908.128 686.348 907.536 686.014C906.944 685.676 906.478 685.169 906.14 684.492C905.802 683.81 905.632 682.951 905.632 681.915V674.175H907.504V681.788C907.504 682.676 907.752 683.384 908.249 683.913C908.752 684.442 909.391 684.706 910.168 684.706C910.634 684.706 911.107 684.587 911.588 684.349C912.074 684.111 912.481 683.747 912.809 683.255C913.142 682.763 913.309 682.137 913.309 681.375ZM920.85 679.028V686.355H918.979V674.175H920.787V676.078H920.946C921.231 675.46 921.665 674.963 922.246 674.587C922.828 674.207 923.578 674.016 924.498 674.016C925.323 674.016 926.045 674.186 926.663 674.524C927.282 674.857 927.763 675.365 928.106 676.046C928.45 676.723 928.622 677.58 928.622 678.616V686.355H926.75V678.743C926.75 677.786 926.502 677.04 926.005 676.506C925.508 675.967 924.826 675.698 923.959 675.698C923.362 675.698 922.828 675.827 922.357 676.086C921.892 676.345 921.525 676.723 921.255 677.22C920.985 677.717 920.85 678.32 920.85 679.028ZM937.71 674.175V675.761H931.398V674.175H937.71ZM933.237 671.257H935.109V682.866C935.109 683.395 935.186 683.791 935.339 684.056C935.498 684.315 935.698 684.489 935.942 684.579C936.19 684.664 936.452 684.706 936.727 684.706C936.933 684.706 937.102 684.695 937.234 684.674C937.366 684.648 937.472 684.627 937.551 684.611L937.932 686.292C937.805 686.34 937.628 686.387 937.401 686.435C937.173 686.488 936.885 686.514 936.536 686.514C936.008 686.514 935.49 686.4 934.982 686.173C934.48 685.946 934.062 685.599 933.729 685.134C933.401 684.669 933.237 684.082 933.237 683.374V671.257ZM949.419 679.028V686.355H947.548V670.115H949.419V676.078H949.578C949.863 675.449 950.292 674.95 950.863 674.579C951.439 674.204 952.205 674.016 953.162 674.016C953.992 674.016 954.719 674.183 955.343 674.516C955.967 674.844 956.451 675.349 956.794 676.031C957.143 676.707 957.318 677.569 957.318 678.616V686.355H955.446V678.743C955.446 677.775 955.195 677.027 954.693 676.498C954.196 675.965 953.506 675.698 952.623 675.698C952.01 675.698 951.46 675.827 950.974 676.086C950.493 676.345 950.112 676.723 949.832 677.22C949.557 677.717 949.419 678.32 949.419 679.028ZM964.697 686.641C963.925 686.641 963.224 686.496 962.595 686.205C961.966 685.909 961.467 685.483 961.097 684.928C960.727 684.368 960.541 683.691 960.541 682.898C960.541 682.2 960.679 681.634 960.954 681.201C961.229 680.762 961.596 680.419 962.056 680.17C962.516 679.922 963.024 679.737 963.579 679.615C964.139 679.488 964.702 679.388 965.268 679.314C966.008 679.218 966.608 679.147 967.068 679.1C967.533 679.047 967.871 678.959 968.083 678.838C968.3 678.716 968.408 678.505 968.408 678.203V678.14C968.408 677.358 968.194 676.75 967.766 676.316C967.343 675.883 966.7 675.666 965.839 675.666C964.945 675.666 964.245 675.861 963.737 676.253C963.23 676.644 962.873 677.062 962.667 677.506L960.89 676.871C961.208 676.131 961.631 675.555 962.159 675.142C962.693 674.725 963.275 674.434 963.904 674.27C964.538 674.101 965.162 674.016 965.775 674.016C966.166 674.016 966.616 674.064 967.123 674.159C967.636 674.249 968.13 674.437 968.606 674.722C969.087 675.008 969.487 675.439 969.804 676.015C970.121 676.591 970.28 677.363 970.28 678.33V686.355H968.408V684.706H968.313C968.186 684.97 967.975 685.253 967.678 685.555C967.382 685.856 966.989 686.112 966.497 686.324C966.005 686.535 965.405 686.641 964.697 686.641ZM964.982 684.96C965.722 684.96 966.346 684.814 966.854 684.524C967.367 684.233 967.752 683.858 968.012 683.398C968.276 682.938 968.408 682.454 968.408 681.946V680.234C968.329 680.329 968.154 680.416 967.885 680.495C967.62 680.569 967.314 680.635 966.965 680.693C966.621 680.746 966.285 680.794 965.958 680.836C965.635 680.873 965.373 680.905 965.173 680.931C964.686 680.995 964.232 681.098 963.809 681.241C963.391 681.378 963.053 681.587 962.794 681.867C962.54 682.142 962.413 682.517 962.413 682.993C962.413 683.643 962.654 684.135 963.135 684.468C963.621 684.796 964.237 684.96 964.982 684.96ZM983.59 674.175L979.086 686.355H977.183L972.679 674.175H974.709L978.071 683.881H978.198L981.56 674.175H983.59ZM991.102 686.609C989.929 686.609 988.916 686.35 988.065 685.832C987.219 685.309 986.566 684.579 986.106 683.643C985.652 682.702 985.424 681.608 985.424 680.36C985.424 679.113 985.652 678.013 986.106 677.062C986.566 676.105 987.206 675.359 988.026 674.825C988.85 674.286 989.812 674.016 990.912 674.016C991.546 674.016 992.173 674.122 992.791 674.334C993.41 674.545 993.973 674.889 994.481 675.365C994.988 675.835 995.392 676.459 995.694 677.236C995.995 678.013 996.146 678.97 996.146 680.107V680.9H986.757V679.282H994.243C994.243 678.595 994.105 677.981 993.83 677.442C993.561 676.903 993.175 676.477 992.672 676.165C992.176 675.854 991.589 675.698 990.912 675.698C990.167 675.698 989.522 675.883 988.977 676.253C988.438 676.617 988.023 677.093 987.732 677.68C987.441 678.267 987.296 678.896 987.296 679.567V680.646C987.296 681.566 987.455 682.346 987.772 682.985C988.094 683.62 988.541 684.103 989.112 684.436C989.683 684.764 990.346 684.928 991.102 684.928C991.594 684.928 992.038 684.859 992.435 684.722C992.836 684.579 993.183 684.368 993.473 684.087C993.764 683.802 993.989 683.448 994.147 683.025L995.956 683.532C995.765 684.146 995.445 684.685 994.996 685.15C994.547 685.61 993.992 685.97 993.331 686.229C992.67 686.482 991.927 686.609 991.102 686.609ZM1006.27 686.355V670.115H1008.14V676.11H1008.3C1008.44 675.898 1008.63 675.629 1008.87 675.301C1009.12 674.968 1009.47 674.672 1009.93 674.413C1010.4 674.149 1011.03 674.016 1011.82 674.016C1012.85 674.016 1013.75 674.273 1014.53 674.786C1015.31 675.298 1015.93 676.025 1016.36 676.966C1016.8 677.907 1017.02 679.018 1017.02 680.297C1017.02 681.587 1016.8 682.705 1016.36 683.651C1015.93 684.592 1015.32 685.322 1014.54 685.84C1013.76 686.353 1012.87 686.609 1011.85 686.609C1011.07 686.609 1010.44 686.48 1009.97 686.221C1009.5 685.956 1009.14 685.658 1008.89 685.325C1008.63 684.986 1008.44 684.706 1008.3 684.484H1008.08V686.355H1006.27ZM1008.11 680.265C1008.11 681.185 1008.24 681.997 1008.51 682.7C1008.78 683.398 1009.18 683.945 1009.69 684.341C1010.21 684.732 1010.85 684.928 1011.6 684.928C1012.38 684.928 1013.03 684.722 1013.56 684.31C1014.09 683.892 1014.48 683.332 1014.75 682.628C1015.02 681.92 1015.15 681.132 1015.15 680.265C1015.15 679.409 1015.02 678.637 1014.75 677.95C1014.5 677.257 1014.1 676.71 1013.57 676.308C1013.05 675.901 1012.39 675.698 1011.6 675.698C1010.84 675.698 1010.2 675.891 1009.68 676.276C1009.16 676.657 1008.77 677.191 1008.51 677.878C1008.24 678.56 1008.11 679.356 1008.11 680.265ZM1025.36 686.609C1024.19 686.609 1023.18 686.35 1022.33 685.832C1021.48 685.309 1020.83 684.579 1020.37 683.643C1019.91 682.702 1019.69 681.608 1019.69 680.36C1019.69 679.113 1019.91 678.013 1020.37 677.062C1020.83 676.105 1021.47 675.359 1022.29 674.825C1023.11 674.286 1024.07 674.016 1025.17 674.016C1025.81 674.016 1026.43 674.122 1027.05 674.334C1027.67 674.545 1028.23 674.889 1028.74 675.365C1029.25 675.835 1029.65 676.459 1029.95 677.236C1030.26 678.013 1030.41 678.97 1030.41 680.107V680.9H1021.02V679.282H1028.5C1028.5 678.595 1028.37 677.981 1028.09 677.442C1027.82 676.903 1027.44 676.477 1026.93 676.165C1026.44 675.854 1025.85 675.698 1025.17 675.698C1024.43 675.698 1023.78 675.883 1023.24 676.253C1022.7 676.617 1022.28 677.093 1021.99 677.68C1021.7 678.267 1021.56 678.896 1021.56 679.567V680.646C1021.56 681.566 1021.72 682.346 1022.03 682.985C1022.35 683.62 1022.8 684.103 1023.37 684.436C1023.94 684.764 1024.61 684.928 1025.36 684.928C1025.85 684.928 1026.3 684.859 1026.7 684.722C1027.1 684.579 1027.44 684.368 1027.73 684.087C1028.02 683.802 1028.25 683.448 1028.41 683.025L1030.22 683.532C1030.03 684.146 1029.71 684.685 1029.26 685.15C1028.81 685.61 1028.25 685.97 1027.59 686.229C1026.93 686.482 1026.19 686.609 1025.36 686.609ZM1038.73 686.609C1037.56 686.609 1036.55 686.35 1035.69 685.832C1034.85 685.309 1034.2 684.579 1033.74 683.643C1033.28 682.702 1033.05 681.608 1033.05 680.36C1033.05 679.113 1033.28 678.013 1033.74 677.062C1034.2 676.105 1034.83 675.359 1035.65 674.825C1036.48 674.286 1037.44 674.016 1038.54 674.016C1039.18 674.016 1039.8 674.122 1040.42 674.334C1041.04 674.545 1041.6 674.889 1042.11 675.365C1042.62 675.835 1043.02 676.459 1043.32 677.236C1043.62 678.013 1043.77 678.97 1043.77 680.107V680.9H1034.39V679.282H1041.87C1041.87 678.595 1041.73 677.981 1041.46 677.442C1041.19 676.903 1040.8 676.477 1040.3 676.165C1039.8 675.854 1039.22 675.698 1038.54 675.698C1037.8 675.698 1037.15 675.883 1036.61 676.253C1036.07 676.617 1035.65 677.093 1035.36 677.68C1035.07 678.267 1034.92 678.896 1034.92 679.567V680.646C1034.92 681.566 1035.08 682.346 1035.4 682.985C1035.72 683.62 1036.17 684.103 1036.74 684.436C1037.31 684.764 1037.98 684.928 1038.73 684.928C1039.22 684.928 1039.67 684.859 1040.06 684.722C1040.47 684.579 1040.81 684.368 1041.1 684.087C1041.39 683.802 1041.62 683.448 1041.78 683.025L1043.58 683.532C1043.39 684.146 1043.07 684.685 1042.62 685.15C1042.18 685.61 1041.62 685.97 1040.96 686.229C1040.3 686.482 1039.56 686.609 1038.73 686.609ZM1048.86 679.028V686.355H1046.99V674.175H1048.8V676.078H1048.96C1049.24 675.46 1049.68 674.963 1050.26 674.587C1050.84 674.207 1051.59 674.016 1052.51 674.016C1053.34 674.016 1054.06 674.186 1054.68 674.524C1055.3 674.857 1055.78 675.365 1056.12 676.046C1056.46 676.723 1056.64 677.58 1056.64 678.616V686.355H1054.76V678.743C1054.76 677.786 1054.52 677.04 1054.02 676.506C1053.52 675.967 1052.84 675.698 1051.97 675.698C1051.38 675.698 1050.84 675.827 1050.37 676.086C1049.91 676.345 1049.54 676.723 1049.27 677.22C1049 677.717 1048.86 678.32 1048.86 679.028ZM694.62 706.903L692.939 707.379C692.833 707.099 692.677 706.826 692.471 706.562C692.27 706.292 691.995 706.07 691.646 705.896C691.297 705.721 690.85 705.634 690.306 705.634C689.56 705.634 688.939 705.806 688.442 706.15C687.951 706.488 687.705 706.919 687.705 707.442C687.705 707.907 687.874 708.275 688.212 708.544C688.551 708.814 689.079 709.039 689.798 709.218L691.606 709.663C692.695 709.927 693.507 710.331 694.041 710.876C694.575 711.415 694.842 712.11 694.842 712.961C694.842 713.659 694.641 714.283 694.239 714.833C693.843 715.383 693.288 715.816 692.574 716.133C691.86 716.451 691.03 716.609 690.084 716.609C688.841 716.609 687.813 716.34 686.999 715.8C686.185 715.261 685.669 714.473 685.453 713.437L687.229 712.993C687.398 713.649 687.718 714.14 688.189 714.468C688.664 714.796 689.286 714.96 690.052 714.96C690.924 714.96 691.617 714.775 692.13 714.405C692.648 714.029 692.907 713.58 692.907 713.057C692.907 712.634 692.759 712.279 692.463 711.994C692.167 711.703 691.712 711.486 691.099 711.344L689.069 710.868C687.953 710.604 687.134 710.194 686.61 709.639C686.092 709.078 685.833 708.378 685.833 707.537C685.833 706.85 686.026 706.242 686.412 705.713C686.803 705.185 687.335 704.77 688.006 704.468C688.683 704.167 689.449 704.016 690.306 704.016C691.511 704.016 692.458 704.281 693.145 704.809C693.837 705.338 694.329 706.036 694.62 706.903ZM705.706 711.375V704.175H707.578V716.355H705.706V714.294H705.579C705.294 714.912 704.85 715.438 704.247 715.872C703.644 716.3 702.883 716.514 701.963 716.514C701.202 716.514 700.525 716.348 699.933 716.014C699.341 715.676 698.876 715.169 698.538 714.492C698.199 713.81 698.03 712.951 698.03 711.915V704.175H699.901V711.788C699.901 712.676 700.15 713.384 700.647 713.913C701.149 714.442 701.789 714.706 702.566 714.706C703.031 714.706 703.504 714.587 703.985 714.349C704.472 714.111 704.879 713.747 705.207 713.255C705.54 712.763 705.706 712.137 705.706 711.375ZM716.325 716.609C715.183 716.609 714.2 716.34 713.375 715.8C712.55 715.261 711.916 714.518 711.472 713.572C711.028 712.626 710.806 711.545 710.806 710.329C710.806 709.092 711.033 708 711.488 707.054C711.947 706.102 712.587 705.359 713.407 704.825C714.231 704.286 715.194 704.016 716.293 704.016C717.15 704.016 717.921 704.175 718.609 704.492C719.296 704.809 719.859 705.253 720.298 705.824C720.737 706.395 721.009 707.062 721.115 707.823H719.243C719.1 707.268 718.783 706.776 718.291 706.348C717.805 705.914 717.15 705.698 716.325 705.698C715.595 705.698 714.956 705.888 714.406 706.269C713.861 706.644 713.436 707.175 713.129 707.862C712.828 708.544 712.677 709.345 712.677 710.265C712.677 711.206 712.825 712.026 713.121 712.724C713.422 713.421 713.845 713.963 714.39 714.349C714.94 714.735 715.585 714.928 716.325 714.928C716.811 714.928 717.253 714.843 717.649 714.674C718.046 714.505 718.381 714.262 718.656 713.945C718.931 713.628 719.127 713.247 719.243 712.803H721.115C721.009 713.522 720.747 714.169 720.329 714.746C719.917 715.317 719.37 715.771 718.688 716.11C718.011 716.443 717.224 716.609 716.325 716.609ZM729.17 716.609C728.028 716.609 727.045 716.34 726.22 715.8C725.395 715.261 724.761 714.518 724.317 713.572C723.873 712.626 723.651 711.545 723.651 710.329C723.651 709.092 723.878 708 724.333 707.054C724.792 706.102 725.432 705.359 726.252 704.825C727.076 704.286 728.038 704.016 729.138 704.016C729.995 704.016 730.766 704.175 731.454 704.492C732.141 704.809 732.704 705.253 733.143 705.824C733.582 706.395 733.854 707.062 733.96 707.823H732.088C731.945 707.268 731.628 706.776 731.136 706.348C730.65 705.914 729.995 705.698 729.17 705.698C728.44 705.698 727.801 705.888 727.251 706.269C726.706 706.644 726.281 707.175 725.974 707.862C725.673 708.544 725.522 709.345 725.522 710.265C725.522 711.206 725.67 712.026 725.966 712.724C726.267 713.421 726.69 713.963 727.235 714.349C727.785 714.735 728.43 714.928 729.17 714.928C729.656 714.928 730.098 714.843 730.494 714.674C730.891 714.505 731.226 714.262 731.501 713.945C731.776 713.628 731.972 713.247 732.088 712.803H733.96C733.854 713.522 733.592 714.169 733.174 714.746C732.762 715.317 732.215 715.771 731.533 716.11C730.856 716.443 730.069 716.609 729.17 716.609ZM742.173 716.609C741 716.609 739.987 716.35 739.136 715.832C738.29 715.309 737.637 714.579 737.177 713.643C736.723 712.702 736.495 711.608 736.495 710.36C736.495 709.113 736.723 708.013 737.177 707.062C737.637 706.105 738.277 705.359 739.097 704.825C739.921 704.286 740.883 704.016 741.983 704.016C742.617 704.016 743.244 704.122 743.862 704.334C744.481 704.545 745.044 704.889 745.552 705.365C746.059 705.835 746.463 706.459 746.765 707.236C747.066 708.013 747.217 708.97 747.217 710.107V710.9H737.828V709.282H745.314C745.314 708.595 745.176 707.981 744.901 707.442C744.632 706.903 744.246 706.477 743.743 706.165C743.247 705.854 742.66 705.698 741.983 705.698C741.238 705.698 740.593 705.883 740.048 706.253C739.509 706.617 739.094 707.093 738.803 707.68C738.512 708.267 738.367 708.896 738.367 709.567V710.646C738.367 711.566 738.526 712.346 738.843 712.985C739.165 713.62 739.612 714.103 740.183 714.436C740.754 714.764 741.417 714.928 742.173 714.928C742.665 714.928 743.109 714.859 743.506 714.722C743.907 714.579 744.254 714.368 744.544 714.087C744.835 713.802 745.06 713.448 745.218 713.025L747.026 713.532C746.836 714.146 746.516 714.685 746.067 715.15C745.618 715.61 745.063 715.97 744.402 716.229C743.741 716.482 742.998 716.609 742.173 716.609ZM759.063 706.903L757.381 707.379C757.276 707.099 757.12 706.826 756.914 706.562C756.713 706.292 756.438 706.07 756.089 705.896C755.74 705.721 755.293 705.634 754.749 705.634C754.003 705.634 753.382 705.806 752.885 706.15C752.393 706.488 752.148 706.919 752.148 707.442C752.148 707.907 752.317 708.275 752.655 708.544C752.993 708.814 753.522 709.039 754.241 709.218L756.049 709.663C757.138 709.927 757.95 710.331 758.484 710.876C759.018 711.415 759.285 712.11 759.285 712.961C759.285 713.659 759.084 714.283 758.682 714.833C758.285 715.383 757.73 715.816 757.017 716.133C756.303 716.451 755.473 716.609 754.527 716.609C753.284 716.609 752.256 716.34 751.442 715.8C750.628 715.261 750.112 714.473 749.896 713.437L751.672 712.993C751.841 713.649 752.161 714.14 752.631 714.468C753.107 714.796 753.728 714.96 754.495 714.96C755.367 714.96 756.06 714.775 756.573 714.405C757.091 714.029 757.35 713.58 757.35 713.057C757.35 712.634 757.202 712.279 756.906 711.994C756.61 711.703 756.155 711.486 755.542 711.344L753.512 710.868C752.396 710.604 751.577 710.194 751.053 709.639C750.535 709.078 750.276 708.378 750.276 707.537C750.276 706.85 750.469 706.242 750.855 705.713C751.246 705.185 751.778 704.77 752.449 704.468C753.126 704.167 753.892 704.016 754.749 704.016C755.954 704.016 756.9 704.281 757.588 704.809C758.28 705.338 758.772 706.036 759.063 706.903ZM771.101 706.903L769.419 707.379C769.314 707.099 769.158 706.826 768.952 706.562C768.751 706.292 768.476 706.07 768.127 705.896C767.778 705.721 767.331 705.634 766.787 705.634C766.041 705.634 765.42 705.806 764.923 706.15C764.432 706.488 764.186 706.919 764.186 707.442C764.186 707.907 764.355 708.275 764.693 708.544C765.032 708.814 765.56 709.039 766.279 709.218L768.087 709.663C769.176 709.927 769.988 710.331 770.522 710.876C771.056 711.415 771.323 712.11 771.323 712.961C771.323 713.659 771.122 714.283 770.72 714.833C770.324 715.383 769.768 715.816 769.055 716.133C768.341 716.451 767.511 716.609 766.565 716.609C765.322 716.609 764.294 716.34 763.48 715.8C762.666 715.261 762.15 714.473 761.934 713.437L763.71 712.993C763.879 713.649 764.199 714.14 764.669 714.468C765.145 714.796 765.766 714.96 766.533 714.96C767.405 714.96 768.098 714.775 768.611 714.405C769.129 714.029 769.388 713.58 769.388 713.057C769.388 712.634 769.24 712.279 768.944 711.994C768.648 711.703 768.193 711.486 767.58 711.344L765.55 710.868C764.434 710.604 763.615 710.194 763.091 709.639C762.573 709.078 762.314 708.378 762.314 707.537C762.314 706.85 762.507 706.242 762.893 705.713C763.284 705.185 763.816 704.77 764.487 704.468C765.164 704.167 765.93 704.016 766.787 704.016C767.992 704.016 768.938 704.281 769.626 704.809C770.318 705.338 770.81 706.036 771.101 706.903ZM779.935 704.175V705.761H773.369V704.175H779.935ZM775.336 716.355V702.494C775.336 701.796 775.5 701.214 775.827 700.749C776.155 700.284 776.581 699.935 777.104 699.702C777.627 699.47 778.18 699.354 778.761 699.354C779.221 699.354 779.597 699.391 779.887 699.465C780.178 699.539 780.395 699.607 780.538 699.671L779.998 701.288C779.903 701.257 779.771 701.217 779.602 701.17C779.438 701.122 779.221 701.098 778.952 701.098C778.333 701.098 777.886 701.254 777.612 701.566C777.342 701.878 777.207 702.335 777.207 702.938V716.355H775.336ZM790.605 711.375V704.175H792.477V716.355H790.605V714.294H790.478C790.193 714.912 789.749 715.438 789.146 715.872C788.543 716.3 787.782 716.514 786.862 716.514C786.101 716.514 785.424 716.348 784.832 716.014C784.24 715.676 783.775 715.169 783.436 714.492C783.098 713.81 782.929 712.951 782.929 711.915V704.175H784.8V711.788C784.8 712.676 785.049 713.384 785.546 713.913C786.048 714.442 786.688 714.706 787.465 714.706C787.93 714.706 788.403 714.587 788.884 714.349C789.371 714.111 789.778 713.747 790.106 713.255C790.439 712.763 790.605 712.137 790.605 711.375ZM798.147 700.115V716.355H796.275V700.115H798.147ZM803.817 700.115V716.355H801.946V700.115H803.817ZM808.821 720.923C808.504 720.923 808.221 720.897 807.973 720.844C807.724 720.796 807.553 720.749 807.457 720.701L807.933 719.052C808.388 719.168 808.79 719.21 809.139 719.179C809.488 719.147 809.797 718.991 810.066 718.711C810.341 718.436 810.592 717.989 810.82 717.371L811.169 716.419L806.664 704.175H808.695L812.057 713.881H812.184L815.546 704.175H817.576L812.406 718.132C812.173 718.761 811.885 719.282 811.541 719.694C811.198 720.112 810.799 720.421 810.344 720.622C809.895 720.823 809.387 720.923 808.821 720.923ZM832.017 716.609C830.875 716.609 829.892 716.34 829.067 715.8C828.243 715.261 827.608 714.518 827.164 713.572C826.72 712.626 826.498 711.545 826.498 710.329C826.498 709.092 826.725 708 827.18 707.054C827.64 706.102 828.28 705.359 829.099 704.825C829.924 704.286 830.886 704.016 831.986 704.016C832.842 704.016 833.614 704.175 834.301 704.492C834.988 704.809 835.551 705.253 835.99 705.824C836.429 706.395 836.701 707.062 836.807 707.823H834.936C834.793 707.268 834.476 706.776 833.984 706.348C833.498 705.914 832.842 705.698 832.017 705.698C831.288 705.698 830.648 705.888 830.098 706.269C829.554 706.644 829.128 707.175 828.822 707.862C828.52 708.544 828.37 709.345 828.37 710.265C828.37 711.206 828.518 712.026 828.814 712.724C829.115 713.421 829.538 713.963 830.082 714.349C830.632 714.735 831.277 714.928 832.017 714.928C832.504 714.928 832.945 714.843 833.342 714.674C833.738 714.505 834.074 714.262 834.349 713.945C834.624 713.628 834.819 713.247 834.936 712.803H836.807C836.701 713.522 836.44 714.169 836.022 714.746C835.61 715.317 835.062 715.771 834.38 716.11C833.704 716.443 832.916 716.609 832.017 716.609ZM844.862 716.609C843.763 716.609 842.798 716.348 841.968 715.824C841.143 715.301 840.498 714.569 840.033 713.628C839.573 712.687 839.343 711.587 839.343 710.329C839.343 709.06 839.573 707.952 840.033 707.006C840.498 706.06 841.143 705.325 841.968 704.801C842.798 704.278 843.763 704.016 844.862 704.016C845.962 704.016 846.924 704.278 847.749 704.801C848.579 705.325 849.224 706.06 849.684 707.006C850.149 707.952 850.382 709.06 850.382 710.329C850.382 711.587 850.149 712.687 849.684 713.628C849.224 714.569 848.579 715.301 847.749 715.824C846.924 716.348 845.962 716.609 844.862 716.609ZM844.862 714.928C845.698 714.928 846.385 714.714 846.924 714.286C847.463 713.858 847.862 713.294 848.121 712.597C848.381 711.899 848.51 711.143 848.51 710.329C848.51 709.515 848.381 708.756 848.121 708.053C847.862 707.35 847.463 706.781 846.924 706.348C846.385 705.914 845.698 705.698 844.862 705.698C844.027 705.698 843.34 705.914 842.8 706.348C842.261 706.781 841.862 707.35 841.603 708.053C841.344 708.756 841.214 709.515 841.214 710.329C841.214 711.143 841.344 711.899 841.603 712.597C841.862 713.294 842.261 713.858 842.8 714.286C843.34 714.714 844.027 714.928 844.862 714.928ZM855.481 709.028V716.355H853.609V704.175H855.417V706.078H855.576C855.861 705.46 856.295 704.963 856.877 704.587C857.458 704.207 858.209 704.016 859.129 704.016C859.953 704.016 860.675 704.186 861.294 704.524C861.912 704.857 862.393 705.365 862.737 706.046C863.08 706.723 863.252 707.58 863.252 708.616V716.355H861.381V708.743C861.381 707.786 861.132 707.04 860.635 706.506C860.138 705.967 859.456 705.698 858.589 705.698C857.992 705.698 857.458 705.827 856.988 706.086C856.522 706.345 856.155 706.723 855.885 707.22C855.616 707.717 855.481 708.32 855.481 709.028ZM868.915 709.028V716.355H867.043V704.175H868.851V706.078H869.01C869.295 705.46 869.729 704.963 870.31 704.587C870.892 704.207 871.643 704.016 872.562 704.016C873.387 704.016 874.109 704.186 874.727 704.524C875.346 704.857 875.827 705.365 876.171 706.046C876.514 706.723 876.686 707.58 876.686 708.616V716.355H874.815V708.743C874.815 707.786 874.566 707.04 874.069 706.506C873.572 705.967 872.89 705.698 872.023 705.698C871.426 705.698 870.892 705.827 870.421 706.086C869.956 706.345 869.589 706.723 869.319 707.22C869.049 707.717 868.915 708.32 868.915 709.028ZM885.584 716.609C884.41 716.609 883.398 716.35 882.547 715.832C881.701 715.309 881.048 714.579 880.588 713.643C880.133 712.702 879.906 711.608 879.906 710.36C879.906 709.113 880.133 708.013 880.588 707.062C881.048 706.105 881.688 705.359 882.507 704.825C883.332 704.286 884.294 704.016 885.393 704.016C886.028 704.016 886.654 704.122 887.273 704.334C887.891 704.545 888.454 704.889 888.962 705.365C889.469 705.835 889.874 706.459 890.175 707.236C890.477 708.013 890.627 708.97 890.627 710.107V710.9H881.238V709.282H888.724C888.724 708.595 888.587 707.981 888.312 707.442C888.042 706.903 887.656 706.477 887.154 706.165C886.657 705.854 886.07 705.698 885.393 705.698C884.648 705.698 884.003 705.883 883.459 706.253C882.919 706.617 882.504 707.093 882.214 707.68C881.923 708.267 881.777 708.896 881.777 709.567V710.646C881.777 711.566 881.936 712.346 882.253 712.985C882.576 713.62 883.022 714.103 883.593 714.436C884.164 714.764 884.828 714.928 885.584 714.928C886.075 714.928 886.52 714.859 886.916 714.722C887.318 714.579 887.664 714.368 887.955 714.087C888.246 713.802 888.47 713.448 888.629 713.025L890.437 713.532C890.247 714.146 889.927 714.685 889.477 715.15C889.028 715.61 888.473 715.97 887.812 716.229C887.151 716.482 886.409 716.609 885.584 716.609ZM898.794 716.609C897.652 716.609 896.668 716.34 895.844 715.8C895.019 715.261 894.384 714.518 893.94 713.572C893.496 712.626 893.274 711.545 893.274 710.329C893.274 709.092 893.502 708 893.956 707.054C894.416 706.102 895.056 705.359 895.875 704.825C896.7 704.286 897.662 704.016 898.762 704.016C899.618 704.016 900.39 704.175 901.077 704.492C901.765 704.809 902.328 705.253 902.766 705.824C903.205 706.395 903.477 707.062 903.583 707.823H901.712C901.569 707.268 901.252 706.776 900.76 706.348C900.274 705.914 899.618 705.698 898.794 705.698C898.064 705.698 897.424 705.888 896.874 706.269C896.33 706.644 895.904 707.175 895.598 707.862C895.296 708.544 895.146 709.345 895.146 710.265C895.146 711.206 895.294 712.026 895.59 712.724C895.891 713.421 896.314 713.963 896.859 714.349C897.408 714.735 898.053 714.928 898.794 714.928C899.28 714.928 899.721 714.843 900.118 714.674C900.514 714.505 900.85 714.262 901.125 713.945C901.4 713.628 901.595 713.247 901.712 712.803H903.583C903.477 713.522 903.216 714.169 902.798 714.746C902.386 715.317 901.839 715.771 901.157 716.11C900.48 716.443 899.692 716.609 898.794 716.609ZM911.987 704.175V705.761H905.675V704.175H911.987ZM907.515 701.257H909.386V712.866C909.386 713.395 909.463 713.791 909.616 714.056C909.775 714.315 909.976 714.489 910.219 714.579C910.467 714.664 910.729 714.706 911.004 714.706C911.21 714.706 911.379 714.695 911.512 714.674C911.644 714.648 911.75 714.627 911.829 714.611L912.209 716.292C912.083 716.34 911.905 716.387 911.678 716.435C911.451 716.488 911.163 716.514 910.814 716.514C910.285 716.514 909.767 716.4 909.259 716.173C908.757 715.946 908.34 715.599 908.007 715.134C907.679 714.669 907.515 714.082 907.515 713.374V701.257ZM920.15 716.609C918.976 716.609 917.964 716.35 917.112 715.832C916.267 715.309 915.614 714.579 915.154 713.643C914.699 712.702 914.472 711.608 914.472 710.36C914.472 709.113 914.699 708.013 915.154 707.062C915.614 706.105 916.253 705.359 917.073 704.825C917.898 704.286 918.86 704.016 919.959 704.016C920.594 704.016 921.22 704.122 921.839 704.334C922.457 704.545 923.02 704.889 923.528 705.365C924.035 705.835 924.44 706.459 924.741 707.236C925.042 708.013 925.193 708.97 925.193 710.107V710.9H915.804V709.282H923.29C923.29 708.595 923.153 707.981 922.878 707.442C922.608 706.903 922.222 706.477 921.72 706.165C921.223 705.854 920.636 705.698 919.959 705.698C919.214 705.698 918.569 705.883 918.024 706.253C917.485 706.617 917.07 707.093 916.779 707.68C916.489 708.267 916.343 708.896 916.343 709.567V710.646C916.343 711.566 916.502 712.346 916.819 712.985C917.142 713.62 917.588 714.103 918.159 714.436C918.73 714.764 919.394 714.928 920.15 714.928C920.641 714.928 921.085 714.859 921.482 714.722C921.884 714.579 922.23 714.368 922.521 714.087C922.812 713.802 923.036 713.448 923.195 713.025L925.003 713.532C924.813 714.146 924.493 714.685 924.043 715.15C923.594 715.61 923.039 715.97 922.378 716.229C921.717 716.482 920.974 716.609 920.15 716.609ZM933.01 716.609C931.995 716.609 931.099 716.353 930.322 715.84C929.545 715.322 928.937 714.592 928.498 713.651C928.06 712.705 927.84 711.587 927.84 710.297C927.84 709.018 928.06 707.907 928.498 706.966C928.937 706.025 929.548 705.298 930.33 704.786C931.113 704.273 932.017 704.016 933.042 704.016C933.835 704.016 934.462 704.149 934.922 704.413C935.387 704.672 935.741 704.968 935.984 705.301C936.233 705.629 936.426 705.898 936.563 706.11H936.722V700.115H938.593V716.355H936.785V714.484H936.563C936.426 714.706 936.23 714.986 935.976 715.325C935.723 715.658 935.36 715.956 934.89 716.221C934.419 716.48 933.793 716.609 933.01 716.609ZM933.264 714.928C934.015 714.928 934.649 714.732 935.167 714.341C935.686 713.945 936.079 713.398 936.349 712.7C936.619 711.997 936.753 711.185 936.753 710.265C936.753 709.356 936.621 708.56 936.357 707.878C936.093 707.191 935.701 706.657 935.183 706.276C934.665 705.891 934.026 705.698 933.264 705.698C932.471 705.698 931.81 705.901 931.282 706.308C930.758 706.71 930.365 707.257 930.1 707.95C929.841 708.637 929.712 709.409 929.712 710.265C929.712 711.132 929.844 711.92 930.108 712.628C930.378 713.332 930.774 713.892 931.298 714.31C931.826 714.722 932.482 714.928 933.264 714.928ZM954.601 704.175V705.761H948.288V704.175H954.601ZM950.128 701.257H952V712.866C952 713.395 952.076 713.791 952.229 714.056C952.388 714.315 952.589 714.489 952.832 714.579C953.081 714.664 953.342 714.706 953.617 714.706C953.823 714.706 953.993 714.695 954.125 714.674C954.257 714.648 954.363 714.627 954.442 714.611L954.823 716.292C954.696 716.34 954.519 716.387 954.291 716.435C954.064 716.488 953.776 716.514 953.427 716.514C952.898 716.514 952.38 716.4 951.873 716.173C951.37 715.946 950.953 715.599 950.62 715.134C950.292 714.669 950.128 714.082 950.128 713.374V701.257ZM962.604 716.609C961.505 716.609 960.54 716.348 959.71 715.824C958.885 715.301 958.24 714.569 957.775 713.628C957.315 712.687 957.085 711.587 957.085 710.329C957.085 709.06 957.315 707.952 957.775 707.006C958.24 706.06 958.885 705.325 959.71 704.801C960.54 704.278 961.505 704.016 962.604 704.016C963.704 704.016 964.666 704.278 965.491 704.801C966.321 705.325 966.966 706.06 967.426 707.006C967.891 707.952 968.124 709.06 968.124 710.329C968.124 711.587 967.891 712.687 967.426 713.628C966.966 714.569 966.321 715.301 965.491 715.824C964.666 716.348 963.704 716.609 962.604 716.609ZM962.604 714.928C963.44 714.928 964.127 714.714 964.666 714.286C965.205 713.858 965.604 713.294 965.863 712.597C966.123 711.899 966.252 711.143 966.252 710.329C966.252 709.515 966.123 708.756 965.863 708.053C965.604 707.35 965.205 706.781 964.666 706.348C964.127 705.914 963.44 705.698 962.604 705.698C961.769 705.698 961.082 705.914 960.542 706.348C960.003 706.781 959.604 707.35 959.345 708.053C959.086 708.756 958.956 709.515 958.956 710.329C958.956 711.143 959.086 711.899 959.345 712.597C959.604 713.294 960.003 713.858 960.542 714.286C961.082 714.714 961.769 714.928 962.604 714.928ZM983.269 716.355H978.257V700.115H983.491C985.066 700.115 986.414 700.44 987.535 701.09C988.656 701.735 989.515 702.663 990.112 703.874C990.71 705.079 991.008 706.522 991.008 708.203C991.008 709.895 990.707 711.352 990.104 712.573C989.502 713.789 988.624 714.725 987.471 715.38C986.319 716.03 984.918 716.355 983.269 716.355ZM980.223 714.611H983.142C984.484 714.611 985.597 714.352 986.48 713.834C987.363 713.316 988.021 712.578 988.455 711.621C988.888 710.664 989.105 709.525 989.105 708.203C989.105 706.892 988.891 705.764 988.463 704.817C988.034 703.866 987.395 703.136 986.544 702.629C985.692 702.116 984.633 701.859 983.364 701.859H980.223V714.611ZM994.424 716.355V704.175H996.232V706.015H996.359C996.581 705.412 996.983 704.923 997.565 704.548C998.146 704.172 998.802 703.985 999.531 703.985C999.669 703.985 999.841 703.987 1000.05 703.993C1000.25 703.998 1000.41 704.006 1000.51 704.016V705.92C1000.45 705.904 1000.31 705.88 1000.08 705.848C999.856 705.811 999.621 705.793 999.373 705.793C998.781 705.793 998.252 705.917 997.787 706.165C997.327 706.409 996.962 706.747 996.692 707.18C996.428 707.609 996.296 708.098 996.296 708.648V716.355H994.424ZM1003.1 716.355V704.175H1004.98V716.355H1003.1ZM1004.06 702.145C1003.69 702.145 1003.38 702.021 1003.11 701.772C1002.85 701.524 1002.72 701.225 1002.72 700.876C1002.72 700.527 1002.85 700.229 1003.11 699.98C1003.38 699.732 1003.69 699.607 1004.06 699.607C1004.42 699.607 1004.73 699.732 1004.99 699.98C1005.26 700.229 1005.39 700.527 1005.39 700.876C1005.39 701.225 1005.26 701.524 1004.99 701.772C1004.73 702.021 1004.42 702.145 1004.06 702.145ZM1018.73 704.175L1014.23 716.355H1012.33L1007.82 704.175H1009.85L1013.22 713.881H1013.34L1016.7 704.175H1018.73ZM1023.45 700.115V716.355H1021.58V700.115H1023.45ZM1028.45 720.923C1028.13 720.923 1027.85 720.897 1027.6 720.844C1027.35 720.796 1027.18 720.749 1027.09 720.701L1027.56 719.052C1028.02 719.168 1028.42 719.21 1028.77 719.179C1029.12 719.147 1029.43 718.991 1029.7 718.711C1029.97 718.436 1030.22 717.989 1030.45 717.371L1030.8 716.419L1026.29 704.175H1028.32L1031.69 713.881H1031.81L1035.18 704.175H1037.21L1032.04 718.132C1031.8 718.761 1031.51 719.282 1031.17 719.694C1030.83 720.112 1030.43 720.421 1029.97 720.622C1029.52 720.823 1029.02 720.923 1028.45 720.923ZM1040.65 716.482C1040.26 716.482 1039.92 716.342 1039.64 716.062C1039.36 715.782 1039.22 715.446 1039.22 715.055C1039.22 714.664 1039.36 714.328 1039.64 714.048C1039.92 713.768 1040.26 713.628 1040.65 713.628C1041.04 713.628 1041.37 713.768 1041.66 714.048C1041.94 714.328 1042.08 714.664 1042.08 715.055C1042.08 715.314 1042.01 715.552 1041.88 715.769C1041.75 715.985 1041.58 716.16 1041.36 716.292C1041.15 716.419 1040.91 716.482 1040.65 716.482Z" fill="#2D333A"/>
<g filter="url(#filter1_d_1425_8821)">
<rect x="621" y="982.216" width="486" height="69.7839" rx="8.37407" fill="#070712"/>
<path d="M830.773 1014.15H828.299C828.204 1013.62 828.027 1013.16 827.768 1012.75C827.509 1012.35 827.191 1012.01 826.816 1011.73C826.441 1011.45 826.02 1011.24 825.555 1011.1C825.095 1010.95 824.606 1010.88 824.088 1010.88C823.152 1010.88 822.315 1011.12 821.574 1011.59C820.84 1012.06 820.258 1012.75 819.83 1013.66C819.407 1014.57 819.195 1015.68 819.195 1016.99C819.195 1018.31 819.407 1019.43 819.83 1020.33C820.258 1021.24 820.842 1021.93 821.582 1022.4C822.322 1022.86 823.155 1023.09 824.08 1023.09C824.593 1023.09 825.079 1023.03 825.539 1022.89C826.005 1022.75 826.425 1022.54 826.8 1022.26C827.176 1021.99 827.493 1021.65 827.752 1021.25C828.016 1020.85 828.199 1020.39 828.299 1019.87L830.773 1019.88C830.641 1020.68 830.385 1021.42 830.004 1022.09C829.629 1022.75 829.145 1023.33 828.553 1023.82C827.966 1024.3 827.295 1024.67 826.539 1024.93C825.783 1025.2 824.958 1025.33 824.064 1025.33C822.658 1025.33 821.405 1025 820.306 1024.33C819.206 1023.66 818.339 1022.7 817.705 1021.45C817.075 1020.21 816.761 1018.72 816.761 1016.99C816.761 1015.25 817.078 1013.77 817.712 1012.52C818.347 1011.28 819.214 1010.32 820.314 1009.65C821.413 1008.98 822.663 1008.65 824.064 1008.65C824.926 1008.65 825.73 1008.77 826.475 1009.02C827.226 1009.26 827.9 1009.62 828.497 1010.1C829.095 1010.57 829.589 1011.14 829.98 1011.83C830.371 1012.5 830.636 1013.28 830.773 1014.15ZM838.646 1025.35C837.504 1025.35 836.507 1025.09 835.656 1024.57C834.805 1024.05 834.144 1023.31 833.674 1022.37C833.203 1021.43 832.968 1020.33 832.968 1019.07C832.968 1017.81 833.203 1016.71 833.674 1015.76C834.144 1014.81 834.805 1014.08 835.656 1013.55C836.507 1013.03 837.504 1012.77 838.646 1012.77C839.788 1012.77 840.784 1013.03 841.635 1013.55C842.486 1014.08 843.147 1014.81 843.618 1015.76C844.088 1016.71 844.324 1017.81 844.324 1019.07C844.324 1020.33 844.088 1021.43 843.618 1022.37C843.147 1023.31 842.486 1024.05 841.635 1024.57C840.784 1025.09 839.788 1025.35 838.646 1025.35ZM838.654 1023.36C839.394 1023.36 840.007 1023.17 840.493 1022.78C840.98 1022.39 841.339 1021.87 841.572 1021.21C841.81 1020.56 841.929 1019.85 841.929 1019.07C841.929 1018.29 841.81 1017.57 841.572 1016.92C841.339 1016.27 840.98 1015.74 840.493 1015.35C840.007 1014.95 839.394 1014.75 838.654 1014.75C837.908 1014.75 837.29 1014.95 836.798 1015.35C836.312 1015.74 835.949 1016.27 835.712 1016.92C835.479 1017.57 835.363 1018.29 835.363 1019.07C835.363 1019.85 835.479 1020.56 835.712 1021.21C835.949 1021.87 836.312 1022.39 836.798 1022.78C837.29 1023.17 837.908 1023.36 838.654 1023.36ZM849.341 1017.88V1025.11H846.97V1012.93H849.246V1014.91H849.397C849.677 1014.27 850.116 1013.75 850.713 1013.36C851.316 1012.96 852.074 1012.77 852.989 1012.77C853.819 1012.77 854.546 1012.94 855.17 1013.29C855.794 1013.64 856.277 1014.15 856.621 1014.83C856.965 1015.51 857.136 1016.36 857.136 1017.36V1025.11H854.765V1017.65C854.765 1016.76 854.535 1016.07 854.075 1015.58C853.615 1015.07 852.984 1014.82 852.18 1014.82C851.63 1014.82 851.141 1014.94 850.713 1015.18C850.29 1015.42 849.954 1015.77 849.706 1016.23C849.463 1016.68 849.341 1017.23 849.341 1017.88ZM866.002 1012.93V1014.83H859.349V1012.93H866.002ZM861.133 1010.01H863.504V1021.53C863.504 1021.99 863.573 1022.34 863.71 1022.57C863.848 1022.8 864.025 1022.95 864.242 1023.04C864.464 1023.12 864.704 1023.16 864.963 1023.16C865.154 1023.16 865.32 1023.14 865.463 1023.12C865.606 1023.09 865.717 1023.07 865.796 1023.05L866.224 1025.01C866.087 1025.07 865.891 1025.12 865.637 1025.17C865.384 1025.23 865.066 1025.26 864.686 1025.27C864.062 1025.28 863.48 1025.17 862.941 1024.93C862.402 1024.7 861.966 1024.34 861.633 1023.86C861.3 1023.37 861.133 1022.76 861.133 1022.02V1010.01ZM868.625 1025.11V1012.93H870.996V1025.11H868.625ZM869.822 1011.05C869.41 1011.05 869.056 1010.91 868.76 1010.64C868.469 1010.36 868.324 1010.02 868.324 1009.64C868.324 1009.25 868.469 1008.91 868.76 1008.64C869.056 1008.36 869.41 1008.22 869.822 1008.22C870.235 1008.22 870.586 1008.36 870.877 1008.64C871.173 1008.91 871.321 1009.25 871.321 1009.64C871.321 1010.02 871.173 1010.36 870.877 1010.64C870.586 1010.91 870.235 1011.05 869.822 1011.05ZM876.557 1017.88V1025.11H874.186V1012.93H876.462V1014.91H876.612C876.893 1014.27 877.331 1013.75 877.929 1013.36C878.532 1012.96 879.29 1012.77 880.205 1012.77C881.035 1012.77 881.762 1012.94 882.385 1013.29C883.009 1013.64 883.493 1014.15 883.837 1014.83C884.18 1015.51 884.352 1016.36 884.352 1017.36V1025.11H881.981V1017.65C881.981 1016.76 881.751 1016.07 881.291 1015.58C880.831 1015.07 880.199 1014.82 879.396 1014.82C878.846 1014.82 878.357 1014.94 877.929 1015.18C877.506 1015.42 877.17 1015.77 876.922 1016.23C876.679 1016.68 876.557 1017.23 876.557 1017.88ZM895.248 1020.06V1012.93H897.627V1025.11H895.296V1023H895.169C894.888 1023.65 894.439 1024.19 893.821 1024.62C893.207 1025.05 892.443 1025.27 891.529 1025.27C890.746 1025.27 890.054 1025.1 889.451 1024.75C888.854 1024.4 888.383 1023.89 888.04 1023.21C887.701 1022.52 887.532 1021.68 887.532 1020.68V1012.93H889.903V1020.39C889.903 1021.22 890.133 1021.88 890.593 1022.37C891.053 1022.86 891.65 1023.11 892.385 1023.11C892.829 1023.11 893.271 1023 893.71 1022.78C894.154 1022.55 894.521 1022.22 894.812 1021.77C895.108 1021.32 895.253 1020.75 895.248 1020.06ZM906.062 1025.35C904.862 1025.35 903.829 1025.1 902.962 1024.59C902.1 1024.07 901.434 1023.34 900.963 1022.4C900.498 1021.46 900.266 1020.36 900.266 1019.1C900.266 1017.85 900.498 1016.75 900.963 1015.8C901.434 1014.85 902.09 1014.1 902.93 1013.57C903.776 1013.04 904.765 1012.77 905.896 1012.77C906.583 1012.77 907.249 1012.88 907.894 1013.11C908.539 1013.34 909.118 1013.69 909.631 1014.18C910.144 1014.67 910.548 1015.3 910.844 1016.08C911.14 1016.85 911.288 1017.79 911.288 1018.89V1019.73H901.606V1017.96H908.965C908.965 1017.33 908.838 1016.78 908.584 1016.3C908.33 1015.81 907.974 1015.43 907.514 1015.15C907.059 1014.87 906.525 1014.73 905.912 1014.73C905.246 1014.73 904.664 1014.89 904.167 1015.22C903.676 1015.54 903.295 1015.97 903.025 1016.49C902.761 1017.01 902.629 1017.57 902.629 1018.18V1019.57C902.629 1020.38 902.771 1021.07 903.057 1021.64C903.348 1022.21 903.752 1022.65 904.27 1022.95C904.788 1023.25 905.394 1023.4 906.086 1023.4C906.536 1023.4 906.945 1023.33 907.315 1023.21C907.685 1023.07 908.005 1022.88 908.275 1022.62C908.545 1022.36 908.751 1022.04 908.893 1021.66L911.138 1022.06C910.958 1022.72 910.635 1023.3 910.17 1023.8C909.71 1024.29 909.131 1024.67 908.434 1024.95C907.741 1025.22 906.951 1025.35 906.062 1025.35Z" fill="white"/>
</g>
</g>
<rect x="575.698" y="138.698" width="576.536" height="1010.6" rx="16.6055" stroke="#E2E2E7" stroke-width="1.39568"/>
</g>
</g>
<defs>
<filter id="filter0_dd_1425_8821" x="512.708" y="86.09" width="702.516" height="1136.58" filterUnits="userSpaceOnUse" color-interpolation-filters="sRGB">
<feFlood flood-opacity="0" result="BackgroundImageFix"/>
<feColorMatrix in="SourceAlpha" type="matrix" values="0 0 0 0 0 0 0 0 0 0 0 0 0 0 0 0 0 0 127 0" result="hardAlpha"/>
<feMorphology radius="8.65167" operator="erode" in="SourceAlpha" result="effect1_dropShadow_1425_8821"/>
<feOffset dy="20.764"/>
<feGaussianBlur stdDeviation="15.573"/>
<feColorMatrix type="matrix" values="0 0 0 0 0 0 0 0 0 0 0 0 0 0 0 0 0 0 0.04 0"/>
<feBlend mode="normal" in2="BackgroundImageFix" result="effect1_dropShadow_1425_8821"/>
<feColorMatrix in="SourceAlpha" type="matrix" values="0 0 0 0 0 0 0 0 0 0 0 0 0 0 0 0 0 0 127 0" result="hardAlpha"/>
<feMorphology radius="8.65167" operator="erode" in="SourceAlpha" result="effect2_dropShadow_1425_8821"/>
<feOffset dy="10.382"/>
<feGaussianBlur stdDeviation="35.4718"/>
<feColorMatrix type="matrix" values="0 0 0 0 0 0 0 0 0 0 0 0 0 0 0 0 0 0 0.1 0"/>
<feBlend mode="normal" in2="effect1_dropShadow_1425_8821" result="effect2_dropShadow_1425_8821"/>
<feBlend mode="normal" in="SourceGraphic" in2="effect2_dropShadow_1425_8821" result="shape"/>
</filter>
<filter id="filter1_d_1425_8821" x="618.031" y="980.732" width="491.937" height="75.7209" filterUnits="userSpaceOnUse" color-interpolation-filters="sRGB">
<feFlood flood-opacity="0" result="BackgroundImageFix"/>
<feColorMatrix in="SourceAlpha" type="matrix" values="0 0 0 0 0 0 0 0 0 0 0 0 0 0 0 0 0 0 127 0" result="hardAlpha"/>
<feOffset dy="1.48431"/>
<feGaussianBlur stdDeviation="1.48431"/>
<feColorMatrix type="matrix" values="0 0 0 0 0 0 0 0 0 0 0 0 0 0 0 0 0 0 0.05 0"/>
<feBlend mode="normal" in2="BackgroundImageFix" result="effect1_dropShadow_1425_8821"/>
<feBlend mode="normal" in="SourceGraphic" in2="effect1_dropShadow_1425_8821" result="shape"/>
</filter>
<clipPath id="clip0_1425_8821">
<rect width="1728" height="1097" rx="11.5063" fill="white"/>
</clipPath>
<clipPath id="clip1_1425_8821">
<rect x="575" y="138" width="577.931" height="1012" rx="17.3033" fill="white"/>
</clipPath>
<clipPath id="clip2_1425_8821">
<rect x="823.525" y="491" width="80.9493" height="80.9493" rx="40.4747" fill="white"/>
</clipPath>
</defs>
</svg>
